999
DXF file: C:\Users\Theo\Documents\GitHub\MECH2110\RPA Crane 2\rpa.dxf
999
Pro/ENGINEER 2025102 by Parametric Technology Corporation
  0
SECTION
  2
HEADER
  9
$ACADVER
  1
AC1032
  9
$DWGCODEPAGE
  3
ANSI_1252
  9
$EXTMAX
 10
440.0
 20
290.0
 30
0.0
  9
$EXTMIN
 10
0.0
 20
0.0
 30
0.0
  9
$LIMMIN
 10
0.0
 20
0.0
  9
$LIMMAX
 10
440.0
 20
290.0
  9
$VIEWCTR
 10
220.0
 20
145.0
  9
$VIEWSIZE
 40
290.0
  9
$CLAYER
  8
0
  9
$LTSCALE
 40
24.2
  9
$CELTYPE
  6
BYLAYER
  9
$DIMSCALE
 40
1.0
  9
$DIMASZ
 40
3.5
  9
$DIMEXO
 40
2.0
  9
$DIMDLI
 40
16.72
  9
$DIMEXE
 40
2.0
  9
$DIMCEN
 40
3.96
  9
$DIMLFAC
 40
1.0
  9
$DIMBLK
  1
_FILLED
  9
$DIMALT
 70
0
  9
$DIMALTF
 40
0.0393700787
  9
$DIMTXT
 40
3.0
  9
$DIMTOL
 70
1
  9
$DIMLIM
 70
0
  9
$DIMTFAC
 40
1.0
  9
$DIMTP
 40
0.01
  9
$DIMTM
 40
0.01
  9
$DIMGAP
 40
0.625
  9
$DIMDSEP
 70
46
  9
$AUNITS
 70
0
  9
$PDMODE
 70
3
  9
$PDSIZE
 40
1.0
  9
$HANDSEED
  5
3A8
  9
$TILEMODE
 70
1
  9
$MEASUREMENT
 70
1
  9
$INSUNITS
 70
4
  0
ENDSEC
  0
SECTION
  2
CLASSES
  0
CLASS
  1
ACDBDICTIONARYWDFLT
  2
AcDbDictionaryWithDefault
  3
AutoCAD 2000
 90
0
 91
1
280
0
281
0
  0
CLASS
  1
ACDBPLACEHOLDER
  2
AcDbPlaceHolder
  3
AutoCAD 2000
 90
0
 91
1
280
0
281
0
  0
CLASS
  1
LAYOUT
  2
AcDbLayout
  3
AutoCAD 2000
 90
0
 91
0
280
0
281
0
  0
ENDSEC
  0
SECTION
  2
TABLES
  0
TABLE
  2
VPORT
  5
8
100
AcDbSymbolTable
 70
2
  0
VPORT
  5
1F4
100
AcDbSymbolTableRecord
100
AcDbViewportTableRecord
  2
*ACTIVE
 70
0
 10
0.0
 20
0.0
 11
1.0
 21
1.0
 12
220.0
 22
145.0
 13
0.0
 23
0.0
 14
1.0
 24
1.0
 15
0.0
 25
0.0
 16
0.0
 26
0.0
 36
1.0
 17
0.0
 27
0.0
 37
0.0
 40
290.0
 41
1.5172413793
 42
50.0
 43
0.0
 44
0.0
 50
0.0
 51
0.0
 71
0
 72
100
 73
1
 74
1
 75
0
 76
0
 77
0
 78
0
  0
ENDTAB
  0
TABLE
  2
LTYPE
  5
5
100
AcDbSymbolTable
 70
6
  0
LTYPE
  5
14
100
AcDbSymbolTableRecord
100
AcDbLinetypeTableRecord
  2
BYBLOCK
 70
0
  3

 72
65
 73
0
 40
0.0
  0
LTYPE
  5
15
100
AcDbSymbolTableRecord
100
AcDbLinetypeTableRecord
  2
BYLAYER
 70
0
  3

 72
65
 73
0
 40
0.0
  0
LTYPE
  5
16
100
AcDbSymbolTableRecord
100
AcDbLinetypeTableRecord
  2
CONTINUOUS
 70
64
  3
Solid line
 72
65
 73
0
 40
0.0
  0
LTYPE
  5
1F5
100
AcDbSymbolTableRecord
100
AcDbLinetypeTableRecord
  2
CENTER
 70
64
  3
____ _ ____ _ ____ _ ____ _ ____ _ ____ _ ____
 72
65
 73
4
 40
0.6
 49
0.375
 74
0
 49
-0.075
 74
0
 49
0.075
 74
0
 49
-0.075
 74
0
  0
LTYPE
  5
1F6
100
AcDbSymbolTableRecord
100
AcDbLinetypeTableRecord
  2
HIDDEN
 70
64
  3
- - - - - - - - - - - - - - - - - - - -
 72
65
 73
2
 40
0.2
 49
0.1
 74
0
 49
-0.1
 74
0
  0
LTYPE
  5
1F7
100
AcDbSymbolTableRecord
100
AcDbLinetypeTableRecord
  2
PHANTOM
 70
64
  3
_____ _ _ _____ _ _ _____ _ _ _____
 72
65
 73
6
 40
0.8
 49
0.45
 74
0
 49
-0.05
 74
0
 49
0.1
 74
0
 49
-0.05
 74
0
 49
0.1
 74
0
 49
-0.05
 74
0
  0
LTYPE
  5
1F8
100
AcDbSymbolTableRecord
100
AcDbLinetypeTableRecord
  2
DOT
 70
64
  3
. . . . . . . . . . . . . . . . . . . .
 72
65
 73
2
 40
0.2
 49
0.1
 74
0
 49
-0.1
 74
0
  0
LTYPE
  5
1F9
100
AcDbSymbolTableRecord
100
AcDbLinetypeTableRecord
  2
DASHED
 70
64
  3
- - - - - - - - - - - - - - - - - - - -
 72
65
 73
2
 40
0.2
 49
0.1
 74
0
 49
-0.1
 74
0
  0
ENDTAB
  0
TABLE
  2
LAYER
  5
2
100
AcDbSymbolTable
 70
36
  0
LAYER
  5
10
100
AcDbSymbolTableRecord
100
AcDbLayerTableRecord
  2
0
 70
0
 62
7
  6
CONTINUOUS
370
-3
390
F
  0
LAYER
  5
1FA
100
AcDbSymbolTableRecord
100
AcDbLayerTableRecord
  2
DEFAULT_1
 70
0
 62
7
  6
CENTER
370
-3
390
F
  0
LAYER
  5
1FB
100
AcDbSymbolTableRecord
100
AcDbLayerTableRecord
  2
DEFAULT_2
 70
0
 62
8
  6
HIDDEN
370
-3
390
F
  0
LAYER
  5
1FC
100
AcDbSymbolTableRecord
100
AcDbLayerTableRecord
  2
DEFAULT_3
 70
0
 62
7
  6
PHANTOM
370
-3
390
F
  0
LAYER
  5
1FD
100
AcDbSymbolTableRecord
100
AcDbLayerTableRecord
  2
01___PRT_ALL_DTM_PLN
 70
0
 62
7
  6
CONTINUOUS
370
-3
390
F
  0
LAYER
  5
1FE
100
AcDbSymbolTableRecord
100
AcDbLayerTableRecord
  2
01___PRT_DEF_DTM_PLN
 70
0
 62
7
  6
CONTINUOUS
370
-3
390
F
  0
LAYER
  5
1FF
100
AcDbSymbolTableRecord
100
AcDbLayerTableRecord
  2
02___PRT_ALL_AXES
 70
0
 62
7
  6
CONTINUOUS
370
-3
390
F
  0
LAYER
  5
200
100
AcDbSymbolTableRecord
100
AcDbLayerTableRecord
  2
03___PRT_ALL_CURVES
 70
0
 62
7
  6
CONTINUOUS
370
-3
390
F
  0
LAYER
  5
201
100
AcDbSymbolTableRecord
100
AcDbLayerTableRecord
  2
04___PRT_ALL_DTM_PNT
 70
0
 62
7
  6
CONTINUOUS
370
-3
390
F
  0
LAYER
  5
202
100
AcDbSymbolTableRecord
100
AcDbLayerTableRecord
  2
05___PRT_ALL_DTM_CSYS
 70
0
 62
7
  6
CONTINUOUS
370
-3
390
F
  0
LAYER
  5
203
100
AcDbSymbolTableRecord
100
AcDbLayerTableRecord
  2
05___PRT_DEF_DTM_CSYS
 70
0
 62
7
  6
CONTINUOUS
370
-3
390
F
  0
LAYER
  5
204
100
AcDbSymbolTableRecord
100
AcDbLayerTableRecord
  2
06___PRT_ALL_SURFS
 70
0
 62
7
  6
CONTINUOUS
370
-3
390
F
  0
ENDTAB
  0
TABLE
  2
STYLE
  5
3
100
AcDbSymbolTable
 70
1
  0
STYLE
  5
11
100
AcDbSymbolTableRecord
100
AcDbTextStyleTableRecord
  2
STANDARD
 70
0
 40
0.0
 41
0.8
 50
0.0
 71
0
 42
0.2
  3
txt
  4

  0
STYLE
  5
205
100
AcDbSymbolTableRecord
100
AcDbTextStyleTableRecord
  2
TEXTSTYLE_1
 70
0
 40
0.0
 41
0.8
 50
0.0
 71
0
 42
0.2
  3
gdt
  4

  0
ENDTAB
  0
TABLE
  2
VIEW
  5
6
100
AcDbSymbolTable
 70
0
  0
ENDTAB
  0
TABLE
  2
UCS
  5
7
100
AcDbSymbolTable
 70
0
  0
ENDTAB
  0
TABLE
  2
APPID
  5
9
100
AcDbSymbolTable
 70
1
  0
APPID
  5
206
100
AcDbSymbolTableRecord
100
AcDbRegAppTableRecord
  2
ACAD
 70
0
  0
ENDTAB
  0
TABLE
  2
BLOCK_RECORD
  5
1
100
AcDbSymbolTable
 70
0
  0
BLOCK_RECORD
  5
207
100
AcDbSymbolTableRecord
100
AcDbBlockTableRecord
  2
*Model_Space
  0
BLOCK_RECORD
  5
208
100
AcDbSymbolTableRecord
100
AcDbBlockTableRecord
  2
*Paper_Space
  0
BLOCK_RECORD
  5
209
100
AcDbSymbolTableRecord
100
AcDbBlockTableRecord
  2
_FILLED
  0
ENDTAB
  0
TABLE
  2
DIMSTYLE
  5
A
100
AcDbSymbolTable
 70
1
100
AcDbDimStyleTable
 71
0
  0
DIMSTYLE
105
20A
100
AcDbSymbolTableRecord
100
AcDbDimStyleTableRecord
  2
STANDARD
 70
0
  3

  4

 40
1.0
 41
3.5
 42
2.0
 43
0.38
 44
2.0
 45
0.0
 46
0.0
 47
0.01
 48
0.01
140
3.0
141
0.0
142
0.0
143
25.4
144
1.0
145
0.0
146
1.0
147
0.625
 71
1
 72
0
 73
0
 74
0
 75
0
 76
0
 77
1
 78
8
 79
2
170
0
171
1
172
0
173
0
174
0
175
0
176
0
177
0
178
0
270
2
179
1
271
2
272
2
273
2
274
2
275
0
280
0
281
0
282
0
283
1
284
8
285
0
286
0
287
3
288
0
340
11
278
46
341
209
342
209
343
209
344
209
  0
ENDTAB
  0
ENDSEC
  0
SECTION
  2
BLOCKS
  0
BLOCK
  5
20
100
AcDbEntity
  8
0
100
AcDbBlockBegin
  2
*Model_Space
 70
0
 10
0.0
 20
0.0
 30
0.0
  3
*Model_Space
  1

  0
ENDBLK
  5
21
100
AcDbEntity
  8
0
100
AcDbBlockEnd
  0
BLOCK
  5
1C
100
AcDbEntity
  8
0
100
AcDbBlockBegin
  2
*Paper_Space
 70
0
 10
0.0
 20
0.0
 30
0.0
  3
*Paper_Space
  1

  0
ENDBLK
  5
1D
100
AcDbEntity
  8
0
100
AcDbBlockEnd
  0
BLOCK
  5
20B
100
AcDbEntity
  8
0
100
AcDbBlockBegin
  2
_FILLED
 70
64
 10
0.0
 20
0.0
 30
0.0
  3
_FILLED
  1

  0
SOLID
  5
20C
100
AcDbEntity
  8
0
  6
BYBLOCK
 62
0
100
AcDbTrace
 10
0.0
 20
0.0
 30
0.0
 11
-1.0
 21
0.25
 31
0.0
 12
-1.0
 22
-0.25
 32
0.0
 13
-1.0
 23
-0.25
 33
0.0
  0
ENDBLK
  5
20D
100
AcDbEntity
  8
0
  6
BYBLOCK
 62
0
100
AcDbBlockEnd
  0
ENDSEC
  0
SECTION
  2
ENTITIES
  0
LINE
  5
20E
100
AcDbEntity
  8
0
100
AcDbLine
 62
7
  6
CONTINUOUS
 10
0.0
 20
0.0
 30
0.0
 11
0.0
 21
290.0
 31
0.0
  0
LINE
  5
20F
100
AcDbEntity
  8
0
100
AcDbLine
 62
7
  6
CONTINUOUS
 10
0.0
 20
0.0
 30
0.0
 11
440.0
 21
0.0
 31
0.0
  0
LINE
  5
210
100
AcDbEntity
  8
0
100
AcDbLine
 62
7
  6
CONTINUOUS
 10
0.0
 20
290.0
 30
0.0
 11
440.0
 21
290.0
 31
0.0
  0
LINE
  5
211
100
AcDbEntity
  8
0
100
AcDbLine
 62
7
  6
CONTINUOUS
 10
440.0
 20
0.0
 30
0.0
 11
440.0
 21
290.0
 31
0.0
  0
LINE
  5
212
100
AcDbEntity
  8
03___PRT_ALL_CURVES
100
AcDbLine
 62
4
  6
CONTINUOUS
 10
-160.5259623596
 20
-0.6299585976
 30
0.0
 11
-162.7013558312
 21
1.1328979603
 31
0.0
  0
LINE
  5
213
100
AcDbEntity
  8
03___PRT_ALL_CURVES
100
AcDbLine
 62
4
  6
CONTINUOUS
 10
-150.2354416004
 20
16.5160375095
 30
0.0
 11
-148.0600481288
 21
14.7531809516
 31
0.0
  0
LINE
  5
214
100
AcDbEntity
  8
03___PRT_ALL_CURVES
100
AcDbLine
 62
4
  6
CONTINUOUS
 10
-131.9714865899
 20
36.830389426
 30
0.0
 11
-130.8837898541
 21
35.948961147
 31
0.0
  0
LINE
  5
215
100
AcDbEntity
  8
03___PRT_ALL_CURVES
100
AcDbLine
 62
4
  6
CONTINUOUS
 10
-118.4178756233
 20
51.3321006962
 30
0.0
 11
-119.5055723591
 21
52.2135289752
 31
0.0
  0
LINE
  5
216
100
AcDbEntity
  8
03___PRT_ALL_CURVES
100
AcDbLine
 62
4
  6
CONTINUOUS
 10
30.7069378709
 20
19.4805005916
 30
0.0
 11
32.8823313425
 21
17.7176440337
 31
0.0
  0
LINE
  5
217
100
AcDbEntity
  8
03___PRT_ALL_CURVES
100
AcDbLine
 62
4
  6
CONTINUOUS
 10
60.9226848625
 20
70.4268684868
 30
0.0
 11
11.0496899444
 21
8.8827870537
 31
0.0
  0
LINE
  5
218
100
AcDbEntity
  8
03___PRT_ALL_CURVES
100
AcDbLine
 62
4
  6
CONTINUOUS
 10
65.0826407499
 20
61.9006732878
 30
0.0
 11
52.6167265191
 21
46.5175337387
 31
0.0
  0
LINE
  5
219
100
AcDbEntity
  8
03___PRT_ALL_CURVES
100
AcDbLine
 62
4
  6
CONTINUOUS
 10
43.1728521018
 20
34.8636401408
 30
0.0
 11
30.7069378709
 21
19.4805005916
 31
0.0
  0
LINE
  5
21A
100
AcDbEntity
  8
03___PRT_ALL_CURVES
100
AcDbLine
 62
4
  6
CONTINUOUS
 10
11.0496899444
 20
8.8827870537
 30
0.0
 11
274.9623598231
 21
50.5336834213
 31
0.0
  0
LINE
  5
21B
100
AcDbEntity
  8
03___PRT_ALL_CURVES
100
AcDbLine
 62
4
  6
CONTINUOUS
 10
32.8823313425
 20
17.7176440337
 30
0.0
 11
45.3482455734
 21
33.1007835829
 31
0.0
  0
LINE
  5
21C
100
AcDbEntity
  8
03___PRT_ALL_CURVES
100
AcDbLine
 62
4
  6
CONTINUOUS
 10
54.7921199907
 20
44.7546771808
 30
0.0
 11
67.2580342215
 21
60.13781673
 31
0.0
  0
LINE
  5
21D
100
AcDbEntity
  8
03___PRT_ALL_CURVES
100
AcDbLine
 62
4
  6
CONTINUOUS
 10
45.3482455734
 20
33.1007835829
 30
0.0
 11
43.1728521018
 21
34.8636401408
 31
0.0
  0
LINE
  5
21E
100
AcDbEntity
  8
03___PRT_ALL_CURVES
100
AcDbLine
 62
4
  6
CONTINUOUS
 10
52.6167265191
 20
46.5175337387
 30
0.0
 11
54.7921199907
 21
44.7546771808
 31
0.0
  0
LINE
  5
21F
100
AcDbEntity
  8
03___PRT_ALL_CURVES
100
AcDbLine
 62
4
  6
CONTINUOUS
 10
67.2580342215
 20
60.13781673
 30
0.0
 11
65.0826407499
 21
61.9006732878
 31
0.0
  0
LINE
  5
220
100
AcDbEntity
  8
03___PRT_ALL_CURVES
100
AcDbLine
 62
4
  6
CONTINUOUS
 10
60.9226848625
 20
70.4268684868
 30
0.0
 11
273.404173894
 21
70.4114256037
 31
0.0
  0
LINE
  5
221
100
AcDbEntity
  8
03___PRT_ALL_CURVES
100
AcDbLine
 62
4
  6
CONTINUOUS
 10
-161.3752995204
 20
145.4335825816
 30
0.0
 11
-163.550692992
 21
143.6707260237
 31
0.0
  0
LINE
  5
222
100
AcDbEntity
  8
03___PRT_ALL_CURVES
100
AcDbLine
 62
4
  6
CONTINUOUS
 10
-151.0847787611
 20
128.2875864745
 30
0.0
 11
-148.9093852895
 21
130.0504430324
 31
0.0
  0
LINE
  5
223
100
AcDbEntity
  8
03___PRT_ALL_CURVES
100
AcDbLine
 62
4
  6
CONTINUOUS
 10
-132.8208237507
 20
107.9732345581
 30
0.0
 11
-131.7331270149
 21
108.854662837
 31
0.0
  0
LINE
  5
224
100
AcDbEntity
  8
03___PRT_ALL_CURVES
100
AcDbLine
 62
4
  6
CONTINUOUS
 10
-119.267212784
 20
93.4715232878
 30
0.0
 11
-120.3549095198
 21
92.5900950089
 31
0.0
  0
LINE
  5
225
100
AcDbEntity
  8
03___PRT_ALL_CURVES
100
AcDbLine
 62
4
  6
CONTINUOUS
 10
29.8576007102
 20
125.3231233924
 30
0.0
 11
32.0329941818
 21
127.0859799503
 31
0.0
  0
LINE
  5
226
100
AcDbEntity
  8
03___PRT_ALL_CURVES
100
AcDbLine
 62
4
  6
CONTINUOUS
 10
60.0733477017
 20
74.3767554972
 30
0.0
 11
272.5548367332
 21
74.3921983804
 31
0.0
  0
LINE
  5
227
100
AcDbEntity
  8
03___PRT_ALL_CURVES
100
AcDbLine
 62
4
  6
CONTINUOUS
 10
60.0733477017
 20
74.3767554972
 30
0.0
 11
10.2003527836
 21
135.9208369304
 31
0.0
  0
LINE
  5
228
100
AcDbEntity
  8
03___PRT_ALL_CURVES
100
AcDbLine
 62
4
  6
CONTINUOUS
 10
64.2333035891
 20
82.9029506962
 30
0.0
 11
51.7673893583
 21
98.2860902454
 31
0.0
  0
LINE
  5
229
100
AcDbEntity
  8
03___PRT_ALL_CURVES
100
AcDbLine
 62
4
  6
CONTINUOUS
 10
42.323514941
 20
109.9399838432
 30
0.0
 11
29.8576007102
 21
125.3231233924
 31
0.0
  0
LINE
  5
22A
100
AcDbEntity
  8
03___PRT_ALL_CURVES
100
AcDbLine
 62
4
  6
CONTINUOUS
 10
44.4989084126
 20
111.7028404011
 30
0.0
 11
42.323514941
 21
109.9399838432
 31
0.0
  0
LINE
  5
22B
100
AcDbEntity
  8
03___PRT_ALL_CURVES
100
AcDbLine
 62
4
  6
CONTINUOUS
 10
32.0329941818
 20
127.0859799503
 30
0.0
 11
44.4989084126
 21
111.7028404011
 31
0.0
  0
LINE
  5
22C
100
AcDbEntity
  8
03___PRT_ALL_CURVES
100
AcDbLine
 62
4
  6
CONTINUOUS
 10
53.9427828299
 20
100.0489468033
 30
0.0
 11
66.4086970607
 21
84.6658072541
 31
0.0
  0
LINE
  5
22D
100
AcDbEntity
  8
03___PRT_ALL_CURVES
100
AcDbLine
 62
4
  6
CONTINUOUS
 10
51.7673893583
 20
98.2860902454
 30
0.0
 11
53.9427828299
 21
100.0489468033
 31
0.0
  0
LINE
  5
22E
100
AcDbEntity
  8
03___PRT_ALL_CURVES
100
AcDbLine
 62
4
  6
CONTINUOUS
 10
66.4086970607
 20
84.6658072541
 30
0.0
 11
64.2333035891
 21
82.9029506962
 31
0.0
  0
LINE
  5
22F
100
AcDbEntity
  8
03___PRT_ALL_CURVES
100
AcDbLine
 62
4
  6
CONTINUOUS
 10
10.2003527836
 20
135.9208369304
 30
0.0
 11
274.1130226623
 21
94.2699405627
 31
0.0
  0
LINE
  5
230
100
AcDbEntity
  8
03___PRT_ALL_CURVES
100
AcDbLine
 62
4
  6
CONTINUOUS
 10
27.0198136549
 20
179.2299281981
 30
0.0
 11
29.1952071265
 21
180.992784756
 31
0.0
  0
LINE
  5
231
100
AcDbEntity
  8
03___PRT_ALL_CURVES
100
AcDbLine
 62
4
  6
CONTINUOUS
 10
41.6611213574
 20
165.6096452068
 30
0.0
 11
39.4857278858
 21
163.8467886489
 31
0.0
  0
LINE
  5
232
100
AcDbEntity
  8
03___PRT_ALL_CURVES
100
AcDbLine
 62
4
  6
CONTINUOUS
 10
6.7367729448
 20
189.5170453644
 30
0.0
 11
52.7044650192
 21
132.792170731
 31
0.0
  0
LINE
  5
233
100
AcDbEntity
  8
03___PRT_ALL_CURVES
100
AcDbLine
 62
4
  6
CONTINUOUS
 10
61.3955165339
 20
136.8097555019
 30
0.0
 11
48.9296023031
 21
152.192895051
 31
0.0
  0
LINE
  5
234
100
AcDbEntity
  8
03___PRT_ALL_CURVES
100
AcDbLine
 62
4
  6
CONTINUOUS
 10
39.4857278858
 20
163.8467886489
 30
0.0
 11
27.0198136549
 21
179.2299281981
 31
0.0
  0
LINE
  5
235
100
AcDbEntity
  8
03___PRT_ALL_CURVES
100
AcDbLine
 62
4
  6
CONTINUOUS
 10
48.9296023031
 20
152.192895051
 30
0.0
 11
51.1049957747
 21
153.9557516089
 31
0.0
  0
LINE
  5
236
100
AcDbEntity
  8
03___PRT_ALL_CURVES
100
AcDbLine
 62
4
  6
CONTINUOUS
 10
29.1952071265
 20
180.992784756
 30
0.0
 11
41.6611213574
 21
165.6096452068
 31
0.0
  0
LINE
  5
237
100
AcDbEntity
  8
03___PRT_ALL_CURVES
100
AcDbLine
 62
4
  6
CONTINUOUS
 10
51.1049957747
 20
153.9557516089
 30
0.0
 11
63.5709100055
 21
138.5726120598
 31
0.0
  0
LINE
  5
238
100
AcDbEntity
  8
03___PRT_ALL_CURVES
100
AcDbLine
 62
4
  6
CONTINUOUS
 10
63.5709100055
 20
138.5726120598
 30
0.0
 11
61.3955165339
 21
136.8097555019
 31
0.0
  0
LINE
  5
239
100
AcDbEntity
  8
03___PRT_ALL_CURVES
100
AcDbLine
 62
4
  6
CONTINUOUS
 10
52.7044650192
 20
132.792170731
 30
0.0
 11
258.4330815276
 21
100.3239254968
 31
0.0
  0
LINE
  5
23A
100
AcDbEntity
  8
03___PRT_ALL_CURVES
100
AcDbLine
 62
4
  6
CONTINUOUS
 10
212.6957234997
 20
170.4242121644
 30
0.0
 11
214.8711169713
 21
172.1870687223
 31
0.0
  0
LINE
  5
23B
100
AcDbEntity
  8
03___PRT_ALL_CURVES
100
AcDbLine
 62
4
  6
CONTINUOUS
 10
227.3370312021
 20
156.8039291731
 30
0.0
 11
225.1616377305
 21
155.0410726152
 31
0.0
  0
LINE
  5
23C
100
AcDbEntity
  8
03___PRT_ALL_CURVES
100
AcDbLine
 62
4
  6
CONTINUOUS
 10
211.6273295439
 20
189.5319365482
 30
0.0
 11
6.7367729448
 21
189.5170453644
 31
0.0
  0
LINE
  5
23D
100
AcDbEntity
  8
03___PRT_ALL_CURVES
100
AcDbLine
 62
4
  6
CONTINUOUS
 10
244.5132894768
 20
135.6081489776
 30
0.0
 11
242.3378960052
 21
133.8452924197
 31
0.0
  0
LINE
  5
23E
100
AcDbEntity
  8
03___PRT_ALL_CURVES
100
AcDbLine
 62
4
  6
CONTINUOUS
 10
242.3378960052
 20
133.8452924197
 30
0.0
 11
254.803810236
 21
118.4621528706
 31
0.0
  0
LINE
  5
23F
100
AcDbEntity
  8
03___PRT_ALL_CURVES
100
AcDbLine
 62
4
  6
CONTINUOUS
 10
225.1616377305
 20
155.0410726152
 30
0.0
 11
212.6957234997
 21
170.4242121644
 31
0.0
  0
LINE
  5
240
100
AcDbEntity
  8
03___PRT_ALL_CURVES
100
AcDbLine
 62
4
  6
CONTINUOUS
 10
214.8711169713
 20
172.1870687223
 30
0.0
 11
227.3370312021
 21
156.8039291731
 31
0.0
  0
LINE
  5
241
100
AcDbEntity
  8
03___PRT_ALL_CURVES
100
AcDbLine
 62
4
  6
CONTINUOUS
 10
256.9792037076
 20
120.2250094285
 30
0.0
 11
244.5132894768
 21
135.6081489776
 31
0.0
  0
LINE
  5
242
100
AcDbEntity
  8
03___PRT_ALL_CURVES
100
AcDbLine
 62
4
  6
CONTINUOUS
 10
273.8162210768
 20
112.7898397276
 30
0.0
 11
211.6273295439
 21
189.5319365482
 31
0.0
  0
LINE
  5
243
100
AcDbEntity
  8
03___PRT_ALL_CURVES
100
AcDbLine
 62
4
  6
CONTINUOUS
 10
254.803810236
 20
118.4621528706
 30
0.0
 11
256.9792037076
 21
120.2250094285
 31
0.0
  0
LINE
  5
244
100
AcDbEntity
  8
03___PRT_ALL_CURVES
100
AcDbLine
 62
4
  6
CONTINUOUS
 10
258.4330815276
 20
100.3239254968
 30
0.0
 11
273.8162210768
 21
112.7898397276
 31
0.0
  0
LINE
  5
245
100
AcDbEntity
  8
03___PRT_ALL_CURVES
100
AcDbLine
 62
4
  6
CONTINUOUS
 10
28.1828775647
 20
202.5079827191
 30
0.0
 11
30.3582710363
 21
200.7451261612
 31
0.0
  0
LINE
  5
246
100
AcDbEntity
  8
03___PRT_ALL_CURVES
100
AcDbLine
 62
4
  6
CONTINUOUS
 10
7.8998368546
 20
192.2208655528
 30
0.0
 11
53.867528929
 21
248.9457401862
 31
0.0
  0
LINE
  5
247
100
AcDbEntity
  8
03___PRT_ALL_CURVES
100
AcDbLine
 62
4
  6
CONTINUOUS
 10
42.8241852672
 20
216.1282657104
 30
0.0
 11
40.6487917955
 21
217.8911222683
 31
0.0
  0
LINE
  5
248
100
AcDbEntity
  8
03___PRT_ALL_CURVES
100
AcDbLine
 62
4
  6
CONTINUOUS
 10
62.5585804437
 20
244.9281554153
 30
0.0
 11
50.0926662128
 21
229.5450158662
 31
0.0
  0
LINE
  5
249
100
AcDbEntity
  8
03___PRT_ALL_CURVES
100
AcDbLine
 62
4
  6
CONTINUOUS
 10
40.6487917955
 20
217.8911222683
 30
0.0
 11
28.1828775647
 21
202.5079827191
 31
0.0
  0
LINE
  5
24A
100
AcDbEntity
  8
03___PRT_ALL_CURVES
100
AcDbLine
 62
4
  6
CONTINUOUS
 10
30.3582710363
 20
200.7451261612
 30
0.0
 11
42.8241852672
 21
216.1282657104
 31
0.0
  0
LINE
  5
24B
100
AcDbEntity
  8
03___PRT_ALL_CURVES
100
AcDbLine
 62
4
  6
CONTINUOUS
 10
52.2680596844
 20
227.7821593083
 30
0.0
 11
64.7339739153
 21
243.1652988574
 31
0.0
  0
LINE
  5
24C
100
AcDbEntity
  8
03___PRT_ALL_CURVES
100
AcDbLine
 62
4
  6
CONTINUOUS
 10
50.0926662128
 20
229.5450158662
 30
0.0
 11
52.2680596844
 21
227.7821593083
 31
0.0
  0
LINE
  5
24D
100
AcDbEntity
  8
03___PRT_ALL_CURVES
100
AcDbLine
 62
4
  6
CONTINUOUS
 10
212.7903934536
 20
192.205974369
 30
0.0
 11
7.8998368546
 21
192.2208655528
 31
0.0
  0
LINE
  5
24E
100
AcDbEntity
  8
03___PRT_ALL_CURVES
100
AcDbLine
 62
4
  6
CONTINUOUS
 10
64.7339739153
 20
243.1652988574
 30
0.0
 11
62.5585804437
 21
244.9281554153
 31
0.0
  0
LINE
  5
24F
100
AcDbEntity
  8
03___PRT_ALL_CURVES
100
AcDbLine
 62
4
  6
CONTINUOUS
 10
53.867528929
 20
248.9457401862
 30
0.0
 11
259.5961454374
 21
281.4139854204
 31
0.0
  0
LINE
  5
250
100
AcDbEntity
  8
03___PRT_ALL_CURVES
100
AcDbLine
 62
4
  6
CONTINUOUS
 10
213.8587874095
 20
211.3136987528
 30
0.0
 11
216.0341808811
 21
209.5508421949
 31
0.0
  0
LINE
  5
251
100
AcDbEntity
  8
03___PRT_ALL_CURVES
100
AcDbLine
 62
4
  6
CONTINUOUS
 10
228.5000951119
 20
224.9339817441
 30
0.0
 11
226.3247016403
 21
226.696838302
 31
0.0
  0
LINE
  5
252
100
AcDbEntity
  8
03___PRT_ALL_CURVES
100
AcDbLine
 62
4
  6
CONTINUOUS
 10
226.3247016403
 20
226.696838302
 30
0.0
 11
213.8587874095
 21
211.3136987528
 31
0.0
  0
LINE
  5
253
100
AcDbEntity
  8
03___PRT_ALL_CURVES
100
AcDbLine
 62
4
  6
CONTINUOUS
 10
243.500959915
 20
247.8926184975
 30
0.0
 11
255.9668741458
 21
263.2757580466
 31
0.0
  0
LINE
  5
254
100
AcDbEntity
  8
03___PRT_ALL_CURVES
100
AcDbLine
 62
4
  6
CONTINUOUS
 10
258.1422676174
 20
261.5129014887
 30
0.0
 11
245.6763533866
 21
246.1297619396
 31
0.0
  0
LINE
  5
255
100
AcDbEntity
  8
03___PRT_ALL_CURVES
100
AcDbLine
 62
4
  6
CONTINUOUS
 10
216.0341808811
 20
209.5508421949
 30
0.0
 11
228.5000951119
 21
224.9339817441
 31
0.0
  0
LINE
  5
256
100
AcDbEntity
  8
03___PRT_ALL_CURVES
100
AcDbLine
 62
4
  6
CONTINUOUS
 10
245.6763533866
 20
246.1297619396
 30
0.0
 11
243.500959915
 21
247.8926184975
 31
0.0
  0
LINE
  5
257
100
AcDbEntity
  8
03___PRT_ALL_CURVES
100
AcDbLine
 62
4
  6
CONTINUOUS
 10
274.9792849866
 20
268.9480711896
 30
0.0
 11
212.7903934536
 21
192.205974369
 31
0.0
  0
LINE
  5
258
100
AcDbEntity
  8
03___PRT_ALL_CURVES
100
AcDbLine
 62
4
  6
CONTINUOUS
 10
255.9668741458
 20
263.2757580466
 30
0.0
 11
258.1422676174
 21
261.5129014887
 31
0.0
  0
LINE
  5
259
100
AcDbEntity
  8
03___PRT_ALL_CURVES
100
AcDbLine
 62
4
  6
CONTINUOUS
 10
259.5961454374
 20
281.4139854204
 30
0.0
 11
274.9792849866
 21
268.9480711896
 31
0.0
  0
LINE
  5
25A
100
AcDbEntity
  8
03___PRT_ALL_CURVES
100
AcDbLine
 62
4
  6
CONTINUOUS
 10
428.8058364845
 20
41.5519239335
 30
0.0
 11
348.8058364845
 21
41.5519239335
 31
0.0
  0
LINE
  5
25B
100
AcDbEntity
  8
03___PRT_ALL_CURVES
100
AcDbLine
 62
4
  6
CONTINUOUS
 10
408.7058364845
 20
53.5519239335
 30
0.0
 11
368.9058364845
 21
53.5519239335
 31
0.0
  0
LINE
  5
25C
100
AcDbEntity
  8
03___PRT_ALL_CURVES
100
AcDbLine
 62
4
  6
CONTINUOUS
 10
368.9058364845
 20
59.3519239335
 30
0.0
 11
408.7058364845
 21
59.3519239335
 31
0.0
  0
LINE
  5
25D
100
AcDbEntity
  8
03___PRT_ALL_CURVES
100
AcDbLine
 62
4
  6
CONTINUOUS
 10
348.8058364845
 20
41.5519239335
 30
0.0
 11
348.8058364845
 21
121.5519239335
 31
0.0
  0
LINE
  5
25E
100
AcDbEntity
  8
03___PRT_ALL_CURVES
100
AcDbLine
 62
4
  6
CONTINUOUS
 10
348.8058364845
 20
121.5519239335
 30
0.0
 11
428.8058364845
 21
186.3712650288
 31
0.0
  0
LINE
  5
25F
100
AcDbEntity
  8
03___PRT_ALL_CURVES
100
AcDbLine
 62
4
  6
CONTINUOUS
 10
420.2058364845
 20
87.928947545
 30
0.0
 11
417.4058364845
 21
87.928947545
 31
0.0
  0
LINE
  5
260
100
AcDbEntity
  8
03___PRT_ALL_CURVES
100
AcDbLine
 62
4
  6
CONTINUOUS
 10
368.9058364845
 20
53.5519239335
 30
0.0
 11
368.9058364845
 21
59.3519239335
 31
0.0
  0
LINE
  5
261
100
AcDbEntity
  8
03___PRT_ALL_CURVES
100
AcDbLine
 62
4
  6
CONTINUOUS
 10
417.4058364845
 20
107.728947545
 30
0.0
 11
420.2058364845
 21
107.728947545
 31
0.0
  0
LINE
  5
262
100
AcDbEntity
  8
03___PRT_ALL_CURVES
100
AcDbLine
 62
4
  6
CONTINUOUS
 10
408.7058364845
 20
59.3519239335
 30
0.0
 11
408.7058364845
 21
53.5519239335
 31
0.0
  0
LINE
  5
263
100
AcDbEntity
  8
03___PRT_ALL_CURVES
100
AcDbLine
 62
4
  6
CONTINUOUS
 10
417.4058364845
 20
135.0105337601
 30
0.0
 11
420.2058364845
 21
135.0105337601
 31
0.0
  0
LINE
  5
264
100
AcDbEntity
  8
03___PRT_ALL_CURVES
100
AcDbLine
 62
4
  6
CONTINUOUS
 10
417.4058364845
 20
154.8105337601
 30
0.0
 11
417.4058364845
 21
135.0105337601
 31
0.0
  0
LINE
  5
265
100
AcDbEntity
  8
03___PRT_ALL_CURVES
100
AcDbLine
 62
4
  6
CONTINUOUS
 10
417.4058364845
 20
87.928947545
 30
0.0
 11
417.4058364845
 21
107.728947545
 31
0.0
  0
LINE
  5
266
100
AcDbEntity
  8
03___PRT_ALL_CURVES
100
AcDbLine
 62
4
  6
CONTINUOUS
 10
420.2058364845
 20
107.728947545
 30
0.0
 11
420.2058364845
 21
87.928947545
 31
0.0
  0
LINE
  5
267
100
AcDbEntity
  8
03___PRT_ALL_CURVES
100
AcDbLine
 62
4
  6
CONTINUOUS
 10
420.2058364845
 20
135.0105337601
 30
0.0
 11
420.2058364845
 21
154.8105337601
 31
0.0
  0
LINE
  5
268
100
AcDbEntity
  8
03___PRT_ALL_CURVES
100
AcDbLine
 62
4
  6
CONTINUOUS
 10
428.8058364845
 20
186.3712650288
 30
0.0
 11
428.8058364845
 21
41.5519239335
 31
0.0
  0
LINE
  5
269
100
AcDbEntity
  8
03___PRT_ALL_CURVES
100
AcDbLine
 62
4
  6
CONTINUOUS
 10
420.2058364845
 20
154.8105337601
 30
0.0
 11
417.4058364845
 21
154.8105337601
 31
0.0
  0
LINE
  5
26A
100
AcDbEntity
  8
03___PRT_ALL_CURVES
100
AcDbLine
 62
4
  6
CONTINUOUS
 10
347.4275778379
 20
126.8333450614
 30
0.0
 11
347.4275778379
 21
271.6526861566
 31
0.0
  0
LINE
  5
26B
100
AcDbEntity
  8
03___PRT_ALL_CURVES
100
AcDbLine
 62
4
  6
CONTINUOUS
 10
356.0275778379
 20
158.39407633
 30
0.0
 11
358.8275778379
 21
158.39407633
 31
0.0
  0
LINE
  5
26C
100
AcDbEntity
  8
03___PRT_ALL_CURVES
100
AcDbLine
 62
4
  6
CONTINUOUS
 10
356.0275778379
 20
178.19407633
 30
0.0
 11
356.0275778379
 21
158.39407633
 31
0.0
  0
LINE
  5
26D
100
AcDbEntity
  8
03___PRT_ALL_CURVES
100
AcDbLine
 62
4
  6
CONTINUOUS
 10
356.0275778379
 20
205.4756625451
 30
0.0
 11
356.0275778379
 21
225.2756625451
 31
0.0
  0
LINE
  5
26E
100
AcDbEntity
  8
03___PRT_ALL_CURVES
100
AcDbLine
 62
4
  6
CONTINUOUS
 10
358.8275778379
 20
225.2756625451
 30
0.0
 11
358.8275778379
 21
205.4756625451
 31
0.0
  0
LINE
  5
26F
100
AcDbEntity
  8
03___PRT_ALL_CURVES
100
AcDbLine
 62
4
  6
CONTINUOUS
 10
358.8275778379
 20
158.39407633
 30
0.0
 11
358.8275778379
 21
178.19407633
 31
0.0
  0
LINE
  5
270
100
AcDbEntity
  8
03___PRT_ALL_CURVES
100
AcDbLine
 62
4
  6
CONTINUOUS
 10
367.5275778379
 20
253.8526861566
 30
0.0
 11
367.5275778379
 21
259.6526861566
 31
0.0
  0
LINE
  5
271
100
AcDbEntity
  8
03___PRT_ALL_CURVES
100
AcDbLine
 62
4
  6
CONTINUOUS
 10
358.8275778379
 20
178.19407633
 30
0.0
 11
356.0275778379
 21
178.19407633
 31
0.0
  0
LINE
  5
272
100
AcDbEntity
  8
03___PRT_ALL_CURVES
100
AcDbLine
 62
4
  6
CONTINUOUS
 10
358.8275778379
 20
205.4756625451
 30
0.0
 11
356.0275778379
 21
205.4756625451
 31
0.0
  0
LINE
  5
273
100
AcDbEntity
  8
03___PRT_ALL_CURVES
100
AcDbLine
 62
4
  6
CONTINUOUS
 10
407.3275778379
 20
259.6526861566
 30
0.0
 11
407.3275778379
 21
253.8526861566
 31
0.0
  0
LINE
  5
274
100
AcDbEntity
  8
03___PRT_ALL_CURVES
100
AcDbLine
 62
4
  6
CONTINUOUS
 10
356.0275778379
 20
225.2756625451
 30
0.0
 11
358.8275778379
 21
225.2756625451
 31
0.0
  0
LINE
  5
275
100
AcDbEntity
  8
03___PRT_ALL_CURVES
100
AcDbLine
 62
4
  6
CONTINUOUS
 10
427.4275778379
 20
191.6526861566
 30
0.0
 11
347.4275778379
 21
126.8333450614
 31
0.0
  0
LINE
  5
276
100
AcDbEntity
  8
03___PRT_ALL_CURVES
100
AcDbLine
 62
4
  6
CONTINUOUS
 10
427.4275778379
 20
271.6526861566
 30
0.0
 11
427.4275778379
 21
191.6526861566
 31
0.0
  0
LINE
  5
277
100
AcDbEntity
  8
03___PRT_ALL_CURVES
100
AcDbLine
 62
4
  6
CONTINUOUS
 10
407.3275778379
 20
253.8526861566
 30
0.0
 11
367.5275778379
 21
253.8526861566
 31
0.0
  0
LINE
  5
278
100
AcDbEntity
  8
03___PRT_ALL_CURVES
100
AcDbLine
 62
4
  6
CONTINUOUS
 10
367.5275778379
 20
259.6526861566
 30
0.0
 11
407.3275778379
 21
259.6526861566
 31
0.0
  0
LINE
  5
279
100
AcDbEntity
  8
03___PRT_ALL_CURVES
100
AcDbLine
 62
4
  6
CONTINUOUS
 10
347.4275778379
 20
271.6526861566
 30
0.0
 11
427.4275778379
 21
271.6526861566
 31
0.0
  0
LINE
  5
27A
100
AcDbEntity
  8
03___PRT_ALL_CURVES
100
AcDbLine
 62
4
  6
CONTINUOUS
 10
341.988508289
 20
43.9546875752
 30
0.0
 11
321.988508289
 21
43.9546875752
 31
0.0
  0
LINE
  5
27B
100
AcDbEntity
  8
03___PRT_ALL_CURVES
100
AcDbLine
 62
4
  6
CONTINUOUS
 10
321.988508289
 20
46.9546875752
 30
0.0
 11
327.788508289
 21
46.9546875752
 31
0.0
  0
LINE
  5
27C
100
AcDbEntity
  8
03___PRT_ALL_CURVES
100
AcDbLine
 62
4
  6
CONTINUOUS
 10
327.788508289
 20
49.7546875752
 30
0.0
 11
321.988508289
 21
49.7546875752
 31
0.0
  0
LINE
  5
27D
100
AcDbEntity
  8
03___PRT_ALL_CURVES
100
AcDbLine
 62
4
  6
CONTINUOUS
 10
344.988508289
 20
55.7546875752
 30
0.0
 11
341.988508289
 21
55.7546875752
 31
0.0
  0
LINE
  5
27E
100
AcDbEntity
  8
03___PRT_ALL_CURVES
100
AcDbLine
 62
4
  6
CONTINUOUS
 10
318.988508289
 20
55.7546875752
 30
0.0
 11
321.988508289
 21
55.7546875752
 31
0.0
  0
LINE
  5
27F
100
AcDbEntity
  8
03___PRT_ALL_CURVES
100
AcDbLine
 62
4
  6
CONTINUOUS
 10
318.988508289
 20
106.5270203345
 30
0.0
 11
318.988508289
 21
55.7546875752
 31
0.0
  0
LINE
  5
280
100
AcDbEntity
  8
03___PRT_ALL_CURVES
100
AcDbLine
 62
4
  6
CONTINUOUS
 10
321.988508289
 20
118.3270203345
 30
0.0
 11
321.988508289
 21
115.3270203345
 31
0.0
  0
LINE
  5
281
100
AcDbEntity
  8
03___PRT_ALL_CURVES
100
AcDbLine
 62
4
  6
CONTINUOUS
 10
321.988508289
 20
43.9546875752
 30
0.0
 11
321.988508289
 21
46.9546875752
 31
0.0
  0
LINE
  5
282
100
AcDbEntity
  8
03___PRT_ALL_CURVES
100
AcDbLine
 62
4
  6
CONTINUOUS
 10
321.988508289
 20
49.7546875752
 30
0.0
 11
321.988508289
 21
55.7546875752
 31
0.0
  0
LINE
  5
283
100
AcDbEntity
  8
03___PRT_ALL_CURVES
100
AcDbLine
 62
4
  6
CONTINUOUS
 10
321.988508289
 20
106.5270203345
 30
0.0
 11
321.988508289
 21
112.5270203345
 31
0.0
  0
LINE
  5
284
100
AcDbEntity
  8
03___PRT_ALL_CURVES
100
AcDbLine
 62
4
  6
CONTINUOUS
 10
327.788508289
 20
49.7546875752
 30
0.0
 11
327.788508289
 21
46.9546875752
 31
0.0
  0
LINE
  5
285
100
AcDbEntity
  8
03___PRT_ALL_CURVES
100
AcDbLine
 62
4
  6
CONTINUOUS
 10
327.788508289
 20
112.5270203345
 30
0.0
 11
327.788508289
 21
115.3270203345
 31
0.0
  0
LINE
  5
286
100
AcDbEntity
  8
03___PRT_ALL_CURVES
100
AcDbLine
 62
4
  6
CONTINUOUS
 10
341.988508289
 20
43.9546875752
 30
0.0
 11
341.988508289
 21
55.7546875752
 31
0.0
  0
LINE
  5
287
100
AcDbEntity
  8
03___PRT_ALL_CURVES
100
AcDbLine
 62
4
  6
CONTINUOUS
 10
341.988508289
 20
106.5270203345
 30
0.0
 11
341.988508289
 21
118.3270203345
 31
0.0
  0
LINE
  5
288
100
AcDbEntity
  8
03___PRT_ALL_CURVES
100
AcDbLine
 62
4
  6
CONTINUOUS
 10
344.988508289
 20
106.5270203345
 30
0.0
 11
344.988508289
 21
55.7546875752
 31
0.0
  0
LINE
  5
289
100
AcDbEntity
  8
03___PRT_ALL_CURVES
100
AcDbLine
 62
4
  6
CONTINUOUS
 10
321.988508289
 20
106.5270203345
 30
0.0
 11
318.988508289
 21
106.5270203345
 31
0.0
  0
LINE
  5
28A
100
AcDbEntity
  8
03___PRT_ALL_CURVES
100
AcDbLine
 62
4
  6
CONTINUOUS
 10
341.988508289
 20
106.5270203345
 30
0.0
 11
344.988508289
 21
106.5270203345
 31
0.0
  0
LINE
  5
28B
100
AcDbEntity
  8
03___PRT_ALL_CURVES
100
AcDbLine
 62
4
  6
CONTINUOUS
 10
321.988508289
 20
112.5270203345
 30
0.0
 11
327.788508289
 21
112.5270203345
 31
0.0
  0
LINE
  5
28C
100
AcDbEntity
  8
03___PRT_ALL_CURVES
100
AcDbLine
 62
4
  6
CONTINUOUS
 10
321.988508289
 20
115.3270203345
 30
0.0
 11
327.788508289
 21
115.3270203345
 31
0.0
  0
LINE
  5
28D
100
AcDbEntity
  8
03___PRT_ALL_CURVES
100
AcDbLine
 62
4
  6
CONTINUOUS
 10
341.988508289
 20
118.3270203345
 30
0.0
 11
321.988508289
 21
118.3270203345
 31
0.0
  0
LINE
  5
28E
100
AcDbEntity
  8
03___PRT_ALL_CURVES
100
AcDbLine
 62
4
  6
CONTINUOUS
 10
293.7781605447
 20
43.9788793045
 30
0.0
 11
313.7781605447
 21
43.9788793045
 31
0.0
  0
LINE
  5
28F
100
AcDbEntity
  8
03___PRT_ALL_CURVES
100
AcDbLine
 62
4
  6
CONTINUOUS
 10
313.7781605447
 20
46.9788793045
 30
0.0
 11
307.9781605447
 21
46.9788793045
 31
0.0
  0
LINE
  5
290
100
AcDbEntity
  8
03___PRT_ALL_CURVES
100
AcDbLine
 62
4
  6
CONTINUOUS
 10
313.7781605447
 20
49.7788793045
 30
0.0
 11
307.9781605447
 21
49.7788793045
 31
0.0
  0
LINE
  5
291
100
AcDbEntity
  8
03___PRT_ALL_CURVES
100
AcDbLine
 62
4
  6
CONTINUOUS
 10
293.7781605447
 20
55.7788793045
 30
0.0
 11
290.7781605447
 21
55.7788793045
 31
0.0
  0
LINE
  5
292
100
AcDbEntity
  8
03___PRT_ALL_CURVES
100
AcDbLine
 62
4
  6
CONTINUOUS
 10
313.7781605447
 20
55.7788793045
 30
0.0
 11
316.7781605447
 21
55.7788793045
 31
0.0
  0
LINE
  5
293
100
AcDbEntity
  8
03___PRT_ALL_CURVES
100
AcDbLine
 62
4
  6
CONTINUOUS
 10
290.7781605447
 20
55.7788793045
 30
0.0
 11
290.7781605447
 21
106.5512120639
 31
0.0
  0
LINE
  5
294
100
AcDbEntity
  8
03___PRT_ALL_CURVES
100
AcDbLine
 62
4
  6
CONTINUOUS
 10
293.7781605447
 20
43.9788793045
 30
0.0
 11
293.7781605447
 21
55.7788793045
 31
0.0
  0
LINE
  5
295
100
AcDbEntity
  8
03___PRT_ALL_CURVES
100
AcDbLine
 62
4
  6
CONTINUOUS
 10
293.7781605447
 20
106.5512120639
 30
0.0
 11
293.7781605447
 21
118.3512120639
 31
0.0
  0
LINE
  5
296
100
AcDbEntity
  8
03___PRT_ALL_CURVES
100
AcDbLine
 62
4
  6
CONTINUOUS
 10
307.9781605447
 20
49.7788793045
 30
0.0
 11
307.9781605447
 21
46.9788793045
 31
0.0
  0
LINE
  5
297
100
AcDbEntity
  8
03___PRT_ALL_CURVES
100
AcDbLine
 62
4
  6
CONTINUOUS
 10
307.9781605447
 20
112.5512120639
 30
0.0
 11
307.9781605447
 21
115.3512120639
 31
0.0
  0
LINE
  5
298
100
AcDbEntity
  8
03___PRT_ALL_CURVES
100
AcDbLine
 62
4
  6
CONTINUOUS
 10
313.7781605447
 20
118.3512120639
 30
0.0
 11
313.7781605447
 21
115.3512120639
 31
0.0
  0
LINE
  5
299
100
AcDbEntity
  8
03___PRT_ALL_CURVES
100
AcDbLine
 62
4
  6
CONTINUOUS
 10
313.7781605447
 20
112.5512120639
 30
0.0
 11
313.7781605447
 21
106.5512120639
 31
0.0
  0
LINE
  5
29A
100
AcDbEntity
  8
03___PRT_ALL_CURVES
100
AcDbLine
 62
4
  6
CONTINUOUS
 10
313.7781605447
 20
55.7788793045
 30
0.0
 11
313.7781605447
 21
49.7788793045
 31
0.0
  0
LINE
  5
29B
100
AcDbEntity
  8
03___PRT_ALL_CURVES
100
AcDbLine
 62
4
  6
CONTINUOUS
 10
313.7781605447
 20
43.9788793045
 30
0.0
 11
313.7781605447
 21
46.9788793045
 31
0.0
  0
LINE
  5
29C
100
AcDbEntity
  8
03___PRT_ALL_CURVES
100
AcDbLine
 62
4
  6
CONTINUOUS
 10
316.7781605447
 20
55.7788793045
 30
0.0
 11
316.7781605447
 21
106.5512120639
 31
0.0
  0
LINE
  5
29D
100
AcDbEntity
  8
03___PRT_ALL_CURVES
100
AcDbLine
 62
4
  6
CONTINUOUS
 10
316.7781605447
 20
106.5512120639
 30
0.0
 11
313.7781605447
 21
106.5512120639
 31
0.0
  0
LINE
  5
29E
100
AcDbEntity
  8
03___PRT_ALL_CURVES
100
AcDbLine
 62
4
  6
CONTINUOUS
 10
290.7781605447
 20
106.5512120639
 30
0.0
 11
293.7781605447
 21
106.5512120639
 31
0.0
  0
LINE
  5
29F
100
AcDbEntity
  8
03___PRT_ALL_CURVES
100
AcDbLine
 62
4
  6
CONTINUOUS
 10
307.9781605447
 20
112.5512120639
 30
0.0
 11
313.7781605447
 21
112.5512120639
 31
0.0
  0
LINE
  5
2A0
100
AcDbEntity
  8
03___PRT_ALL_CURVES
100
AcDbLine
 62
4
  6
CONTINUOUS
 10
313.7781605447
 20
115.3512120639
 30
0.0
 11
307.9781605447
 21
115.3512120639
 31
0.0
  0
LINE
  5
2A1
100
AcDbEntity
  8
03___PRT_ALL_CURVES
100
AcDbLine
 62
4
  6
CONTINUOUS
 10
293.7781605447
 20
118.3512120639
 30
0.0
 11
313.7781605447
 21
118.3512120639
 31
0.0
  0
LINE
  5
2A2
100
AcDbEntity
  8
03___PRT_ALL_CURVES
100
AcDbLine
 62
4
  6
CONTINUOUS
 10
270.734362586
 20
18.7769253834
 30
0.0
 11
270.734362586
 21
38.7769253834
 31
0.0
  0
LINE
  5
2A3
100
AcDbEntity
  8
03___PRT_ALL_CURVES
100
AcDbLine
 62
4
  6
CONTINUOUS
 10
273.734362586
 20
38.7769253834
 30
0.0
 11
273.734362586
 21
32.9769253834
 31
0.0
  0
LINE
  5
2A4
100
AcDbEntity
  8
03___PRT_ALL_CURVES
100
AcDbLine
 62
4
  6
CONTINUOUS
 10
276.534362586
 20
32.9769253834
 30
0.0
 11
276.534362586
 21
38.7769253834
 31
0.0
  0
LINE
  5
2A5
100
AcDbEntity
  8
03___PRT_ALL_CURVES
100
AcDbLine
 62
4
  6
CONTINUOUS
 10
282.534362586
 20
41.7769253834
 30
0.0
 11
282.534362586
 21
38.7769253834
 31
0.0
  0
LINE
  5
2A6
100
AcDbEntity
  8
03___PRT_ALL_CURVES
100
AcDbLine
 62
4
  6
CONTINUOUS
 10
282.534362586
 20
15.7769253834
 30
0.0
 11
282.534362586
 21
18.7769253834
 31
0.0
  0
LINE
  5
2A7
100
AcDbEntity
  8
03___PRT_ALL_CURVES
100
AcDbLine
 62
4
  6
CONTINUOUS
 10
333.3066953454
 20
15.7769253834
 30
0.0
 11
282.534362586
 21
15.7769253834
 31
0.0
  0
LINE
  5
2A8
100
AcDbEntity
  8
03___PRT_ALL_CURVES
100
AcDbLine
 62
4
  6
CONTINUOUS
 10
270.734362586
 20
18.7769253834
 30
0.0
 11
282.534362586
 21
18.7769253834
 31
0.0
  0
LINE
  5
2A9
100
AcDbEntity
  8
03___PRT_ALL_CURVES
100
AcDbLine
 62
4
  6
CONTINUOUS
 10
333.3066953454
 20
18.7769253834
 30
0.0
 11
345.1066953454
 21
18.7769253834
 31
0.0
  0
LINE
  5
2AA
100
AcDbEntity
  8
03___PRT_ALL_CURVES
100
AcDbLine
 62
4
  6
CONTINUOUS
 10
276.534362586
 20
32.9769253834
 30
0.0
 11
273.734362586
 21
32.9769253834
 31
0.0
  0
LINE
  5
2AB
100
AcDbEntity
  8
03___PRT_ALL_CURVES
100
AcDbLine
 62
4
  6
CONTINUOUS
 10
339.3066953454
 20
32.9769253834
 30
0.0
 11
342.1066953454
 21
32.9769253834
 31
0.0
  0
LINE
  5
2AC
100
AcDbEntity
  8
03___PRT_ALL_CURVES
100
AcDbLine
 62
4
  6
CONTINUOUS
 10
345.1066953454
 20
38.7769253834
 30
0.0
 11
342.1066953454
 21
38.7769253834
 31
0.0
  0
LINE
  5
2AD
100
AcDbEntity
  8
03___PRT_ALL_CURVES
100
AcDbLine
 62
4
  6
CONTINUOUS
 10
270.734362586
 20
38.7769253834
 30
0.0
 11
273.734362586
 21
38.7769253834
 31
0.0
  0
LINE
  5
2AE
100
AcDbEntity
  8
03___PRT_ALL_CURVES
100
AcDbLine
 62
4
  6
CONTINUOUS
 10
276.534362586
 20
38.7769253834
 30
0.0
 11
282.534362586
 21
38.7769253834
 31
0.0
  0
LINE
  5
2AF
100
AcDbEntity
  8
03___PRT_ALL_CURVES
100
AcDbLine
 62
4
  6
CONTINUOUS
 10
333.3066953454
 20
38.7769253834
 30
0.0
 11
339.3066953454
 21
38.7769253834
 31
0.0
  0
LINE
  5
2B0
100
AcDbEntity
  8
03___PRT_ALL_CURVES
100
AcDbLine
 62
4
  6
CONTINUOUS
 10
333.3066953454
 20
41.7769253834
 30
0.0
 11
282.534362586
 21
41.7769253834
 31
0.0
  0
LINE
  5
2B1
100
AcDbEntity
  8
03___PRT_ALL_CURVES
100
AcDbLine
 62
4
  6
CONTINUOUS
 10
333.3066953454
 20
18.7769253834
 30
0.0
 11
333.3066953454
 21
15.7769253834
 31
0.0
  0
LINE
  5
2B2
100
AcDbEntity
  8
03___PRT_ALL_CURVES
100
AcDbLine
 62
4
  6
CONTINUOUS
 10
333.3066953454
 20
38.7769253834
 30
0.0
 11
333.3066953454
 21
41.7769253834
 31
0.0
  0
LINE
  5
2B3
100
AcDbEntity
  8
03___PRT_ALL_CURVES
100
AcDbLine
 62
4
  6
CONTINUOUS
 10
339.3066953454
 20
38.7769253834
 30
0.0
 11
339.3066953454
 21
32.9769253834
 31
0.0
  0
LINE
  5
2B4
100
AcDbEntity
  8
03___PRT_ALL_CURVES
100
AcDbLine
 62
4
  6
CONTINUOUS
 10
342.1066953454
 20
38.7769253834
 30
0.0
 11
342.1066953454
 21
32.9769253834
 31
0.0
  0
LINE
  5
2B5
100
AcDbEntity
  8
03___PRT_ALL_CURVES
100
AcDbLine
 62
4
  6
CONTINUOUS
 10
345.1066953454
 20
18.7769253834
 30
0.0
 11
345.1066953454
 21
38.7769253834
 31
0.0
  0
LINE
  5
2B6
100
AcDbEntity
  8
03___PRT_ALL_CURVES
100
AcDbLine
 62
4
  6
CONTINUOUS
 10
347.5314725484
 20
16.533840327
 30
0.0
 11
347.5314725484
 21
36.533840327
 31
0.0
  0
LINE
  5
2B7
100
AcDbEntity
  8
03___PRT_ALL_CURVES
100
AcDbLine
 62
4
  6
CONTINUOUS
 10
350.5314725484
 20
36.533840327
 30
0.0
 11
350.5314725484
 21
30.733840327
 31
0.0
  0
LINE
  5
2B8
100
AcDbEntity
  8
03___PRT_ALL_CURVES
100
AcDbLine
 62
4
  6
CONTINUOUS
 10
353.3314725484
 20
30.733840327
 30
0.0
 11
353.3314725484
 21
36.533840327
 31
0.0
  0
LINE
  5
2B9
100
AcDbEntity
  8
03___PRT_ALL_CURVES
100
AcDbLine
 62
4
  6
CONTINUOUS
 10
359.3314725484
 20
39.533840327
 30
0.0
 11
359.3314725484
 21
36.533840327
 31
0.0
  0
LINE
  5
2BA
100
AcDbEntity
  8
03___PRT_ALL_CURVES
100
AcDbLine
 62
4
  6
CONTINUOUS
 10
359.3314725484
 20
13.533840327
 30
0.0
 11
359.3314725484
 21
16.533840327
 31
0.0
  0
LINE
  5
2BB
100
AcDbEntity
  8
03___PRT_ALL_CURVES
100
AcDbLine
 62
4
  6
CONTINUOUS
 10
410.1038053078
 20
13.533840327
 30
0.0
 11
359.3314725484
 21
13.533840327
 31
0.0
  0
LINE
  5
2BC
100
AcDbEntity
  8
03___PRT_ALL_CURVES
100
AcDbLine
 62
4
  6
CONTINUOUS
 10
347.5314725484
 20
16.533840327
 30
0.0
 11
359.3314725484
 21
16.533840327
 31
0.0
  0
LINE
  5
2BD
100
AcDbEntity
  8
03___PRT_ALL_CURVES
100
AcDbLine
 62
4
  6
CONTINUOUS
 10
410.1038053078
 20
16.533840327
 30
0.0
 11
421.9038053078
 21
16.533840327
 31
0.0
  0
LINE
  5
2BE
100
AcDbEntity
  8
03___PRT_ALL_CURVES
100
AcDbLine
 62
4
  6
CONTINUOUS
 10
353.3314725484
 20
30.733840327
 30
0.0
 11
350.5314725484
 21
30.733840327
 31
0.0
  0
LINE
  5
2BF
100
AcDbEntity
  8
03___PRT_ALL_CURVES
100
AcDbLine
 62
4
  6
CONTINUOUS
 10
416.1038053078
 20
30.733840327
 30
0.0
 11
418.9038053078
 21
30.733840327
 31
0.0
  0
LINE
  5
2C0
100
AcDbEntity
  8
03___PRT_ALL_CURVES
100
AcDbLine
 62
4
  6
CONTINUOUS
 10
421.9038053078
 20
36.533840327
 30
0.0
 11
418.9038053078
 21
36.533840327
 31
0.0
  0
LINE
  5
2C1
100
AcDbEntity
  8
03___PRT_ALL_CURVES
100
AcDbLine
 62
4
  6
CONTINUOUS
 10
347.5314725484
 20
36.533840327
 30
0.0
 11
350.5314725484
 21
36.533840327
 31
0.0
  0
LINE
  5
2C2
100
AcDbEntity
  8
03___PRT_ALL_CURVES
100
AcDbLine
 62
4
  6
CONTINUOUS
 10
353.3314725484
 20
36.533840327
 30
0.0
 11
359.3314725484
 21
36.533840327
 31
0.0
  0
LINE
  5
2C3
100
AcDbEntity
  8
03___PRT_ALL_CURVES
100
AcDbLine
 62
4
  6
CONTINUOUS
 10
410.1038053078
 20
36.533840327
 30
0.0
 11
416.1038053078
 21
36.533840327
 31
0.0
  0
LINE
  5
2C4
100
AcDbEntity
  8
03___PRT_ALL_CURVES
100
AcDbLine
 62
4
  6
CONTINUOUS
 10
410.1038053078
 20
39.533840327
 30
0.0
 11
359.3314725484
 21
39.533840327
 31
0.0
  0
LINE
  5
2C5
100
AcDbEntity
  8
03___PRT_ALL_CURVES
100
AcDbLine
 62
4
  6
CONTINUOUS
 10
410.1038053078
 20
16.533840327
 30
0.0
 11
410.1038053078
 21
13.533840327
 31
0.0
  0
LINE
  5
2C6
100
AcDbEntity
  8
03___PRT_ALL_CURVES
100
AcDbLine
 62
4
  6
CONTINUOUS
 10
410.1038053078
 20
36.533840327
 30
0.0
 11
410.1038053078
 21
39.533840327
 31
0.0
  0
LINE
  5
2C7
100
AcDbEntity
  8
03___PRT_ALL_CURVES
100
AcDbLine
 62
4
  6
CONTINUOUS
 10
416.1038053078
 20
36.533840327
 30
0.0
 11
416.1038053078
 21
30.733840327
 31
0.0
  0
LINE
  5
2C8
100
AcDbEntity
  8
03___PRT_ALL_CURVES
100
AcDbLine
 62
4
  6
CONTINUOUS
 10
418.9038053078
 20
36.533840327
 30
0.0
 11
418.9038053078
 21
30.733840327
 31
0.0
  0
LINE
  5
2C9
100
AcDbEntity
  8
03___PRT_ALL_CURVES
100
AcDbLine
 62
4
  6
CONTINUOUS
 10
421.9038053078
 20
16.533840327
 30
0.0
 11
421.9038053078
 21
36.533840327
 31
0.0
  0
LINE
  5
2CA
100
AcDbEntity
  8
0
100
AcDbLine
 62
7
  6
CONTINUOUS
 10
265.152902086
 20
249.7757576203
 30
0.0
 11
265.152902086
 21
199.7757576203
 31
0.0
  0
LINE
  5
2CB
100
AcDbEntity
  8
0
100
AcDbLine
 62
7
  6
CONTINUOUS
 10
285.152902086
 20
190.7757576203
 30
0.0
 11
325.152902086
 21
190.7757576203
 31
0.0
  0
LINE
  5
2CC
100
AcDbEntity
  8
0
100
AcDbLine
 62
7
  6
CONTINUOUS
 10
319.952902086
 20
193.9757576203
 30
0.0
 11
317.152902086
 21
193.9757576203
 31
0.0
  0
LINE
  5
2CD
100
AcDbEntity
  8
0
100
AcDbLine
 62
7
  6
CONTINUOUS
 10
313.952902086
 20
193.9757576203
 30
0.0
 11
311.152902086
 21
193.9757576203
 31
0.0
  0
LINE
  5
2CE
100
AcDbEntity
  8
0
100
AcDbLine
 62
7
  6
CONTINUOUS
 10
299.152902086
 20
193.9757576203
 30
0.0
 11
296.352902086
 21
193.9757576203
 31
0.0
  0
LINE
  5
2CF
100
AcDbEntity
  8
0
100
AcDbLine
 62
7
  6
CONTINUOUS
 10
293.152902086
 20
193.9757576203
 30
0.0
 11
290.352902086
 21
193.9757576203
 31
0.0
  0
LINE
  5
2D0
100
AcDbEntity
  8
0
100
AcDbLine
 62
7
  6
CONTINUOUS
 10
290.352902086
 20
196.8757576203
 30
0.0
 11
293.152902086
 21
196.8757576203
 31
0.0
  0
LINE
  5
2D1
100
AcDbEntity
  8
0
100
AcDbLine
 62
7
  6
CONTINUOUS
 10
296.352902086
 20
196.8757576203
 30
0.0
 11
299.152902086
 21
196.8757576203
 31
0.0
  0
LINE
  5
2D2
100
AcDbEntity
  8
0
100
AcDbLine
 62
7
  6
CONTINUOUS
 10
311.152902086
 20
196.8757576203
 30
0.0
 11
313.952902086
 21
196.8757576203
 31
0.0
  0
LINE
  5
2D3
100
AcDbEntity
  8
0
100
AcDbLine
 62
7
  6
CONTINUOUS
 10
317.152902086
 20
196.8757576203
 30
0.0
 11
319.952902086
 21
196.8757576203
 31
0.0
  0
LINE
  5
2D4
100
AcDbEntity
  8
0
100
AcDbLine
 62
7
  6
CONTINUOUS
 10
265.152902086
 20
199.7757576203
 30
0.0
 11
285.152902086
 21
199.7757576203
 31
0.0
  0
LINE
  5
2D5
100
AcDbEntity
  8
0
100
AcDbLine
 62
7
  6
CONTINUOUS
 10
325.152902086
 20
199.7757576203
 30
0.0
 11
345.152902086
 21
199.7757576203
 31
0.0
  0
LINE
  5
2D6
100
AcDbEntity
  8
0
100
AcDbLine
 62
7
  6
CONTINUOUS
 10
285.152902086
 20
258.7757576203
 30
0.0
 11
285.152902086
 21
249.7757576203
 31
0.0
  0
LINE
  5
2D7
100
AcDbEntity
  8
0
100
AcDbLine
 62
7
  6
CONTINUOUS
 10
285.152902086
 20
199.7757576203
 30
0.0
 11
285.152902086
 21
190.7757576203
 31
0.0
  0
LINE
  5
2D8
100
AcDbEntity
  8
0
100
AcDbLine
 62
7
  6
CONTINUOUS
 10
290.352902086
 20
193.9757576203
 30
0.0
 11
290.352902086
 21
196.8757576203
 31
0.0
  0
LINE
  5
2D9
100
AcDbEntity
  8
0
100
AcDbLine
 62
7
  6
CONTINUOUS
 10
290.352902086
 20
252.6757576203
 30
0.0
 11
290.352902086
 21
255.5757576203
 31
0.0
  0
LINE
  5
2DA
100
AcDbEntity
  8
0
100
AcDbLine
 62
7
  6
CONTINUOUS
 10
277.652902086
 20
209.2757576203
 30
0.0
 11
272.652902086
 21
209.2757576203
 31
0.0
  0
LINE
  5
2DB
100
AcDbEntity
  8
0
100
AcDbLine
 62
7
  6
CONTINUOUS
 10
293.152902086
 20
255.5757576203
 30
0.0
 11
293.152902086
 21
252.6757576203
 31
0.0
  0
LINE
  5
2DC
100
AcDbEntity
  8
0
100
AcDbLine
 62
7
  6
CONTINUOUS
 10
293.152902086
 20
196.8757576203
 30
0.0
 11
293.152902086
 21
193.9757576203
 31
0.0
  0
LINE
  5
2DD
100
AcDbEntity
  8
0
100
AcDbLine
 62
7
  6
CONTINUOUS
 10
296.352902086
 20
193.9757576203
 30
0.0
 11
296.352902086
 21
196.8757576203
 31
0.0
  0
LINE
  5
2DE
100
AcDbEntity
  8
0
100
AcDbLine
 62
7
  6
CONTINUOUS
 10
296.352902086
 20
252.6757576203
 30
0.0
 11
296.352902086
 21
255.5757576203
 31
0.0
  0
LINE
  5
2DF
100
AcDbEntity
  8
0
100
AcDbLine
 62
7
  6
CONTINUOUS
 10
272.652902086
 20
215.2757576203
 30
0.0
 11
277.652902086
 21
215.2757576203
 31
0.0
  0
LINE
  5
2E0
100
AcDbEntity
  8
0
100
AcDbLine
 62
7
  6
CONTINUOUS
 10
299.152902086
 20
255.5757576203
 30
0.0
 11
299.152902086
 21
252.6757576203
 31
0.0
  0
LINE
  5
2E1
100
AcDbEntity
  8
0
100
AcDbLine
 62
7
  6
CONTINUOUS
 10
299.152902086
 20
196.8757576203
 30
0.0
 11
299.152902086
 21
193.9757576203
 31
0.0
  0
LINE
  5
2E2
100
AcDbEntity
  8
0
100
AcDbLine
 62
7
  6
CONTINUOUS
 10
311.152902086
 20
193.9757576203
 30
0.0
 11
311.152902086
 21
196.8757576203
 31
0.0
  0
LINE
  5
2E3
100
AcDbEntity
  8
0
100
AcDbLine
 62
7
  6
CONTINUOUS
 10
311.152902086
 20
252.6757576203
 30
0.0
 11
311.152902086
 21
255.5757576203
 31
0.0
  0
LINE
  5
2E4
100
AcDbEntity
  8
0
100
AcDbLine
 62
7
  6
CONTINUOUS
 10
313.952902086
 20
255.5757576203
 30
0.0
 11
313.952902086
 21
252.6757576203
 31
0.0
  0
LINE
  5
2E5
100
AcDbEntity
  8
0
100
AcDbLine
 62
7
  6
CONTINUOUS
 10
313.952902086
 20
196.8757576203
 30
0.0
 11
313.952902086
 21
193.9757576203
 31
0.0
  0
LINE
  5
2E6
100
AcDbEntity
  8
0
100
AcDbLine
 62
7
  6
CONTINUOUS
 10
277.652902086
 20
234.2757576203
 30
0.0
 11
272.652902086
 21
234.2757576203
 31
0.0
  0
LINE
  5
2E7
100
AcDbEntity
  8
0
100
AcDbLine
 62
7
  6
CONTINUOUS
 10
317.152902086
 20
193.9757576203
 30
0.0
 11
317.152902086
 21
196.8757576203
 31
0.0
  0
LINE
  5
2E8
100
AcDbEntity
  8
0
100
AcDbLine
 62
7
  6
CONTINUOUS
 10
317.152902086
 20
252.6757576203
 30
0.0
 11
317.152902086
 21
255.5757576203
 31
0.0
  0
LINE
  5
2E9
100
AcDbEntity
  8
0
100
AcDbLine
 62
7
  6
CONTINUOUS
 10
319.952902086
 20
255.5757576203
 30
0.0
 11
319.952902086
 21
252.6757576203
 31
0.0
  0
LINE
  5
2EA
100
AcDbEntity
  8
0
100
AcDbLine
 62
7
  6
CONTINUOUS
 10
319.952902086
 20
196.8757576203
 30
0.0
 11
319.952902086
 21
193.9757576203
 31
0.0
  0
LINE
  5
2EB
100
AcDbEntity
  8
0
100
AcDbLine
 62
7
  6
CONTINUOUS
 10
272.652902086
 20
240.2757576203
 30
0.0
 11
277.652902086
 21
240.2757576203
 31
0.0
  0
LINE
  5
2EC
100
AcDbEntity
  8
0
100
AcDbLine
 62
7
  6
CONTINUOUS
 10
325.152902086
 20
190.7757576203
 30
0.0
 11
325.152902086
 21
199.7757576203
 31
0.0
  0
LINE
  5
2ED
100
AcDbEntity
  8
0
100
AcDbLine
 62
7
  6
CONTINUOUS
 10
325.152902086
 20
249.7757576203
 30
0.0
 11
325.152902086
 21
258.7757576203
 31
0.0
  0
LINE
  5
2EE
100
AcDbEntity
  8
0
100
AcDbLine
 62
7
  6
CONTINUOUS
 10
332.152902086
 20
209.7757576203
 30
0.0
 11
332.152902086
 21
214.7757576203
 31
0.0
  0
LINE
  5
2EF
100
AcDbEntity
  8
0
100
AcDbLine
 62
7
  6
CONTINUOUS
 10
332.152902086
 20
234.7757576203
 30
0.0
 11
332.152902086
 21
239.7757576203
 31
0.0
  0
LINE
  5
2F0
100
AcDbEntity
  8
0
100
AcDbLine
 62
7
  6
CONTINUOUS
 10
345.152902086
 20
249.7757576203
 30
0.0
 11
325.152902086
 21
249.7757576203
 31
0.0
  0
LINE
  5
2F1
100
AcDbEntity
  8
0
100
AcDbLine
 62
7
  6
CONTINUOUS
 10
285.152902086
 20
249.7757576203
 30
0.0
 11
265.152902086
 21
249.7757576203
 31
0.0
  0
LINE
  5
2F2
100
AcDbEntity
  8
0
100
AcDbLine
 62
7
  6
CONTINUOUS
 10
319.952902086
 20
252.6757576203
 30
0.0
 11
317.152902086
 21
252.6757576203
 31
0.0
  0
LINE
  5
2F3
100
AcDbEntity
  8
0
100
AcDbLine
 62
7
  6
CONTINUOUS
 10
313.952902086
 20
252.6757576203
 30
0.0
 11
311.152902086
 21
252.6757576203
 31
0.0
  0
LINE
  5
2F4
100
AcDbEntity
  8
0
100
AcDbLine
 62
7
  6
CONTINUOUS
 10
299.152902086
 20
252.6757576203
 30
0.0
 11
296.352902086
 21
252.6757576203
 31
0.0
  0
LINE
  5
2F5
100
AcDbEntity
  8
0
100
AcDbLine
 62
7
  6
CONTINUOUS
 10
293.152902086
 20
252.6757576203
 30
0.0
 11
290.352902086
 21
252.6757576203
 31
0.0
  0
LINE
  5
2F6
100
AcDbEntity
  8
0
100
AcDbLine
 62
7
  6
CONTINUOUS
 10
290.352902086
 20
255.5757576203
 30
0.0
 11
293.152902086
 21
255.5757576203
 31
0.0
  0
LINE
  5
2F7
100
AcDbEntity
  8
0
100
AcDbLine
 62
7
  6
CONTINUOUS
 10
296.352902086
 20
255.5757576203
 30
0.0
 11
299.152902086
 21
255.5757576203
 31
0.0
  0
LINE
  5
2F8
100
AcDbEntity
  8
0
100
AcDbLine
 62
7
  6
CONTINUOUS
 10
311.152902086
 20
255.5757576203
 30
0.0
 11
313.952902086
 21
255.5757576203
 31
0.0
  0
LINE
  5
2F9
100
AcDbEntity
  8
0
100
AcDbLine
 62
7
  6
CONTINUOUS
 10
317.152902086
 20
255.5757576203
 30
0.0
 11
319.952902086
 21
255.5757576203
 31
0.0
  0
LINE
  5
2FA
100
AcDbEntity
  8
0
100
AcDbLine
 62
7
  6
CONTINUOUS
 10
338.152902086
 20
239.7757576203
 30
0.0
 11
338.152902086
 21
234.7757576203
 31
0.0
  0
LINE
  5
2FB
100
AcDbEntity
  8
0
100
AcDbLine
 62
7
  6
CONTINUOUS
 10
338.152902086
 20
214.7757576203
 30
0.0
 11
338.152902086
 21
209.7757576203
 31
0.0
  0
LINE
  5
2FC
100
AcDbEntity
  8
0
100
AcDbLine
 62
7
  6
CONTINUOUS
 10
325.152902086
 20
258.7757576203
 30
0.0
 11
285.152902086
 21
258.7757576203
 31
0.0
  0
LINE
  5
2FD
100
AcDbEntity
  8
0
100
AcDbLine
 62
7
  6
CONTINUOUS
 10
345.152902086
 20
199.7757576203
 30
0.0
 11
345.152902086
 21
249.7757576203
 31
0.0
  0
LINE
  5
2FE
100
AcDbEntity
  8
0
100
AcDbLine
 62
7
  6
CONTINUOUS
 10
265.1640674996
 20
179.6219756654
 30
0.0
 11
265.1640674996
 21
129.6219756654
 31
0.0
  0
LINE
  5
2FF
100
AcDbEntity
  8
0
100
AcDbLine
 62
7
  6
CONTINUOUS
 10
285.1640674996
 20
120.6219756654
 30
0.0
 11
325.1640674996
 21
120.6219756654
 31
0.0
  0
LINE
  5
300
100
AcDbEntity
  8
0
100
AcDbLine
 62
7
  6
CONTINUOUS
 10
319.9640674996
 20
123.8219756654
 30
0.0
 11
317.1640674996
 21
123.8219756654
 31
0.0
  0
LINE
  5
301
100
AcDbEntity
  8
0
100
AcDbLine
 62
7
  6
CONTINUOUS
 10
313.9640674996
 20
123.8219756654
 30
0.0
 11
311.1640674996
 21
123.8219756654
 31
0.0
  0
LINE
  5
302
100
AcDbEntity
  8
0
100
AcDbLine
 62
7
  6
CONTINUOUS
 10
299.1640674996
 20
123.8219756654
 30
0.0
 11
296.3640674996
 21
123.8219756654
 31
0.0
  0
LINE
  5
303
100
AcDbEntity
  8
0
100
AcDbLine
 62
7
  6
CONTINUOUS
 10
293.1640674996
 20
123.8219756654
 30
0.0
 11
290.3640674996
 21
123.8219756654
 31
0.0
  0
LINE
  5
304
100
AcDbEntity
  8
0
100
AcDbLine
 62
7
  6
CONTINUOUS
 10
290.3640674996
 20
126.7219756654
 30
0.0
 11
293.1640674996
 21
126.7219756654
 31
0.0
  0
LINE
  5
305
100
AcDbEntity
  8
0
100
AcDbLine
 62
7
  6
CONTINUOUS
 10
296.3640674996
 20
126.7219756654
 30
0.0
 11
299.1640674996
 21
126.7219756654
 31
0.0
  0
LINE
  5
306
100
AcDbEntity
  8
0
100
AcDbLine
 62
7
  6
CONTINUOUS
 10
311.1640674996
 20
126.7219756654
 30
0.0
 11
313.9640674996
 21
126.7219756654
 31
0.0
  0
LINE
  5
307
100
AcDbEntity
  8
0
100
AcDbLine
 62
7
  6
CONTINUOUS
 10
317.1640674996
 20
126.7219756654
 30
0.0
 11
319.9640674996
 21
126.7219756654
 31
0.0
  0
LINE
  5
308
100
AcDbEntity
  8
0
100
AcDbLine
 62
7
  6
CONTINUOUS
 10
265.1640674996
 20
129.6219756654
 30
0.0
 11
285.1640674996
 21
129.6219756654
 31
0.0
  0
LINE
  5
309
100
AcDbEntity
  8
0
100
AcDbLine
 62
7
  6
CONTINUOUS
 10
325.1640674996
 20
129.6219756654
 30
0.0
 11
345.1640674996
 21
129.6219756654
 31
0.0
  0
LINE
  5
30A
100
AcDbEntity
  8
0
100
AcDbLine
 62
7
  6
CONTINUOUS
 10
285.1640674996
 20
188.6219756654
 30
0.0
 11
285.1640674996
 21
179.6219756654
 31
0.0
  0
LINE
  5
30B
100
AcDbEntity
  8
0
100
AcDbLine
 62
7
  6
CONTINUOUS
 10
285.1640674996
 20
129.6219756654
 30
0.0
 11
285.1640674996
 21
120.6219756654
 31
0.0
  0
LINE
  5
30C
100
AcDbEntity
  8
0
100
AcDbLine
 62
7
  6
CONTINUOUS
 10
290.3640674996
 20
123.8219756654
 30
0.0
 11
290.3640674996
 21
126.7219756654
 31
0.0
  0
LINE
  5
30D
100
AcDbEntity
  8
0
100
AcDbLine
 62
7
  6
CONTINUOUS
 10
290.3640674996
 20
182.5219756654
 30
0.0
 11
290.3640674996
 21
185.4219756654
 31
0.0
  0
LINE
  5
30E
100
AcDbEntity
  8
0
100
AcDbLine
 62
7
  6
CONTINUOUS
 10
277.6640674996
 20
139.1219756654
 30
0.0
 11
272.6640674996
 21
139.1219756654
 31
0.0
  0
LINE
  5
30F
100
AcDbEntity
  8
0
100
AcDbLine
 62
7
  6
CONTINUOUS
 10
293.1640674996
 20
185.4219756654
 30
0.0
 11
293.1640674996
 21
182.5219756654
 31
0.0
  0
LINE
  5
310
100
AcDbEntity
  8
0
100
AcDbLine
 62
7
  6
CONTINUOUS
 10
293.1640674996
 20
126.7219756654
 30
0.0
 11
293.1640674996
 21
123.8219756654
 31
0.0
  0
LINE
  5
311
100
AcDbEntity
  8
0
100
AcDbLine
 62
7
  6
CONTINUOUS
 10
296.3640674996
 20
123.8219756654
 30
0.0
 11
296.3640674996
 21
126.7219756654
 31
0.0
  0
LINE
  5
312
100
AcDbEntity
  8
0
100
AcDbLine
 62
7
  6
CONTINUOUS
 10
296.3640674996
 20
182.5219756654
 30
0.0
 11
296.3640674996
 21
185.4219756654
 31
0.0
  0
LINE
  5
313
100
AcDbEntity
  8
0
100
AcDbLine
 62
7
  6
CONTINUOUS
 10
272.6640674996
 20
145.1219756654
 30
0.0
 11
277.6640674996
 21
145.1219756654
 31
0.0
  0
LINE
  5
314
100
AcDbEntity
  8
0
100
AcDbLine
 62
7
  6
CONTINUOUS
 10
299.1640674996
 20
185.4219756654
 30
0.0
 11
299.1640674996
 21
182.5219756654
 31
0.0
  0
LINE
  5
315
100
AcDbEntity
  8
0
100
AcDbLine
 62
7
  6
CONTINUOUS
 10
299.1640674996
 20
126.7219756654
 30
0.0
 11
299.1640674996
 21
123.8219756654
 31
0.0
  0
LINE
  5
316
100
AcDbEntity
  8
0
100
AcDbLine
 62
7
  6
CONTINUOUS
 10
311.1640674996
 20
123.8219756654
 30
0.0
 11
311.1640674996
 21
126.7219756654
 31
0.0
  0
LINE
  5
317
100
AcDbEntity
  8
0
100
AcDbLine
 62
7
  6
CONTINUOUS
 10
311.1640674996
 20
182.5219756654
 30
0.0
 11
311.1640674996
 21
185.4219756654
 31
0.0
  0
LINE
  5
318
100
AcDbEntity
  8
0
100
AcDbLine
 62
7
  6
CONTINUOUS
 10
313.9640674996
 20
185.4219756654
 30
0.0
 11
313.9640674996
 21
182.5219756654
 31
0.0
  0
LINE
  5
319
100
AcDbEntity
  8
0
100
AcDbLine
 62
7
  6
CONTINUOUS
 10
313.9640674996
 20
126.7219756654
 30
0.0
 11
313.9640674996
 21
123.8219756654
 31
0.0
  0
LINE
  5
31A
100
AcDbEntity
  8
0
100
AcDbLine
 62
7
  6
CONTINUOUS
 10
277.6640674996
 20
164.1219756654
 30
0.0
 11
272.6640674996
 21
164.1219756654
 31
0.0
  0
LINE
  5
31B
100
AcDbEntity
  8
0
100
AcDbLine
 62
7
  6
CONTINUOUS
 10
317.1640674996
 20
123.8219756654
 30
0.0
 11
317.1640674996
 21
126.7219756654
 31
0.0
  0
LINE
  5
31C
100
AcDbEntity
  8
0
100
AcDbLine
 62
7
  6
CONTINUOUS
 10
317.1640674996
 20
182.5219756654
 30
0.0
 11
317.1640674996
 21
185.4219756654
 31
0.0
  0
LINE
  5
31D
100
AcDbEntity
  8
0
100
AcDbLine
 62
7
  6
CONTINUOUS
 10
319.9640674996
 20
185.4219756654
 30
0.0
 11
319.9640674996
 21
182.5219756654
 31
0.0
  0
LINE
  5
31E
100
AcDbEntity
  8
0
100
AcDbLine
 62
7
  6
CONTINUOUS
 10
319.9640674996
 20
126.7219756654
 30
0.0
 11
319.9640674996
 21
123.8219756654
 31
0.0
  0
LINE
  5
31F
100
AcDbEntity
  8
0
100
AcDbLine
 62
7
  6
CONTINUOUS
 10
272.6640674996
 20
170.1219756654
 30
0.0
 11
277.6640674996
 21
170.1219756654
 31
0.0
  0
LINE
  5
320
100
AcDbEntity
  8
0
100
AcDbLine
 62
7
  6
CONTINUOUS
 10
325.1640674996
 20
120.6219756654
 30
0.0
 11
325.1640674996
 21
129.6219756654
 31
0.0
  0
LINE
  5
321
100
AcDbEntity
  8
0
100
AcDbLine
 62
7
  6
CONTINUOUS
 10
325.1640674996
 20
179.6219756654
 30
0.0
 11
325.1640674996
 21
188.6219756654
 31
0.0
  0
LINE
  5
322
100
AcDbEntity
  8
0
100
AcDbLine
 62
7
  6
CONTINUOUS
 10
332.1640674996
 20
139.6219756654
 30
0.0
 11
332.1640674996
 21
144.6219756654
 31
0.0
  0
LINE
  5
323
100
AcDbEntity
  8
0
100
AcDbLine
 62
7
  6
CONTINUOUS
 10
332.1640674996
 20
164.6219756654
 30
0.0
 11
332.1640674996
 21
169.6219756654
 31
0.0
  0
LINE
  5
324
100
AcDbEntity
  8
0
100
AcDbLine
 62
7
  6
CONTINUOUS
 10
345.1640674996
 20
179.6219756654
 30
0.0
 11
325.1640674996
 21
179.6219756654
 31
0.0
  0
LINE
  5
325
100
AcDbEntity
  8
0
100
AcDbLine
 62
7
  6
CONTINUOUS
 10
285.1640674996
 20
179.6219756654
 30
0.0
 11
265.1640674996
 21
179.6219756654
 31
0.0
  0
LINE
  5
326
100
AcDbEntity
  8
0
100
AcDbLine
 62
7
  6
CONTINUOUS
 10
319.9640674996
 20
182.5219756654
 30
0.0
 11
317.1640674996
 21
182.5219756654
 31
0.0
  0
LINE
  5
327
100
AcDbEntity
  8
0
100
AcDbLine
 62
7
  6
CONTINUOUS
 10
313.9640674996
 20
182.5219756654
 30
0.0
 11
311.1640674996
 21
182.5219756654
 31
0.0
  0
LINE
  5
328
100
AcDbEntity
  8
0
100
AcDbLine
 62
7
  6
CONTINUOUS
 10
299.1640674996
 20
182.5219756654
 30
0.0
 11
296.3640674996
 21
182.5219756654
 31
0.0
  0
LINE
  5
329
100
AcDbEntity
  8
0
100
AcDbLine
 62
7
  6
CONTINUOUS
 10
293.1640674996
 20
182.5219756654
 30
0.0
 11
290.3640674996
 21
182.5219756654
 31
0.0
  0
LINE
  5
32A
100
AcDbEntity
  8
0
100
AcDbLine
 62
7
  6
CONTINUOUS
 10
290.3640674996
 20
185.4219756654
 30
0.0
 11
293.1640674996
 21
185.4219756654
 31
0.0
  0
LINE
  5
32B
100
AcDbEntity
  8
0
100
AcDbLine
 62
7
  6
CONTINUOUS
 10
296.3640674996
 20
185.4219756654
 30
0.0
 11
299.1640674996
 21
185.4219756654
 31
0.0
  0
LINE
  5
32C
100
AcDbEntity
  8
0
100
AcDbLine
 62
7
  6
CONTINUOUS
 10
311.1640674996
 20
185.4219756654
 30
0.0
 11
313.9640674996
 21
185.4219756654
 31
0.0
  0
LINE
  5
32D
100
AcDbEntity
  8
0
100
AcDbLine
 62
7
  6
CONTINUOUS
 10
317.1640674996
 20
185.4219756654
 30
0.0
 11
319.9640674996
 21
185.4219756654
 31
0.0
  0
LINE
  5
32E
100
AcDbEntity
  8
0
100
AcDbLine
 62
7
  6
CONTINUOUS
 10
338.1640674996
 20
169.6219756654
 30
0.0
 11
338.1640674996
 21
164.6219756654
 31
0.0
  0
LINE
  5
32F
100
AcDbEntity
  8
0
100
AcDbLine
 62
7
  6
CONTINUOUS
 10
338.1640674996
 20
144.6219756654
 30
0.0
 11
338.1640674996
 21
139.6219756654
 31
0.0
  0
LINE
  5
330
100
AcDbEntity
  8
0
100
AcDbLine
 62
7
  6
CONTINUOUS
 10
325.1640674996
 20
188.6219756654
 30
0.0
 11
285.1640674996
 21
188.6219756654
 31
0.0
  0
LINE
  5
331
100
AcDbEntity
  8
0
100
AcDbLine
 62
7
  6
CONTINUOUS
 10
345.1640674996
 20
129.6219756654
 30
0.0
 11
345.1640674996
 21
179.6219756654
 31
0.0
  0
LINE
  5
332
100
AcDbEntity
  8
03___PRT_ALL_CURVES
100
AcDbLine
 62
4
  6
CONTINUOUS
 10
223.2243605981
 20
179.9176252982
 30
0.0
 11
232.2243605981
 21
179.9176252982
 31
0.0
  0
LINE
  5
333
100
AcDbEntity
  8
03___PRT_ALL_CURVES
100
AcDbLine
 62
4
  6
CONTINUOUS
 10
223.2243605981
 20
199.9176252982
 30
0.0
 11
223.2243605981
 21
179.9176252982
 31
0.0
  0
LINE
  5
334
100
AcDbEntity
  8
03___PRT_ALL_CURVES
100
AcDbLine
 62
4
  6
CONTINUOUS
 10
229.2243605981
 20
185.9176252982
 30
0.0
 11
226.2243605981
 21
185.9176252982
 31
0.0
  0
LINE
  5
335
100
AcDbEntity
  8
03___PRT_ALL_CURVES
100
AcDbLine
 62
4
  6
CONTINUOUS
 10
226.2243605981
 20
185.9176252982
 30
0.0
 11
226.2243605981
 21
199.9176252982
 31
0.0
  0
LINE
  5
336
100
AcDbEntity
  8
03___PRT_ALL_CURVES
100
AcDbLine
 62
4
  6
CONTINUOUS
 10
229.2243605981
 20
199.9176252982
 30
0.0
 11
229.2243605981
 21
185.9176252982
 31
0.0
  0
LINE
  5
337
100
AcDbEntity
  8
03___PRT_ALL_CURVES
100
AcDbLine
 62
4
  6
CONTINUOUS
 10
232.2243605981
 20
179.9176252982
 30
0.0
 11
232.2243605981
 21
199.9176252982
 31
0.0
  0
LINE
  5
338
100
AcDbEntity
  8
03___PRT_ALL_CURVES
100
AcDbLine
 62
4
  6
CONTINUOUS
 10
232.2243605981
 20
199.9176252982
 30
0.0
 11
229.2243605981
 21
199.9176252982
 31
0.0
  0
LINE
  5
339
100
AcDbEntity
  8
03___PRT_ALL_CURVES
100
AcDbLine
 62
4
  6
CONTINUOUS
 10
226.2243605981
 20
199.9176252982
 30
0.0
 11
223.2243605981
 21
199.9176252982
 31
0.0
  0
LINE
  5
33A
100
AcDbEntity
  8
03___PRT_ALL_CURVES
100
AcDbLine
 62
4
  6
CONTINUOUS
 10
236.0677776094
 20
191.7585649599
 30
0.0
 11
245.0677776094
 21
191.7585649599
 31
0.0
  0
LINE
  5
33B
100
AcDbEntity
  8
03___PRT_ALL_CURVES
100
AcDbLine
 62
4
  6
CONTINUOUS
 10
236.0677776094
 20
211.7585649599
 30
0.0
 11
236.0677776094
 21
191.7585649599
 31
0.0
  0
LINE
  5
33C
100
AcDbEntity
  8
03___PRT_ALL_CURVES
100
AcDbLine
 62
4
  6
CONTINUOUS
 10
242.0677776094
 20
197.7585649599
 30
0.0
 11
239.0677776094
 21
197.7585649599
 31
0.0
  0
LINE
  5
33D
100
AcDbEntity
  8
03___PRT_ALL_CURVES
100
AcDbLine
 62
4
  6
CONTINUOUS
 10
239.0677776094
 20
197.7585649599
 30
0.0
 11
239.0677776094
 21
211.7585649599
 31
0.0
  0
LINE
  5
33E
100
AcDbEntity
  8
03___PRT_ALL_CURVES
100
AcDbLine
 62
4
  6
CONTINUOUS
 10
242.0677776094
 20
211.7585649599
 30
0.0
 11
242.0677776094
 21
197.7585649599
 31
0.0
  0
LINE
  5
33F
100
AcDbEntity
  8
03___PRT_ALL_CURVES
100
AcDbLine
 62
4
  6
CONTINUOUS
 10
245.0677776094
 20
191.7585649599
 30
0.0
 11
245.0677776094
 21
211.7585649599
 31
0.0
  0
LINE
  5
340
100
AcDbEntity
  8
03___PRT_ALL_CURVES
100
AcDbLine
 62
4
  6
CONTINUOUS
 10
245.0677776094
 20
211.7585649599
 30
0.0
 11
242.0677776094
 21
211.7585649599
 31
0.0
  0
LINE
  5
341
100
AcDbEntity
  8
03___PRT_ALL_CURVES
100
AcDbLine
 62
4
  6
CONTINUOUS
 10
239.0677776094
 20
211.7585649599
 30
0.0
 11
236.0677776094
 21
211.7585649599
 31
0.0
  0
LINE
  5
342
100
AcDbEntity
  8
03___PRT_ALL_CURVES
100
AcDbLine
 62
4
  6
CONTINUOUS
 10
236.0677776094
 20
168.6536025539
 30
0.0
 11
245.0677776094
 21
168.6536025539
 31
0.0
  0
LINE
  5
343
100
AcDbEntity
  8
03___PRT_ALL_CURVES
100
AcDbLine
 62
4
  6
CONTINUOUS
 10
236.0677776094
 20
188.6536025539
 30
0.0
 11
236.0677776094
 21
168.6536025539
 31
0.0
  0
LINE
  5
344
100
AcDbEntity
  8
03___PRT_ALL_CURVES
100
AcDbLine
 62
4
  6
CONTINUOUS
 10
242.0677776094
 20
174.6536025539
 30
0.0
 11
239.0677776094
 21
174.6536025539
 31
0.0
  0
LINE
  5
345
100
AcDbEntity
  8
03___PRT_ALL_CURVES
100
AcDbLine
 62
4
  6
CONTINUOUS
 10
239.0677776094
 20
174.6536025539
 30
0.0
 11
239.0677776094
 21
188.6536025539
 31
0.0
  0
LINE
  5
346
100
AcDbEntity
  8
03___PRT_ALL_CURVES
100
AcDbLine
 62
4
  6
CONTINUOUS
 10
242.0677776094
 20
188.6536025539
 30
0.0
 11
242.0677776094
 21
174.6536025539
 31
0.0
  0
LINE
  5
347
100
AcDbEntity
  8
03___PRT_ALL_CURVES
100
AcDbLine
 62
4
  6
CONTINUOUS
 10
245.0677776094
 20
168.6536025539
 30
0.0
 11
245.0677776094
 21
188.6536025539
 31
0.0
  0
LINE
  5
348
100
AcDbEntity
  8
03___PRT_ALL_CURVES
100
AcDbLine
 62
4
  6
CONTINUOUS
 10
245.0677776094
 20
188.6536025539
 30
0.0
 11
242.0677776094
 21
188.6536025539
 31
0.0
  0
LINE
  5
349
100
AcDbEntity
  8
03___PRT_ALL_CURVES
100
AcDbLine
 62
4
  6
CONTINUOUS
 10
239.0677776094
 20
188.6536025539
 30
0.0
 11
236.0677776094
 21
188.6536025539
 31
0.0
  0
LINE
  5
34A
100
AcDbEntity
  8
03___PRT_ALL_CURVES
100
AcDbLine
 62
4
  6
CONTINUOUS
 10
251.5504843763
 20
214.3871363885
 30
0.0
 11
260.5504843763
 21
214.3871363885
 31
0.0
  0
LINE
  5
34B
100
AcDbEntity
  8
03___PRT_ALL_CURVES
100
AcDbLine
 62
4
  6
CONTINUOUS
 10
251.5504843763
 20
234.3871363885
 30
0.0
 11
251.5504843763
 21
214.3871363885
 31
0.0
  0
LINE
  5
34C
100
AcDbEntity
  8
03___PRT_ALL_CURVES
100
AcDbLine
 62
4
  6
CONTINUOUS
 10
257.5504843763
 20
220.3871363885
 30
0.0
 11
254.5504843763
 21
220.3871363885
 31
0.0
  0
LINE
  5
34D
100
AcDbEntity
  8
03___PRT_ALL_CURVES
100
AcDbLine
 62
4
  6
CONTINUOUS
 10
254.5504843763
 20
220.3871363885
 30
0.0
 11
254.5504843763
 21
234.3871363885
 31
0.0
  0
LINE
  5
34E
100
AcDbEntity
  8
03___PRT_ALL_CURVES
100
AcDbLine
 62
4
  6
CONTINUOUS
 10
257.5504843763
 20
234.3871363885
 30
0.0
 11
257.5504843763
 21
220.3871363885
 31
0.0
  0
LINE
  5
34F
100
AcDbEntity
  8
03___PRT_ALL_CURVES
100
AcDbLine
 62
4
  6
CONTINUOUS
 10
260.5504843763
 20
214.3871363885
 30
0.0
 11
260.5504843763
 21
234.3871363885
 31
0.0
  0
LINE
  5
350
100
AcDbEntity
  8
03___PRT_ALL_CURVES
100
AcDbLine
 62
4
  6
CONTINUOUS
 10
260.5504843763
 20
234.3871363885
 30
0.0
 11
257.5504843763
 21
234.3871363885
 31
0.0
  0
LINE
  5
351
100
AcDbEntity
  8
03___PRT_ALL_CURVES
100
AcDbLine
 62
4
  6
CONTINUOUS
 10
254.5504843763
 20
234.3871363885
 30
0.0
 11
251.5504843763
 21
234.3871363885
 31
0.0
  0
LINE
  5
352
100
AcDbEntity
  8
03___PRT_ALL_CURVES
100
AcDbLine
 62
4
  6
CONTINUOUS
 10
251.5504843763
 20
191.5203694712
 30
0.0
 11
260.5504843763
 21
191.5203694712
 31
0.0
  0
LINE
  5
353
100
AcDbEntity
  8
03___PRT_ALL_CURVES
100
AcDbLine
 62
4
  6
CONTINUOUS
 10
251.5504843763
 20
211.5203694712
 30
0.0
 11
251.5504843763
 21
191.5203694712
 31
0.0
  0
LINE
  5
354
100
AcDbEntity
  8
03___PRT_ALL_CURVES
100
AcDbLine
 62
4
  6
CONTINUOUS
 10
257.5504843763
 20
197.5203694712
 30
0.0
 11
254.5504843763
 21
197.5203694712
 31
0.0
  0
LINE
  5
355
100
AcDbEntity
  8
03___PRT_ALL_CURVES
100
AcDbLine
 62
4
  6
CONTINUOUS
 10
254.5504843763
 20
197.5203694712
 30
0.0
 11
254.5504843763
 21
211.5203694712
 31
0.0
  0
LINE
  5
356
100
AcDbEntity
  8
03___PRT_ALL_CURVES
100
AcDbLine
 62
4
  6
CONTINUOUS
 10
257.5504843763
 20
211.5203694712
 30
0.0
 11
257.5504843763
 21
197.5203694712
 31
0.0
  0
LINE
  5
357
100
AcDbEntity
  8
03___PRT_ALL_CURVES
100
AcDbLine
 62
4
  6
CONTINUOUS
 10
260.5504843763
 20
191.5203694712
 30
0.0
 11
260.5504843763
 21
211.5203694712
 31
0.0
  0
LINE
  5
358
100
AcDbEntity
  8
03___PRT_ALL_CURVES
100
AcDbLine
 62
4
  6
CONTINUOUS
 10
260.5504843763
 20
211.5203694712
 30
0.0
 11
257.5504843763
 21
211.5203694712
 31
0.0
  0
LINE
  5
359
100
AcDbEntity
  8
03___PRT_ALL_CURVES
100
AcDbLine
 62
4
  6
CONTINUOUS
 10
254.5504843763
 20
211.5203694712
 30
0.0
 11
251.5504843763
 21
211.5203694712
 31
0.0
  0
LINE
  5
35A
100
AcDbEntity
  8
03___PRT_ALL_CURVES
100
AcDbLine
 62
4
  6
CONTINUOUS
 10
251.788679865
 20
168.6536025539
 30
0.0
 11
260.788679865
 21
168.6536025539
 31
0.0
  0
LINE
  5
35B
100
AcDbEntity
  8
03___PRT_ALL_CURVES
100
AcDbLine
 62
4
  6
CONTINUOUS
 10
251.788679865
 20
188.6536025539
 30
0.0
 11
251.788679865
 21
168.6536025539
 31
0.0
  0
LINE
  5
35C
100
AcDbEntity
  8
03___PRT_ALL_CURVES
100
AcDbLine
 62
4
  6
CONTINUOUS
 10
257.788679865
 20
174.6536025539
 30
0.0
 11
254.788679865
 21
174.6536025539
 31
0.0
  0
LINE
  5
35D
100
AcDbEntity
  8
03___PRT_ALL_CURVES
100
AcDbLine
 62
4
  6
CONTINUOUS
 10
254.788679865
 20
174.6536025539
 30
0.0
 11
254.788679865
 21
188.6536025539
 31
0.0
  0
LINE
  5
35E
100
AcDbEntity
  8
03___PRT_ALL_CURVES
100
AcDbLine
 62
4
  6
CONTINUOUS
 10
257.788679865
 20
188.6536025539
 30
0.0
 11
257.788679865
 21
174.6536025539
 31
0.0
  0
LINE
  5
35F
100
AcDbEntity
  8
03___PRT_ALL_CURVES
100
AcDbLine
 62
4
  6
CONTINUOUS
 10
260.788679865
 20
168.6536025539
 30
0.0
 11
260.788679865
 21
188.6536025539
 31
0.0
  0
LINE
  5
360
100
AcDbEntity
  8
03___PRT_ALL_CURVES
100
AcDbLine
 62
4
  6
CONTINUOUS
 10
260.788679865
 20
188.6536025539
 30
0.0
 11
257.788679865
 21
188.6536025539
 31
0.0
  0
LINE
  5
361
100
AcDbEntity
  8
03___PRT_ALL_CURVES
100
AcDbLine
 62
4
  6
CONTINUOUS
 10
254.788679865
 20
188.6536025539
 30
0.0
 11
251.788679865
 21
188.6536025539
 31
0.0
  0
LINE
  5
362
100
AcDbEntity
  8
03___PRT_ALL_CURVES
100
AcDbLine
 62
4
  6
CONTINUOUS
 10
251.3122888876
 20
145.0722491704
 30
0.0
 11
260.3122888876
 21
145.0722491704
 31
0.0
  0
LINE
  5
363
100
AcDbEntity
  8
03___PRT_ALL_CURVES
100
AcDbLine
 62
4
  6
CONTINUOUS
 10
251.3122888876
 20
165.0722491704
 30
0.0
 11
251.3122888876
 21
145.0722491704
 31
0.0
  0
LINE
  5
364
100
AcDbEntity
  8
03___PRT_ALL_CURVES
100
AcDbLine
 62
4
  6
CONTINUOUS
 10
257.3122888876
 20
151.0722491704
 30
0.0
 11
254.3122888876
 21
151.0722491704
 31
0.0
  0
LINE
  5
365
100
AcDbEntity
  8
03___PRT_ALL_CURVES
100
AcDbLine
 62
4
  6
CONTINUOUS
 10
254.3122888876
 20
151.0722491704
 30
0.0
 11
254.3122888876
 21
165.0722491704
 31
0.0
  0
LINE
  5
366
100
AcDbEntity
  8
03___PRT_ALL_CURVES
100
AcDbLine
 62
4
  6
CONTINUOUS
 10
257.3122888876
 20
165.0722491704
 30
0.0
 11
257.3122888876
 21
151.0722491704
 31
0.0
  0
LINE
  5
367
100
AcDbEntity
  8
03___PRT_ALL_CURVES
100
AcDbLine
 62
4
  6
CONTINUOUS
 10
260.3122888876
 20
145.0722491704
 30
0.0
 11
260.3122888876
 21
165.0722491704
 31
0.0
  0
LINE
  5
368
100
AcDbEntity
  8
03___PRT_ALL_CURVES
100
AcDbLine
 62
4
  6
CONTINUOUS
 10
260.3122888876
 20
165.0722491704
 30
0.0
 11
257.3122888876
 21
165.0722491704
 31
0.0
  0
LINE
  5
369
100
AcDbEntity
  8
03___PRT_ALL_CURVES
100
AcDbLine
 62
4
  6
CONTINUOUS
 10
254.3122888876
 20
165.0722491704
 30
0.0
 11
251.3122888876
 21
165.0722491704
 31
0.0
  0
LINE
  5
36A
100
AcDbEntity
  8
03___PRT_ALL_CURVES
100
AcDbLine
 62
4
  6
CONTINUOUS
 10
275.8480525154
 20
97.6285461629
 30
0.0
 11
284.8480525154
 21
97.6285461629
 31
0.0
  0
LINE
  5
36B
100
AcDbEntity
  8
03___PRT_ALL_CURVES
100
AcDbLine
 62
4
  6
CONTINUOUS
 10
275.8480525154
 20
117.6285461629
 30
0.0
 11
275.8480525154
 21
97.6285461629
 31
0.0
  0
LINE
  5
36C
100
AcDbEntity
  8
03___PRT_ALL_CURVES
100
AcDbLine
 62
4
  6
CONTINUOUS
 10
281.8480525154
 20
103.6285461629
 30
0.0
 11
278.8480525154
 21
103.6285461629
 31
0.0
  0
LINE
  5
36D
100
AcDbEntity
  8
03___PRT_ALL_CURVES
100
AcDbLine
 62
4
  6
CONTINUOUS
 10
278.8480525154
 20
103.6285461629
 30
0.0
 11
278.8480525154
 21
117.6285461629
 31
0.0
  0
LINE
  5
36E
100
AcDbEntity
  8
03___PRT_ALL_CURVES
100
AcDbLine
 62
4
  6
CONTINUOUS
 10
281.8480525154
 20
117.6285461629
 30
0.0
 11
281.8480525154
 21
103.6285461629
 31
0.0
  0
LINE
  5
36F
100
AcDbEntity
  8
03___PRT_ALL_CURVES
100
AcDbLine
 62
4
  6
CONTINUOUS
 10
284.8480525154
 20
97.6285461629
 30
0.0
 11
284.8480525154
 21
117.6285461629
 31
0.0
  0
LINE
  5
370
100
AcDbEntity
  8
03___PRT_ALL_CURVES
100
AcDbLine
 62
4
  6
CONTINUOUS
 10
284.8480525154
 20
117.6285461629
 30
0.0
 11
281.8480525154
 21
117.6285461629
 31
0.0
  0
LINE
  5
371
100
AcDbEntity
  8
03___PRT_ALL_CURVES
100
AcDbLine
 62
4
  6
CONTINUOUS
 10
278.8480525154
 20
117.6285461629
 30
0.0
 11
275.8480525154
 21
117.6285461629
 31
0.0
  0
LINE
  5
372
100
AcDbEntity
  8
03___PRT_ALL_CURVES
100
AcDbLine
 62
4
  6
CONTINUOUS
 10
259.5628682873
 20
25.6463759855
 30
0.0
 11
268.5628682873
 21
25.6463759855
 31
0.0
  0
LINE
  5
373
100
AcDbEntity
  8
03___PRT_ALL_CURVES
100
AcDbLine
 62
4
  6
CONTINUOUS
 10
259.5628682873
 20
45.6463759855
 30
0.0
 11
259.5628682873
 21
25.6463759855
 31
0.0
  0
LINE
  5
374
100
AcDbEntity
  8
03___PRT_ALL_CURVES
100
AcDbLine
 62
4
  6
CONTINUOUS
 10
265.5628682873
 20
31.6463759855
 30
0.0
 11
262.5628682873
 21
31.6463759855
 31
0.0
  0
LINE
  5
375
100
AcDbEntity
  8
03___PRT_ALL_CURVES
100
AcDbLine
 62
4
  6
CONTINUOUS
 10
262.5628682873
 20
31.6463759855
 30
0.0
 11
262.5628682873
 21
45.6463759855
 31
0.0
  0
LINE
  5
376
100
AcDbEntity
  8
03___PRT_ALL_CURVES
100
AcDbLine
 62
4
  6
CONTINUOUS
 10
265.5628682873
 20
45.6463759855
 30
0.0
 11
265.5628682873
 21
31.6463759855
 31
0.0
  0
LINE
  5
377
100
AcDbEntity
  8
03___PRT_ALL_CURVES
100
AcDbLine
 62
4
  6
CONTINUOUS
 10
268.5628682873
 20
25.6463759855
 30
0.0
 11
268.5628682873
 21
45.6463759855
 31
0.0
  0
LINE
  5
378
100
AcDbEntity
  8
03___PRT_ALL_CURVES
100
AcDbLine
 62
4
  6
CONTINUOUS
 10
268.5628682873
 20
45.6463759855
 30
0.0
 11
265.5628682873
 21
45.6463759855
 31
0.0
  0
LINE
  5
379
100
AcDbEntity
  8
03___PRT_ALL_CURVES
100
AcDbLine
 62
4
  6
CONTINUOUS
 10
262.5628682873
 20
45.6463759855
 30
0.0
 11
259.5628682873
 21
45.6463759855
 31
0.0
  0
LINE
  5
37A
100
AcDbEntity
  8
03___PRT_ALL_CURVES
100
AcDbLine
 62
4
  6
CONTINUOUS
 10
248.3843540016
 20
23.8884932787
 30
0.0
 11
257.3843540016
 21
23.8884932787
 31
0.0
  0
LINE
  5
37B
100
AcDbEntity
  8
03___PRT_ALL_CURVES
100
AcDbLine
 62
4
  6
CONTINUOUS
 10
248.3843540016
 20
43.8884932787
 30
0.0
 11
248.3843540016
 21
23.8884932787
 31
0.0
  0
LINE
  5
37C
100
AcDbEntity
  8
03___PRT_ALL_CURVES
100
AcDbLine
 62
4
  6
CONTINUOUS
 10
254.3843540016
 20
29.8884932787
 30
0.0
 11
251.3843540016
 21
29.8884932787
 31
0.0
  0
LINE
  5
37D
100
AcDbEntity
  8
03___PRT_ALL_CURVES
100
AcDbLine
 62
4
  6
CONTINUOUS
 10
251.3843540016
 20
29.8884932787
 30
0.0
 11
251.3843540016
 21
43.8884932787
 31
0.0
  0
LINE
  5
37E
100
AcDbEntity
  8
03___PRT_ALL_CURVES
100
AcDbLine
 62
4
  6
CONTINUOUS
 10
254.3843540016
 20
43.8884932787
 30
0.0
 11
254.3843540016
 21
29.8884932787
 31
0.0
  0
LINE
  5
37F
100
AcDbEntity
  8
03___PRT_ALL_CURVES
100
AcDbLine
 62
4
  6
CONTINUOUS
 10
257.3843540016
 20
23.8884932787
 30
0.0
 11
257.3843540016
 21
43.8884932787
 31
0.0
  0
LINE
  5
380
100
AcDbEntity
  8
03___PRT_ALL_CURVES
100
AcDbLine
 62
4
  6
CONTINUOUS
 10
257.3843540016
 20
43.8884932787
 30
0.0
 11
254.3843540016
 21
43.8884932787
 31
0.0
  0
LINE
  5
381
100
AcDbEntity
  8
03___PRT_ALL_CURVES
100
AcDbLine
 62
4
  6
CONTINUOUS
 10
251.3843540016
 20
43.8884932787
 30
0.0
 11
248.3843540016
 21
43.8884932787
 31
0.0
  0
LINE
  5
382
100
AcDbEntity
  8
03___PRT_ALL_CURVES
100
AcDbLine
 62
4
  6
CONTINUOUS
 10
237.203457761
 20
22.0377143314
 30
0.0
 11
246.203457761
 21
22.0377143314
 31
0.0
  0
LINE
  5
383
100
AcDbEntity
  8
03___PRT_ALL_CURVES
100
AcDbLine
 62
4
  6
CONTINUOUS
 10
237.203457761
 20
42.0377143314
 30
0.0
 11
237.203457761
 21
22.0377143314
 31
0.0
  0
LINE
  5
384
100
AcDbEntity
  8
03___PRT_ALL_CURVES
100
AcDbLine
 62
4
  6
CONTINUOUS
 10
243.203457761
 20
28.0377143314
 30
0.0
 11
240.203457761
 21
28.0377143314
 31
0.0
  0
LINE
  5
385
100
AcDbEntity
  8
03___PRT_ALL_CURVES
100
AcDbLine
 62
4
  6
CONTINUOUS
 10
240.203457761
 20
28.0377143314
 30
0.0
 11
240.203457761
 21
42.0377143314
 31
0.0
  0
LINE
  5
386
100
AcDbEntity
  8
03___PRT_ALL_CURVES
100
AcDbLine
 62
4
  6
CONTINUOUS
 10
243.203457761
 20
42.0377143314
 30
0.0
 11
243.203457761
 21
28.0377143314
 31
0.0
  0
LINE
  5
387
100
AcDbEntity
  8
03___PRT_ALL_CURVES
100
AcDbLine
 62
4
  6
CONTINUOUS
 10
246.203457761
 20
22.0377143314
 30
0.0
 11
246.203457761
 21
42.0377143314
 31
0.0
  0
LINE
  5
388
100
AcDbEntity
  8
03___PRT_ALL_CURVES
100
AcDbLine
 62
4
  6
CONTINUOUS
 10
246.203457761
 20
42.0377143314
 30
0.0
 11
243.203457761
 21
42.0377143314
 31
0.0
  0
LINE
  5
389
100
AcDbEntity
  8
03___PRT_ALL_CURVES
100
AcDbLine
 62
4
  6
CONTINUOUS
 10
240.203457761
 20
42.0377143314
 30
0.0
 11
237.203457761
 21
42.0377143314
 31
0.0
  0
LINE
  5
38A
100
AcDbEntity
  8
03___PRT_ALL_CURVES
100
AcDbLine
 62
4
  6
CONTINUOUS
 10
225.9296652797
 20
20.2369564366
 30
0.0
 11
234.9296652797
 21
20.2369564366
 31
0.0
  0
LINE
  5
38B
100
AcDbEntity
  8
03___PRT_ALL_CURVES
100
AcDbLine
 62
4
  6
CONTINUOUS
 10
225.9296652797
 20
40.2369564366
 30
0.0
 11
225.9296652797
 21
20.2369564366
 31
0.0
  0
LINE
  5
38C
100
AcDbEntity
  8
03___PRT_ALL_CURVES
100
AcDbLine
 62
4
  6
CONTINUOUS
 10
231.9296652797
 20
26.2369564366
 30
0.0
 11
228.9296652797
 21
26.2369564366
 31
0.0
  0
LINE
  5
38D
100
AcDbEntity
  8
03___PRT_ALL_CURVES
100
AcDbLine
 62
4
  6
CONTINUOUS
 10
228.9296652797
 20
26.2369564366
 30
0.0
 11
228.9296652797
 21
40.2369564366
 31
0.0
  0
LINE
  5
38E
100
AcDbEntity
  8
03___PRT_ALL_CURVES
100
AcDbLine
 62
4
  6
CONTINUOUS
 10
231.9296652797
 20
40.2369564366
 30
0.0
 11
231.9296652797
 21
26.2369564366
 31
0.0
  0
LINE
  5
38F
100
AcDbEntity
  8
03___PRT_ALL_CURVES
100
AcDbLine
 62
4
  6
CONTINUOUS
 10
234.9296652797
 20
20.2369564366
 30
0.0
 11
234.9296652797
 21
40.2369564366
 31
0.0
  0
LINE
  5
390
100
AcDbEntity
  8
03___PRT_ALL_CURVES
100
AcDbLine
 62
4
  6
CONTINUOUS
 10
234.9296652797
 20
40.2369564366
 30
0.0
 11
231.9296652797
 21
40.2369564366
 31
0.0
  0
LINE
  5
391
100
AcDbEntity
  8
03___PRT_ALL_CURVES
100
AcDbLine
 62
4
  6
CONTINUOUS
 10
228.9296652797
 20
40.2369564366
 30
0.0
 11
225.9296652797
 21
40.2369564366
 31
0.0
  0
ARC
  5
392
100
AcDbEntity
  8
03___PRT_ALL_CURVES
100
AcDbCircle
 62
4
  6
CONTINUOUS
 10
273.4034471067
 20
60.4114256301
 30
0.0
 40
10.0
100
AcDbArc
 50
278.9684907329
 51
89.995835816
  0
CIRCLE
  5
393
100
AcDbEntity
  8
03___PRT_ALL_CURVES
100
AcDbCircle
 62
4
  6
CONTINUOUS
 10
273.4034471067
 20
60.4114256301
 30
0.0
 40
4.0
  0
ARC
  5
394
100
AcDbEntity
  8
03___PRT_ALL_CURVES
100
AcDbCircle
 62
4
  6
CONTINUOUS
 10
272.554109946
 20
84.392198354
 30
0.0
 40
10.0
100
AcDbArc
 50
270.004164184
 51
81.0315092671
  0
CIRCLE
  5
395
100
AcDbEntity
  8
03___PRT_ALL_CURVES
100
AcDbCircle
 62
4
  6
CONTINUOUS
 10
272.554109946
 20
84.392198354
 30
0.0
 40
4.0
  0
ARC
  5
396
100
AcDbEntity
  8
0
100
AcDbCircle
 62
7
  6
CONTINUOUS
 10
272.652902086
 20
212.2757576203
 30
0.0
 40
3.0
100
AcDbArc
 50
90.0
 51
270.0
  0
ARC
  5
397
100
AcDbEntity
  8
0
100
AcDbCircle
 62
7
  6
CONTINUOUS
 10
277.652902086
 20
212.2757576203
 30
0.0
 40
3.0
100
AcDbArc
 50
270.0
 51
90.0
  0
ARC
  5
398
100
AcDbEntity
  8
0
100
AcDbCircle
 62
7
  6
CONTINUOUS
 10
277.652902086
 20
237.2757576203
 30
0.0
 40
3.0
100
AcDbArc
 50
270.0
 51
90.0
  0
ARC
  5
399
100
AcDbEntity
  8
0
100
AcDbCircle
 62
7
  6
CONTINUOUS
 10
272.652902086
 20
237.2757576203
 30
0.0
 40
3.0
100
AcDbArc
 50
90.0
 51
270.0
  0
ARC
  5
39A
100
AcDbEntity
  8
0
100
AcDbCircle
 62
7
  6
CONTINUOUS
 10
335.152902086
 20
214.7757576203
 30
0.0
 40
3.0
100
AcDbArc
 50
0.0
 51
180.0
  0
ARC
  5
39B
100
AcDbEntity
  8
0
100
AcDbCircle
 62
7
  6
CONTINUOUS
 10
335.152902086
 20
209.7757576203
 30
0.0
 40
3.0
100
AcDbArc
 50
180.0
 51
360.0
  0
ARC
  5
39C
100
AcDbEntity
  8
0
100
AcDbCircle
 62
7
  6
CONTINUOUS
 10
335.152902086
 20
234.7757576203
 30
0.0
 40
3.0
100
AcDbArc
 50
180.0
 51
360.0
  0
ARC
  5
39D
100
AcDbEntity
  8
0
100
AcDbCircle
 62
7
  6
CONTINUOUS
 10
335.152902086
 20
239.7757576203
 30
0.0
 40
3.0
100
AcDbArc
 50
0.0
 51
180.0
  0
ARC
  5
39E
100
AcDbEntity
  8
0
100
AcDbCircle
 62
7
  6
CONTINUOUS
 10
272.6640674996
 20
142.1219756654
 30
0.0
 40
3.0
100
AcDbArc
 50
90.0
 51
270.0
  0
ARC
  5
39F
100
AcDbEntity
  8
0
100
AcDbCircle
 62
7
  6
CONTINUOUS
 10
277.6640674996
 20
142.1219756654
 30
0.0
 40
3.0
100
AcDbArc
 50
270.0
 51
90.0
  0
ARC
  5
3A0
100
AcDbEntity
  8
0
100
AcDbCircle
 62
7
  6
CONTINUOUS
 10
277.6640674996
 20
167.1219756654
 30
0.0
 40
3.0
100
AcDbArc
 50
270.0
 51
90.0
  0
ARC
  5
3A1
100
AcDbEntity
  8
0
100
AcDbCircle
 62
7
  6
CONTINUOUS
 10
272.6640674996
 20
167.1219756654
 30
0.0
 40
3.0
100
AcDbArc
 50
90.0
 51
270.0
  0
ARC
  5
3A2
100
AcDbEntity
  8
0
100
AcDbCircle
 62
7
  6
CONTINUOUS
 10
335.1640674996
 20
144.6219756654
 30
0.0
 40
3.0
100
AcDbArc
 50
0.0
 51
180.0
  0
ARC
  5
3A3
100
AcDbEntity
  8
0
100
AcDbCircle
 62
7
  6
CONTINUOUS
 10
335.1640674996
 20
139.6219756654
 30
0.0
 40
3.0
100
AcDbArc
 50
180.0
 51
360.0
  0
ARC
  5
3A4
100
AcDbEntity
  8
0
100
AcDbCircle
 62
7
  6
CONTINUOUS
 10
335.1640674996
 20
164.6219756654
 30
0.0
 40
3.0
100
AcDbArc
 50
180.0
 51
360.0
  0
ARC
  5
3A5
100
AcDbEntity
  8
0
100
AcDbCircle
 62
7
  6
CONTINUOUS
 10
335.1640674996
 20
169.6219756654
 30
0.0
 40
3.0
100
AcDbArc
 50
0.0
 51
180.0
  0
ENDSEC
  0
SECTION
  2
OBJECTS
  0
DICTIONARY
  5
C
100
AcDbDictionary
280
0
281
1
  3
ACAD_GROUP
350
D
  3
ACAD_MLINESTYLE
350
17
  3
ACAD_LAYOUT
350
1A
  3
ACAD_PLOTSETTINGS
350
19
  3
ACAD_PLOTSTYLENAME
350
E
  0
DICTIONARY
  5
D
102
{ACAD_REACTORS
330
C
102
}
100
AcDbDictionary
280
0
281
1
  0
ACDBDICTIONARYWDFLT
  5
E
102
{ACAD_REACTORS
330
C
102
}
100
AcDbDictionary
281
1
  3
Normal
350
F
100
AcDbDictionaryWithDefault
340
F
  0
DICTIONARY
  5
17
102
{ACAD_REACTORS
330
C
102
}
100
AcDbDictionary
280
0
281
1
  3
Standard
350
18
  0
DICTIONARY
  5
19
102
{ACAD_REACTORS
330
C
102
}
100
AcDbDictionary
281
1
  0
DICTIONARY
  5
1A
102
{ACAD_REACTORS
330
C
102
}
100
AcDbDictionary
281
1
  3
Model
350
3A6
  3
Layout1
350
3A7
  0
ACDBPLACEHOLDER
  5
F
102
{ACAD_REACTORS
330
E
102
}
  0
MLINESTYLE
  5
18
102
{ACAD_REACTORS
330
17
102
}
100
AcDbMlineStyle
  2
STANDARD
 70
0
  3

 62
256
 51
90.0
 52
90.0
 71
2
 49
0.5
 62
256
  6
BYLAYER
 49
-0.5
 62
256
  6
BYLAYER
  0
LAYOUT
  5
3A6
102
{ACAD_REACTORS
330
1A
102
}
100
AcDbPlotSettings
  1

  2
none_device
  4

  6

 40
0.0
 41
0.0
 42
0.0
 43
0.0
 44
440.0
 45
290.0
 46
0.0
 47
0.0
 48
0.0
 49
0.0
140
0.0
141
0.0
142
1.0
143
1.0
 70
1024
 72
1
 73
0
 74
0
  7

 75
0
147
1.0
148
0.0
149
0.0
100
AcDbLayout
  1
Model
 70
0
 71
0
 10
0.0
 20
0.0
 11
440.0
 21
290.0
 12
0.0
 22
0.0
 32
0.0
 14
0.0
 24
0.0
 34
0.0
 15
0.0
 25
0.0
 35
0.0
146
0.0
 13
0.0
 23
0.0
 33
0.0
 16
1.0
 26
0.0
 36
0.0
 17
0.0
 27
1.0
 37
0.0
 76
0
330
207
345
0
346
0
  0
LAYOUT
  5
3A7
102
{ACAD_REACTORS
330
1A
102
}
100
AcDbPlotSettings
  1

  2
none_device
  4

  6

 40
0.0
 41
0.0
 42
0.0
 43
0.0
 44
440.0
 45
290.0
 46
0.0
 47
0.0
 48
0.0
 49
0.0
140
0.0
141
0.0
142
1.0
143
1.0
 70
0
 72
1
 73
0
 74
0
  7

 75
0
147
1.0
148
0.0
149
0.0
100
AcDbLayout
  1
Layout1
 70
0
 71
1
 10
0.0
 20
0.0
 11
440.0
 21
290.0
 12
0.0
 22
0.0
 32
0.0
 14
0.0
 24
0.0
 34
0.0
 15
0.0
 25
0.0
 35
0.0
146
0.0
 13
0.0
 23
0.0
 33
0.0
 16
1.0
 26
0.0
 36
0.0
 17
0.0
 27
1.0
 37
0.0
 76
0
330
208
345
0
346
0
  0
ENDSEC
  0
EOF
