999
DXF file: C:\Users\Theo\Documents\GitHub\MECH2110\Rapid Prototyping Assignment\Laser Cut Crane\laser_cut_crane.dxf
999
Pro/ENGINEER 2025102 by Parametric Technology Corporation
  0
SECTION
  2
HEADER
  9
$ACADVER
  1
AC1032
  9
$DWGCODEPAGE
  3
ANSI_1252
  9
$EXTMAX
 10
440.0
 20
290.0
 30
0.0
  9
$EXTMIN
 10
0.0
 20
0.0
 30
0.0
  9
$LIMMIN
 10
0.0
 20
0.0
  9
$LIMMAX
 10
440.0
 20
290.0
  9
$VIEWCTR
 10
220.0
 20
145.0
  9
$VIEWSIZE
 40
290.0
  9
$CLAYER
  8
0
  9
$LTSCALE
 40
24.2
  9
$CELTYPE
  6
BYLAYER
  9
$DIMSCALE
 40
1.0
  9
$DIMASZ
 40
3.5
  9
$DIMEXO
 40
2.0
  9
$DIMDLI
 40
16.72
  9
$DIMEXE
 40
2.0
  9
$DIMCEN
 40
3.96
  9
$DIMLFAC
 40
1.0
  9
$DIMBLK
  1
_FILLED
  9
$DIMALT
 70
0
  9
$DIMALTF
 40
0.0393700787
  9
$DIMTXT
 40
3.0
  9
$DIMTOL
 70
1
  9
$DIMLIM
 70
0
  9
$DIMTFAC
 40
1.0
  9
$DIMTP
 40
0.01
  9
$DIMTM
 40
0.01
  9
$DIMGAP
 40
0.625
  9
$DIMDSEP
 70
46
  9
$AUNITS
 70
0
  9
$PDMODE
 70
3
  9
$PDSIZE
 40
1.0
  9
$HANDSEED
  5
392
  9
$TILEMODE
 70
1
  9
$MEASUREMENT
 70
1
  9
$INSUNITS
 70
4
  0
ENDSEC
  0
SECTION
  2
CLASSES
  0
CLASS
  1
ACDBDICTIONARYWDFLT
  2
AcDbDictionaryWithDefault
  3
AutoCAD 2000
 90
0
 91
1
280
0
281
0
  0
CLASS
  1
ACDBPLACEHOLDER
  2
AcDbPlaceHolder
  3
AutoCAD 2000
 90
0
 91
1
280
0
281
0
  0
CLASS
  1
LAYOUT
  2
AcDbLayout
  3
AutoCAD 2000
 90
0
 91
0
280
0
281
0
  0
ENDSEC
  0
SECTION
  2
TABLES
  0
TABLE
  2
VPORT
  5
8
100
AcDbSymbolTable
 70
2
  0
VPORT
  5
1F4
100
AcDbSymbolTableRecord
100
AcDbViewportTableRecord
  2
*ACTIVE
 70
0
 10
0.0
 20
0.0
 11
1.0
 21
1.0
 12
220.0
 22
145.0
 13
0.0
 23
0.0
 14
1.0
 24
1.0
 15
0.0
 25
0.0
 16
0.0
 26
0.0
 36
1.0
 17
0.0
 27
0.0
 37
0.0
 40
290.0
 41
1.5172413793
 42
50.0
 43
0.0
 44
0.0
 50
0.0
 51
0.0
 71
0
 72
100
 73
1
 74
1
 75
0
 76
0
 77
0
 78
0
  0
ENDTAB
  0
TABLE
  2
LTYPE
  5
5
100
AcDbSymbolTable
 70
6
  0
LTYPE
  5
14
100
AcDbSymbolTableRecord
100
AcDbLinetypeTableRecord
  2
BYBLOCK
 70
0
  3

 72
65
 73
0
 40
0.0
  0
LTYPE
  5
15
100
AcDbSymbolTableRecord
100
AcDbLinetypeTableRecord
  2
BYLAYER
 70
0
  3

 72
65
 73
0
 40
0.0
  0
LTYPE
  5
16
100
AcDbSymbolTableRecord
100
AcDbLinetypeTableRecord
  2
CONTINUOUS
 70
64
  3
Solid line
 72
65
 73
0
 40
0.0
  0
LTYPE
  5
1F5
100
AcDbSymbolTableRecord
100
AcDbLinetypeTableRecord
  2
CENTER
 70
64
  3
____ _ ____ _ ____ _ ____ _ ____ _ ____ _ ____
 72
65
 73
4
 40
0.6
 49
0.375
 74
0
 49
-0.075
 74
0
 49
0.075
 74
0
 49
-0.075
 74
0
  0
LTYPE
  5
1F6
100
AcDbSymbolTableRecord
100
AcDbLinetypeTableRecord
  2
HIDDEN
 70
64
  3
- - - - - - - - - - - - - - - - - - - -
 72
65
 73
2
 40
0.2
 49
0.1
 74
0
 49
-0.1
 74
0
  0
LTYPE
  5
1F7
100
AcDbSymbolTableRecord
100
AcDbLinetypeTableRecord
  2
PHANTOM
 70
64
  3
_____ _ _ _____ _ _ _____ _ _ _____
 72
65
 73
6
 40
0.8
 49
0.45
 74
0
 49
-0.05
 74
0
 49
0.1
 74
0
 49
-0.05
 74
0
 49
0.1
 74
0
 49
-0.05
 74
0
  0
LTYPE
  5
1F8
100
AcDbSymbolTableRecord
100
AcDbLinetypeTableRecord
  2
DOT
 70
64
  3
. . . . . . . . . . . . . . . . . . . .
 72
65
 73
2
 40
0.2
 49
0.1
 74
0
 49
-0.1
 74
0
  0
LTYPE
  5
1F9
100
AcDbSymbolTableRecord
100
AcDbLinetypeTableRecord
  2
DASHED
 70
64
  3
- - - - - - - - - - - - - - - - - - - -
 72
65
 73
2
 40
0.2
 49
0.1
 74
0
 49
-0.1
 74
0
  0
ENDTAB
  0
TABLE
  2
LAYER
  5
2
100
AcDbSymbolTable
 70
36
  0
LAYER
  5
10
100
AcDbSymbolTableRecord
100
AcDbLayerTableRecord
  2
0
 70
0
 62
7
  6
CONTINUOUS
370
-3
390
F
  0
LAYER
  5
1FA
100
AcDbSymbolTableRecord
100
AcDbLayerTableRecord
  2
DEFAULT_1
 70
0
 62
7
  6
CENTER
370
-3
390
F
  0
LAYER
  5
1FB
100
AcDbSymbolTableRecord
100
AcDbLayerTableRecord
  2
DEFAULT_2
 70
0
 62
8
  6
HIDDEN
370
-3
390
F
  0
LAYER
  5
1FC
100
AcDbSymbolTableRecord
100
AcDbLayerTableRecord
  2
DEFAULT_3
 70
0
 62
7
  6
PHANTOM
370
-3
390
F
  0
LAYER
  5
1FD
100
AcDbSymbolTableRecord
100
AcDbLayerTableRecord
  2
01___PRT_ALL_DTM_PLN
 70
0
 62
7
  6
CONTINUOUS
370
-3
390
F
  0
LAYER
  5
1FE
100
AcDbSymbolTableRecord
100
AcDbLayerTableRecord
  2
01___PRT_DEF_DTM_PLN
 70
0
 62
7
  6
CONTINUOUS
370
-3
390
F
  0
LAYER
  5
1FF
100
AcDbSymbolTableRecord
100
AcDbLayerTableRecord
  2
02___PRT_ALL_AXES
 70
0
 62
7
  6
CONTINUOUS
370
-3
390
F
  0
LAYER
  5
200
100
AcDbSymbolTableRecord
100
AcDbLayerTableRecord
  2
03___PRT_ALL_CURVES
 70
0
 62
7
  6
CONTINUOUS
370
-3
390
F
  0
LAYER
  5
201
100
AcDbSymbolTableRecord
100
AcDbLayerTableRecord
  2
04___PRT_ALL_DTM_PNT
 70
0
 62
7
  6
CONTINUOUS
370
-3
390
F
  0
LAYER
  5
202
100
AcDbSymbolTableRecord
100
AcDbLayerTableRecord
  2
05___PRT_ALL_DTM_CSYS
 70
0
 62
7
  6
CONTINUOUS
370
-3
390
F
  0
LAYER
  5
203
100
AcDbSymbolTableRecord
100
AcDbLayerTableRecord
  2
05___PRT_DEF_DTM_CSYS
 70
0
 62
7
  6
CONTINUOUS
370
-3
390
F
  0
LAYER
  5
204
100
AcDbSymbolTableRecord
100
AcDbLayerTableRecord
  2
06___PRT_ALL_SURFS
 70
0
 62
7
  6
CONTINUOUS
370
-3
390
F
  0
ENDTAB
  0
TABLE
  2
STYLE
  5
3
100
AcDbSymbolTable
 70
1
  0
STYLE
  5
11
100
AcDbSymbolTableRecord
100
AcDbTextStyleTableRecord
  2
STANDARD
 70
0
 40
0.0
 41
0.8
 50
0.0
 71
0
 42
0.2
  3
txt
  4

  0
STYLE
  5
205
100
AcDbSymbolTableRecord
100
AcDbTextStyleTableRecord
  2
TEXTSTYLE_1
 70
0
 40
0.0
 41
0.8
 50
0.0
 71
0
 42
0.2
  3
gdt
  4

  0
ENDTAB
  0
TABLE
  2
VIEW
  5
6
100
AcDbSymbolTable
 70
0
  0
ENDTAB
  0
TABLE
  2
UCS
  5
7
100
AcDbSymbolTable
 70
0
  0
ENDTAB
  0
TABLE
  2
APPID
  5
9
100
AcDbSymbolTable
 70
1
  0
APPID
  5
206
100
AcDbSymbolTableRecord
100
AcDbRegAppTableRecord
  2
ACAD
 70
0
  0
ENDTAB
  0
TABLE
  2
BLOCK_RECORD
  5
1
100
AcDbSymbolTable
 70
0
  0
BLOCK_RECORD
  5
207
100
AcDbSymbolTableRecord
100
AcDbBlockTableRecord
  2
*Model_Space
  0
BLOCK_RECORD
  5
208
100
AcDbSymbolTableRecord
100
AcDbBlockTableRecord
  2
*Paper_Space
  0
BLOCK_RECORD
  5
209
100
AcDbSymbolTableRecord
100
AcDbBlockTableRecord
  2
_FILLED
  0
ENDTAB
  0
TABLE
  2
DIMSTYLE
  5
A
100
AcDbSymbolTable
 70
1
100
AcDbDimStyleTable
 71
0
  0
DIMSTYLE
105
20A
100
AcDbSymbolTableRecord
100
AcDbDimStyleTableRecord
  2
STANDARD
 70
0
  3

  4

 40
1.0
 41
3.5
 42
2.0
 43
0.38
 44
2.0
 45
0.0
 46
0.0
 47
0.01
 48
0.01
140
3.0
141
0.0
142
0.0
143
25.4
144
1.0
145
0.0
146
1.0
147
0.625
 71
1
 72
0
 73
0
 74
0
 75
0
 76
0
 77
1
 78
8
 79
2
170
0
171
1
172
0
173
0
174
0
175
0
176
0
177
0
178
0
270
2
179
1
271
2
272
2
273
2
274
2
275
0
280
0
281
0
282
0
283
1
284
8
285
0
286
0
287
3
288
0
340
11
278
46
341
209
342
209
343
209
344
209
  0
ENDTAB
  0
ENDSEC
  0
SECTION
  2
BLOCKS
  0
BLOCK
  5
20
100
AcDbEntity
  8
0
100
AcDbBlockBegin
  2
*Model_Space
 70
0
 10
0.0
 20
0.0
 30
0.0
  3
*Model_Space
  1

  0
ENDBLK
  5
21
100
AcDbEntity
  8
0
100
AcDbBlockEnd
  0
BLOCK
  5
1C
100
AcDbEntity
  8
0
100
AcDbBlockBegin
  2
*Paper_Space
 70
0
 10
0.0
 20
0.0
 30
0.0
  3
*Paper_Space
  1

  0
ENDBLK
  5
1D
100
AcDbEntity
  8
0
100
AcDbBlockEnd
  0
BLOCK
  5
20B
100
AcDbEntity
  8
0
100
AcDbBlockBegin
  2
_FILLED
 70
64
 10
0.0
 20
0.0
 30
0.0
  3
_FILLED
  1

  0
SOLID
  5
20C
100
AcDbEntity
  8
0
  6
BYBLOCK
 62
0
100
AcDbTrace
 10
0.0
 20
0.0
 30
0.0
 11
-1.0
 21
0.25
 31
0.0
 12
-1.0
 22
-0.25
 32
0.0
 13
-1.0
 23
-0.25
 33
0.0
  0
ENDBLK
  5
20D
100
AcDbEntity
  8
0
  6
BYBLOCK
 62
0
100
AcDbBlockEnd
  0
ENDSEC
  0
SECTION
  2
ENTITIES
  0
LINE
  5
20E
100
AcDbEntity
  8
0
100
AcDbLine
 62
7
  6
CONTINUOUS
 10
0.0
 20
0.0
 30
0.0
 11
0.0
 21
290.0
 31
0.0
  0
LINE
  5
20F
100
AcDbEntity
  8
0
100
AcDbLine
 62
7
  6
CONTINUOUS
 10
0.0
 20
0.0
 30
0.0
 11
440.0
 21
0.0
 31
0.0
  0
LINE
  5
210
100
AcDbEntity
  8
0
100
AcDbLine
 62
7
  6
CONTINUOUS
 10
0.0
 20
290.0
 30
0.0
 11
440.0
 21
290.0
 31
0.0
  0
LINE
  5
211
100
AcDbEntity
  8
0
100
AcDbLine
 62
7
  6
CONTINUOUS
 10
440.0
 20
0.0
 30
0.0
 11
440.0
 21
290.0
 31
0.0
  0
LINE
  5
212
100
AcDbEntity
  8
0
100
AcDbLine
 62
7
  6
CONTINUOUS
 10
234.5658956152
 20
186.1302165932
 30
0.0
 11
252.5658956152
 21
186.1302165932
 31
0.0
  0
LINE
  5
213
100
AcDbEntity
  8
0
100
AcDbLine
 62
7
  6
CONTINUOUS
 10
234.5658956152
 20
211.1302165932
 30
0.0
 11
234.5658956152
 21
186.1302165932
 31
0.0
  0
LINE
  5
214
100
AcDbEntity
  8
0
100
AcDbLine
 62
7
  6
CONTINUOUS
 10
246.5658956152
 20
192.1302165932
 30
0.0
 11
240.5658956152
 21
192.1302165932
 31
0.0
  0
LINE
  5
215
100
AcDbEntity
  8
0
100
AcDbLine
 62
7
  6
CONTINUOUS
 10
240.5658956152
 20
192.1302165932
 30
0.0
 11
240.5658956152
 21
211.1302165932
 31
0.0
  0
LINE
  5
216
100
AcDbEntity
  8
0
100
AcDbLine
 62
7
  6
CONTINUOUS
 10
246.5658956152
 20
211.1302165932
 30
0.0
 11
246.5658956152
 21
192.1302165932
 31
0.0
  0
LINE
  5
217
100
AcDbEntity
  8
0
100
AcDbLine
 62
7
  6
CONTINUOUS
 10
252.5658956152
 20
186.1302165932
 30
0.0
 11
252.5658956152
 21
211.1302165932
 31
0.0
  0
LINE
  5
218
100
AcDbEntity
  8
0
100
AcDbLine
 62
7
  6
CONTINUOUS
 10
252.5658956152
 20
211.1302165932
 30
0.0
 11
246.5658956152
 21
211.1302165932
 31
0.0
  0
LINE
  5
219
100
AcDbEntity
  8
0
100
AcDbLine
 62
7
  6
CONTINUOUS
 10
240.5658956152
 20
211.1302165932
 30
0.0
 11
234.5658956152
 21
211.1302165932
 31
0.0
  0
LINE
  5
21A
100
AcDbEntity
  8
0
100
AcDbLine
 62
7
  6
CONTINUOUS
 10
118.932165625
 20
12.6142164532
 30
0.0
 11
136.932165625
 21
12.6142164532
 31
0.0
  0
LINE
  5
21B
100
AcDbEntity
  8
0
100
AcDbLine
 62
7
  6
CONTINUOUS
 10
118.932165625
 20
37.6142164532
 30
0.0
 11
118.932165625
 21
12.6142164532
 31
0.0
  0
LINE
  5
21C
100
AcDbEntity
  8
0
100
AcDbLine
 62
7
  6
CONTINUOUS
 10
130.932165625
 20
18.6142164532
 30
0.0
 11
124.932165625
 21
18.6142164532
 31
0.0
  0
LINE
  5
21D
100
AcDbEntity
  8
0
100
AcDbLine
 62
7
  6
CONTINUOUS
 10
124.932165625
 20
18.6142164532
 30
0.0
 11
124.932165625
 21
37.6142164532
 31
0.0
  0
LINE
  5
21E
100
AcDbEntity
  8
0
100
AcDbLine
 62
7
  6
CONTINUOUS
 10
130.932165625
 20
37.6142164532
 30
0.0
 11
130.932165625
 21
18.6142164532
 31
0.0
  0
LINE
  5
21F
100
AcDbEntity
  8
0
100
AcDbLine
 62
7
  6
CONTINUOUS
 10
136.932165625
 20
12.6142164532
 30
0.0
 11
136.932165625
 21
37.6142164532
 31
0.0
  0
LINE
  5
220
100
AcDbEntity
  8
0
100
AcDbLine
 62
7
  6
CONTINUOUS
 10
136.932165625
 20
37.6142164532
 30
0.0
 11
130.932165625
 21
37.6142164532
 31
0.0
  0
LINE
  5
221
100
AcDbEntity
  8
0
100
AcDbLine
 62
7
  6
CONTINUOUS
 10
124.932165625
 20
37.6142164532
 30
0.0
 11
118.932165625
 21
37.6142164532
 31
0.0
  0
LINE
  5
222
100
AcDbEntity
  8
0
100
AcDbLine
 62
7
  6
CONTINUOUS
 10
257.6623965243
 20
33.1081480565
 30
0.0
 11
275.6623965243
 21
33.1081480565
 31
0.0
  0
LINE
  5
223
100
AcDbEntity
  8
0
100
AcDbLine
 62
7
  6
CONTINUOUS
 10
257.6623965243
 20
58.1081480565
 30
0.0
 11
257.6623965243
 21
33.1081480565
 31
0.0
  0
LINE
  5
224
100
AcDbEntity
  8
0
100
AcDbLine
 62
7
  6
CONTINUOUS
 10
269.6623965243
 20
39.1081480565
 30
0.0
 11
263.6623965243
 21
39.1081480565
 31
0.0
  0
LINE
  5
225
100
AcDbEntity
  8
0
100
AcDbLine
 62
7
  6
CONTINUOUS
 10
263.6623965243
 20
39.1081480565
 30
0.0
 11
263.6623965243
 21
58.1081480565
 31
0.0
  0
LINE
  5
226
100
AcDbEntity
  8
0
100
AcDbLine
 62
7
  6
CONTINUOUS
 10
269.6623965243
 20
58.1081480565
 30
0.0
 11
269.6623965243
 21
39.1081480565
 31
0.0
  0
LINE
  5
227
100
AcDbEntity
  8
0
100
AcDbLine
 62
7
  6
CONTINUOUS
 10
275.6623965243
 20
33.1081480565
 30
0.0
 11
275.6623965243
 21
58.1081480565
 31
0.0
  0
LINE
  5
228
100
AcDbEntity
  8
0
100
AcDbLine
 62
7
  6
CONTINUOUS
 10
275.6623965243
 20
58.1081480565
 30
0.0
 11
269.6623965243
 21
58.1081480565
 31
0.0
  0
LINE
  5
229
100
AcDbEntity
  8
0
100
AcDbLine
 62
7
  6
CONTINUOUS
 10
263.6623965243
 20
58.1081480565
 30
0.0
 11
257.6623965243
 21
58.1081480565
 31
0.0
  0
LINE
  5
22A
100
AcDbEntity
  8
0
100
AcDbLine
 62
7
  6
CONTINUOUS
 10
237.115226713
 20
17.9727797489
 30
0.0
 11
255.115226713
 21
17.9727797489
 31
0.0
  0
LINE
  5
22B
100
AcDbEntity
  8
0
100
AcDbLine
 62
7
  6
CONTINUOUS
 10
237.115226713
 20
42.9727797489
 30
0.0
 11
237.115226713
 21
17.9727797489
 31
0.0
  0
LINE
  5
22C
100
AcDbEntity
  8
0
100
AcDbLine
 62
7
  6
CONTINUOUS
 10
249.115226713
 20
23.9727797489
 30
0.0
 11
243.115226713
 21
23.9727797489
 31
0.0
  0
LINE
  5
22D
100
AcDbEntity
  8
0
100
AcDbLine
 62
7
  6
CONTINUOUS
 10
243.115226713
 20
23.9727797489
 30
0.0
 11
243.115226713
 21
42.9727797489
 31
0.0
  0
LINE
  5
22E
100
AcDbEntity
  8
0
100
AcDbLine
 62
7
  6
CONTINUOUS
 10
249.115226713
 20
42.9727797489
 30
0.0
 11
249.115226713
 21
23.9727797489
 31
0.0
  0
LINE
  5
22F
100
AcDbEntity
  8
0
100
AcDbLine
 62
7
  6
CONTINUOUS
 10
255.115226713
 20
17.9727797489
 30
0.0
 11
255.115226713
 21
42.9727797489
 31
0.0
  0
LINE
  5
230
100
AcDbEntity
  8
0
100
AcDbLine
 62
7
  6
CONTINUOUS
 10
255.115226713
 20
42.9727797489
 30
0.0
 11
249.115226713
 21
42.9727797489
 31
0.0
  0
LINE
  5
231
100
AcDbEntity
  8
0
100
AcDbLine
 62
7
  6
CONTINUOUS
 10
243.115226713
 20
42.9727797489
 30
0.0
 11
237.115226713
 21
42.9727797489
 31
0.0
  0
LINE
  5
232
100
AcDbEntity
  8
0
100
AcDbLine
 62
7
  6
CONTINUOUS
 10
229.7155280307
 20
153.53770273
 30
0.0
 11
238.7155280307
 21
153.53770273
 31
0.0
  0
LINE
  5
233
100
AcDbEntity
  8
0
100
AcDbLine
 62
7
  6
CONTINUOUS
 10
229.7155280307
 20
173.53770273
 30
0.0
 11
229.7155280307
 21
153.53770273
 31
0.0
  0
LINE
  5
234
100
AcDbEntity
  8
0
100
AcDbLine
 62
7
  6
CONTINUOUS
 10
235.7155280307
 20
159.53770273
 30
0.0
 11
232.7155280307
 21
159.53770273
 31
0.0
  0
LINE
  5
235
100
AcDbEntity
  8
0
100
AcDbLine
 62
7
  6
CONTINUOUS
 10
232.7155280307
 20
159.53770273
 30
0.0
 11
232.7155280307
 21
173.53770273
 31
0.0
  0
LINE
  5
236
100
AcDbEntity
  8
0
100
AcDbLine
 62
7
  6
CONTINUOUS
 10
235.7155280307
 20
173.53770273
 30
0.0
 11
235.7155280307
 21
159.53770273
 31
0.0
  0
LINE
  5
237
100
AcDbEntity
  8
0
100
AcDbLine
 62
7
  6
CONTINUOUS
 10
238.7155280307
 20
153.53770273
 30
0.0
 11
238.7155280307
 21
173.53770273
 31
0.0
  0
LINE
  5
238
100
AcDbEntity
  8
0
100
AcDbLine
 62
7
  6
CONTINUOUS
 10
238.7155280307
 20
173.53770273
 30
0.0
 11
235.7155280307
 21
173.53770273
 31
0.0
  0
LINE
  5
239
100
AcDbEntity
  8
0
100
AcDbLine
 62
7
  6
CONTINUOUS
 10
232.7155280307
 20
173.53770273
 30
0.0
 11
229.7155280307
 21
173.53770273
 31
0.0
  0
LINE
  5
23A
100
AcDbEntity
  8
0
100
AcDbLine
 62
7
  6
CONTINUOUS
 10
246.4291142127
 20
213.1842113356
 30
0.0
 11
255.4291142127
 21
213.1842113356
 31
0.0
  0
LINE
  5
23B
100
AcDbEntity
  8
0
100
AcDbLine
 62
7
  6
CONTINUOUS
 10
246.4291142127
 20
233.1842113356
 30
0.0
 11
246.4291142127
 21
213.1842113356
 31
0.0
  0
LINE
  5
23C
100
AcDbEntity
  8
0
100
AcDbLine
 62
7
  6
CONTINUOUS
 10
252.4291142127
 20
219.1842113356
 30
0.0
 11
249.4291142127
 21
219.1842113356
 31
0.0
  0
LINE
  5
23D
100
AcDbEntity
  8
0
100
AcDbLine
 62
7
  6
CONTINUOUS
 10
249.4291142127
 20
219.1842113356
 30
0.0
 11
249.4291142127
 21
233.1842113356
 31
0.0
  0
LINE
  5
23E
100
AcDbEntity
  8
0
100
AcDbLine
 62
7
  6
CONTINUOUS
 10
252.4291142127
 20
233.1842113356
 30
0.0
 11
252.4291142127
 21
219.1842113356
 31
0.0
  0
LINE
  5
23F
100
AcDbEntity
  8
0
100
AcDbLine
 62
7
  6
CONTINUOUS
 10
255.4291142127
 20
213.1842113356
 30
0.0
 11
255.4291142127
 21
233.1842113356
 31
0.0
  0
LINE
  5
240
100
AcDbEntity
  8
0
100
AcDbLine
 62
7
  6
CONTINUOUS
 10
255.4291142127
 20
233.1842113356
 30
0.0
 11
252.4291142127
 21
233.1842113356
 31
0.0
  0
LINE
  5
241
100
AcDbEntity
  8
0
100
AcDbLine
 62
7
  6
CONTINUOUS
 10
249.4291142127
 20
233.1842113356
 30
0.0
 11
246.4291142127
 21
233.1842113356
 31
0.0
  0
LINE
  5
242
100
AcDbEntity
  8
0
100
AcDbLine
 62
7
  6
CONTINUOUS
 10
86.6008601974
 20
253.2740276081
 30
0.0
 11
95.6008601974
 21
253.2740276081
 31
0.0
  0
LINE
  5
243
100
AcDbEntity
  8
0
100
AcDbLine
 62
7
  6
CONTINUOUS
 10
86.6008601974
 20
273.2740276081
 30
0.0
 11
86.6008601974
 21
253.2740276081
 31
0.0
  0
LINE
  5
244
100
AcDbEntity
  8
0
100
AcDbLine
 62
7
  6
CONTINUOUS
 10
92.6008601974
 20
259.2740276081
 30
0.0
 11
89.6008601974
 21
259.2740276081
 31
0.0
  0
LINE
  5
245
100
AcDbEntity
  8
0
100
AcDbLine
 62
7
  6
CONTINUOUS
 10
89.6008601974
 20
259.2740276081
 30
0.0
 11
89.6008601974
 21
273.2740276081
 31
0.0
  0
LINE
  5
246
100
AcDbEntity
  8
0
100
AcDbLine
 62
7
  6
CONTINUOUS
 10
92.6008601974
 20
273.2740276081
 30
0.0
 11
92.6008601974
 21
259.2740276081
 31
0.0
  0
LINE
  5
247
100
AcDbEntity
  8
0
100
AcDbLine
 62
7
  6
CONTINUOUS
 10
95.6008601974
 20
253.2740276081
 30
0.0
 11
95.6008601974
 21
273.2740276081
 31
0.0
  0
LINE
  5
248
100
AcDbEntity
  8
0
100
AcDbLine
 62
7
  6
CONTINUOUS
 10
95.6008601974
 20
273.2740276081
 30
0.0
 11
92.6008601974
 21
273.2740276081
 31
0.0
  0
LINE
  5
249
100
AcDbEntity
  8
0
100
AcDbLine
 62
7
  6
CONTINUOUS
 10
89.6008601974
 20
273.2740276081
 30
0.0
 11
86.6008601974
 21
273.2740276081
 31
0.0
  0
LINE
  5
24A
100
AcDbEntity
  8
0
100
AcDbLine
 62
7
  6
CONTINUOUS
 10
321.186721394
 20
260.2128267581
 30
0.0
 11
330.186721394
 21
260.2128267581
 31
0.0
  0
LINE
  5
24B
100
AcDbEntity
  8
0
100
AcDbLine
 62
7
  6
CONTINUOUS
 10
321.186721394
 20
280.2128267581
 30
0.0
 11
321.186721394
 21
260.2128267581
 31
0.0
  0
LINE
  5
24C
100
AcDbEntity
  8
0
100
AcDbLine
 62
7
  6
CONTINUOUS
 10
327.186721394
 20
266.2128267581
 30
0.0
 11
324.186721394
 21
266.2128267581
 31
0.0
  0
LINE
  5
24D
100
AcDbEntity
  8
0
100
AcDbLine
 62
7
  6
CONTINUOUS
 10
324.186721394
 20
266.2128267581
 30
0.0
 11
324.186721394
 21
280.2128267581
 31
0.0
  0
LINE
  5
24E
100
AcDbEntity
  8
0
100
AcDbLine
 62
7
  6
CONTINUOUS
 10
327.186721394
 20
280.2128267581
 30
0.0
 11
327.186721394
 21
266.2128267581
 31
0.0
  0
LINE
  5
24F
100
AcDbEntity
  8
0
100
AcDbLine
 62
7
  6
CONTINUOUS
 10
330.186721394
 20
260.2128267581
 30
0.0
 11
330.186721394
 21
280.2128267581
 31
0.0
  0
LINE
  5
250
100
AcDbEntity
  8
0
100
AcDbLine
 62
7
  6
CONTINUOUS
 10
330.186721394
 20
280.2128267581
 30
0.0
 11
327.186721394
 21
280.2128267581
 31
0.0
  0
LINE
  5
251
100
AcDbEntity
  8
0
100
AcDbLine
 62
7
  6
CONTINUOUS
 10
324.186721394
 20
280.2128267581
 30
0.0
 11
321.186721394
 21
280.2128267581
 31
0.0
  0
LINE
  5
252
100
AcDbEntity
  8
0
100
AcDbLine
 62
7
  6
CONTINUOUS
 10
260.095849375
 20
189.2806125177
 30
0.0
 11
269.095849375
 21
189.2806125177
 31
0.0
  0
LINE
  5
253
100
AcDbEntity
  8
0
100
AcDbLine
 62
7
  6
CONTINUOUS
 10
260.095849375
 20
209.2806125177
 30
0.0
 11
260.095849375
 21
189.2806125177
 31
0.0
  0
LINE
  5
254
100
AcDbEntity
  8
0
100
AcDbLine
 62
7
  6
CONTINUOUS
 10
266.095849375
 20
195.2806125177
 30
0.0
 11
263.095849375
 21
195.2806125177
 31
0.0
  0
LINE
  5
255
100
AcDbEntity
  8
0
100
AcDbLine
 62
7
  6
CONTINUOUS
 10
263.095849375
 20
195.2806125177
 30
0.0
 11
263.095849375
 21
209.2806125177
 31
0.0
  0
LINE
  5
256
100
AcDbEntity
  8
0
100
AcDbLine
 62
7
  6
CONTINUOUS
 10
266.095849375
 20
209.2806125177
 30
0.0
 11
266.095849375
 21
195.2806125177
 31
0.0
  0
LINE
  5
257
100
AcDbEntity
  8
0
100
AcDbLine
 62
7
  6
CONTINUOUS
 10
269.095849375
 20
189.2806125177
 30
0.0
 11
269.095849375
 21
209.2806125177
 31
0.0
  0
LINE
  5
258
100
AcDbEntity
  8
0
100
AcDbLine
 62
7
  6
CONTINUOUS
 10
269.095849375
 20
209.2806125177
 30
0.0
 11
266.095849375
 21
209.2806125177
 31
0.0
  0
LINE
  5
259
100
AcDbEntity
  8
0
100
AcDbLine
 62
7
  6
CONTINUOUS
 10
263.095849375
 20
209.2806125177
 30
0.0
 11
260.095849375
 21
209.2806125177
 31
0.0
  0
LINE
  5
25A
100
AcDbEntity
  8
0
100
AcDbLine
 62
7
  6
CONTINUOUS
 10
60.1617639694
 20
247.997860021
 30
0.0
 11
69.1617639694
 21
247.997860021
 31
0.0
  0
LINE
  5
25B
100
AcDbEntity
  8
0
100
AcDbLine
 62
7
  6
CONTINUOUS
 10
60.1617639694
 20
267.997860021
 30
0.0
 11
60.1617639694
 21
247.997860021
 31
0.0
  0
LINE
  5
25C
100
AcDbEntity
  8
0
100
AcDbLine
 62
7
  6
CONTINUOUS
 10
66.1617639694
 20
253.997860021
 30
0.0
 11
63.1617639694
 21
253.997860021
 31
0.0
  0
LINE
  5
25D
100
AcDbEntity
  8
0
100
AcDbLine
 62
7
  6
CONTINUOUS
 10
63.1617639694
 20
253.997860021
 30
0.0
 11
63.1617639694
 21
267.997860021
 31
0.0
  0
LINE
  5
25E
100
AcDbEntity
  8
0
100
AcDbLine
 62
7
  6
CONTINUOUS
 10
66.1617639694
 20
267.997860021
 30
0.0
 11
66.1617639694
 21
253.997860021
 31
0.0
  0
LINE
  5
25F
100
AcDbEntity
  8
0
100
AcDbLine
 62
7
  6
CONTINUOUS
 10
69.1617639694
 20
247.997860021
 30
0.0
 11
69.1617639694
 21
267.997860021
 31
0.0
  0
LINE
  5
260
100
AcDbEntity
  8
0
100
AcDbLine
 62
7
  6
CONTINUOUS
 10
69.1617639694
 20
267.997860021
 30
0.0
 11
66.1617639694
 21
267.997860021
 31
0.0
  0
LINE
  5
261
100
AcDbEntity
  8
0
100
AcDbLine
 62
7
  6
CONTINUOUS
 10
63.1617639694
 20
267.997860021
 30
0.0
 11
60.1617639694
 21
267.997860021
 31
0.0
  0
LINE
  5
262
100
AcDbEntity
  8
0
100
AcDbLine
 62
7
  6
CONTINUOUS
 10
73.535837641
 20
243.4722832472
 30
0.0
 11
82.535837641
 21
243.4722832472
 31
0.0
  0
LINE
  5
263
100
AcDbEntity
  8
0
100
AcDbLine
 62
7
  6
CONTINUOUS
 10
73.535837641
 20
263.4722832472
 30
0.0
 11
73.535837641
 21
243.4722832472
 31
0.0
  0
LINE
  5
264
100
AcDbEntity
  8
0
100
AcDbLine
 62
7
  6
CONTINUOUS
 10
79.535837641
 20
249.4722832472
 30
0.0
 11
76.535837641
 21
249.4722832472
 31
0.0
  0
LINE
  5
265
100
AcDbEntity
  8
0
100
AcDbLine
 62
7
  6
CONTINUOUS
 10
76.535837641
 20
249.4722832472
 30
0.0
 11
76.535837641
 21
263.4722832472
 31
0.0
  0
LINE
  5
266
100
AcDbEntity
  8
0
100
AcDbLine
 62
7
  6
CONTINUOUS
 10
79.535837641
 20
263.4722832472
 30
0.0
 11
79.535837641
 21
249.4722832472
 31
0.0
  0
LINE
  5
267
100
AcDbEntity
  8
0
100
AcDbLine
 62
7
  6
CONTINUOUS
 10
82.535837641
 20
243.4722832472
 30
0.0
 11
82.535837641
 21
263.4722832472
 31
0.0
  0
LINE
  5
268
100
AcDbEntity
  8
0
100
AcDbLine
 62
7
  6
CONTINUOUS
 10
82.535837641
 20
263.4722832472
 30
0.0
 11
79.535837641
 21
263.4722832472
 31
0.0
  0
LINE
  5
269
100
AcDbEntity
  8
0
100
AcDbLine
 62
7
  6
CONTINUOUS
 10
76.535837641
 20
263.4722832472
 30
0.0
 11
73.535837641
 21
263.4722832472
 31
0.0
  0
LINE
  5
26A
100
AcDbEntity
  8
0
100
AcDbLine
 62
7
  6
CONTINUOUS
 10
259.4162836936
 20
213.381503078
 30
0.0
 11
268.4162836936
 21
213.381503078
 31
0.0
  0
LINE
  5
26B
100
AcDbEntity
  8
0
100
AcDbLine
 62
7
  6
CONTINUOUS
 10
259.4162836936
 20
233.381503078
 30
0.0
 11
259.4162836936
 21
213.381503078
 31
0.0
  0
LINE
  5
26C
100
AcDbEntity
  8
0
100
AcDbLine
 62
7
  6
CONTINUOUS
 10
265.4162836936
 20
219.381503078
 30
0.0
 11
262.4162836936
 21
219.381503078
 31
0.0
  0
LINE
  5
26D
100
AcDbEntity
  8
0
100
AcDbLine
 62
7
  6
CONTINUOUS
 10
262.4162836936
 20
219.381503078
 30
0.0
 11
262.4162836936
 21
233.381503078
 31
0.0
  0
LINE
  5
26E
100
AcDbEntity
  8
0
100
AcDbLine
 62
7
  6
CONTINUOUS
 10
265.4162836936
 20
233.381503078
 30
0.0
 11
265.4162836936
 21
219.381503078
 31
0.0
  0
LINE
  5
26F
100
AcDbEntity
  8
0
100
AcDbLine
 62
7
  6
CONTINUOUS
 10
268.4162836936
 20
213.381503078
 30
0.0
 11
268.4162836936
 21
233.381503078
 31
0.0
  0
LINE
  5
270
100
AcDbEntity
  8
0
100
AcDbLine
 62
7
  6
CONTINUOUS
 10
268.4162836936
 20
233.381503078
 30
0.0
 11
265.4162836936
 21
233.381503078
 31
0.0
  0
LINE
  5
271
100
AcDbEntity
  8
0
100
AcDbLine
 62
7
  6
CONTINUOUS
 10
262.4162836936
 20
233.381503078
 30
0.0
 11
259.4162836936
 21
233.381503078
 31
0.0
  0
LINE
  5
272
100
AcDbEntity
  8
0
100
AcDbLine
 62
7
  6
CONTINUOUS
 10
221.7132179751
 20
252.8377157921
 30
0.0
 11
230.7132179751
 21
252.8377157921
 31
0.0
  0
LINE
  5
273
100
AcDbEntity
  8
0
100
AcDbLine
 62
7
  6
CONTINUOUS
 10
221.7132179751
 20
272.8377157921
 30
0.0
 11
221.7132179751
 21
252.8377157921
 31
0.0
  0
LINE
  5
274
100
AcDbEntity
  8
0
100
AcDbLine
 62
7
  6
CONTINUOUS
 10
227.7132179751
 20
258.8377157921
 30
0.0
 11
224.7132179751
 21
258.8377157921
 31
0.0
  0
LINE
  5
275
100
AcDbEntity
  8
0
100
AcDbLine
 62
7
  6
CONTINUOUS
 10
224.7132179751
 20
258.8377157921
 30
0.0
 11
224.7132179751
 21
272.8377157921
 31
0.0
  0
LINE
  5
276
100
AcDbEntity
  8
0
100
AcDbLine
 62
7
  6
CONTINUOUS
 10
227.7132179751
 20
272.8377157921
 30
0.0
 11
227.7132179751
 21
258.8377157921
 31
0.0
  0
LINE
  5
277
100
AcDbEntity
  8
0
100
AcDbLine
 62
7
  6
CONTINUOUS
 10
230.7132179751
 20
252.8377157921
 30
0.0
 11
230.7132179751
 21
272.8377157921
 31
0.0
  0
LINE
  5
278
100
AcDbEntity
  8
0
100
AcDbLine
 62
7
  6
CONTINUOUS
 10
230.7132179751
 20
272.8377157921
 30
0.0
 11
227.7132179751
 21
272.8377157921
 31
0.0
  0
LINE
  5
279
100
AcDbEntity
  8
0
100
AcDbLine
 62
7
  6
CONTINUOUS
 10
224.7132179751
 20
272.8377157921
 30
0.0
 11
221.7132179751
 21
272.8377157921
 31
0.0
  0
LINE
  5
27A
100
AcDbEntity
  8
0
100
AcDbLine
 62
7
  6
CONTINUOUS
 10
309.5153727772
 20
255.8225524497
 30
0.0
 11
318.5153727772
 21
255.8225524497
 31
0.0
  0
LINE
  5
27B
100
AcDbEntity
  8
0
100
AcDbLine
 62
7
  6
CONTINUOUS
 10
309.5153727772
 20
275.8225524497
 30
0.0
 11
309.5153727772
 21
255.8225524497
 31
0.0
  0
LINE
  5
27C
100
AcDbEntity
  8
0
100
AcDbLine
 62
7
  6
CONTINUOUS
 10
315.5153727772
 20
261.8225524497
 30
0.0
 11
312.5153727772
 21
261.8225524497
 31
0.0
  0
LINE
  5
27D
100
AcDbEntity
  8
0
100
AcDbLine
 62
7
  6
CONTINUOUS
 10
312.5153727772
 20
261.8225524497
 30
0.0
 11
312.5153727772
 21
275.8225524497
 31
0.0
  0
LINE
  5
27E
100
AcDbEntity
  8
0
100
AcDbLine
 62
7
  6
CONTINUOUS
 10
315.5153727772
 20
275.8225524497
 30
0.0
 11
315.5153727772
 21
261.8225524497
 31
0.0
  0
LINE
  5
27F
100
AcDbEntity
  8
0
100
AcDbLine
 62
7
  6
CONTINUOUS
 10
318.5153727772
 20
255.8225524497
 30
0.0
 11
318.5153727772
 21
275.8225524497
 31
0.0
  0
LINE
  5
280
100
AcDbEntity
  8
0
100
AcDbLine
 62
7
  6
CONTINUOUS
 10
318.5153727772
 20
275.8225524497
 30
0.0
 11
315.5153727772
 21
275.8225524497
 31
0.0
  0
LINE
  5
281
100
AcDbEntity
  8
0
100
AcDbLine
 62
7
  6
CONTINUOUS
 10
312.5153727772
 20
275.8225524497
 30
0.0
 11
309.5153727772
 21
275.8225524497
 31
0.0
  0
LINE
  5
282
100
AcDbEntity
  8
0
100
AcDbLine
 62
7
  6
CONTINUOUS
 10
271.213440837
 20
212.8797144276
 30
0.0
 11
280.213440837
 21
212.8797144276
 31
0.0
  0
LINE
  5
283
100
AcDbEntity
  8
0
100
AcDbLine
 62
7
  6
CONTINUOUS
 10
271.213440837
 20
232.8797144276
 30
0.0
 11
271.213440837
 21
212.8797144276
 31
0.0
  0
LINE
  5
284
100
AcDbEntity
  8
0
100
AcDbLine
 62
7
  6
CONTINUOUS
 10
277.213440837
 20
218.8797144276
 30
0.0
 11
274.213440837
 21
218.8797144276
 31
0.0
  0
LINE
  5
285
100
AcDbEntity
  8
0
100
AcDbLine
 62
7
  6
CONTINUOUS
 10
274.213440837
 20
218.8797144276
 30
0.0
 11
274.213440837
 21
232.8797144276
 31
0.0
  0
LINE
  5
286
100
AcDbEntity
  8
0
100
AcDbLine
 62
7
  6
CONTINUOUS
 10
277.213440837
 20
232.8797144276
 30
0.0
 11
277.213440837
 21
218.8797144276
 31
0.0
  0
LINE
  5
287
100
AcDbEntity
  8
0
100
AcDbLine
 62
7
  6
CONTINUOUS
 10
280.213440837
 20
212.8797144276
 30
0.0
 11
280.213440837
 21
232.8797144276
 31
0.0
  0
LINE
  5
288
100
AcDbEntity
  8
0
100
AcDbLine
 62
7
  6
CONTINUOUS
 10
280.213440837
 20
232.8797144276
 30
0.0
 11
277.213440837
 21
232.8797144276
 31
0.0
  0
LINE
  5
289
100
AcDbEntity
  8
0
100
AcDbLine
 62
7
  6
CONTINUOUS
 10
274.213440837
 20
232.8797144276
 30
0.0
 11
271.213440837
 21
232.8797144276
 31
0.0
  0
LINE
  5
28A
100
AcDbEntity
  8
0
100
AcDbLine
 62
7
  6
CONTINUOUS
 10
233.6067216952
 20
213.7712036821
 30
0.0
 11
242.6067216952
 21
213.7712036821
 31
0.0
  0
LINE
  5
28B
100
AcDbEntity
  8
0
100
AcDbLine
 62
7
  6
CONTINUOUS
 10
233.6067216952
 20
233.7712036821
 30
0.0
 11
233.6067216952
 21
213.7712036821
 31
0.0
  0
LINE
  5
28C
100
AcDbEntity
  8
0
100
AcDbLine
 62
7
  6
CONTINUOUS
 10
239.6067216952
 20
219.7712036821
 30
0.0
 11
236.6067216952
 21
219.7712036821
 31
0.0
  0
LINE
  5
28D
100
AcDbEntity
  8
0
100
AcDbLine
 62
7
  6
CONTINUOUS
 10
236.6067216952
 20
219.7712036821
 30
0.0
 11
236.6067216952
 21
233.7712036821
 31
0.0
  0
LINE
  5
28E
100
AcDbEntity
  8
0
100
AcDbLine
 62
7
  6
CONTINUOUS
 10
239.6067216952
 20
233.7712036821
 30
0.0
 11
239.6067216952
 21
219.7712036821
 31
0.0
  0
LINE
  5
28F
100
AcDbEntity
  8
0
100
AcDbLine
 62
7
  6
CONTINUOUS
 10
242.6067216952
 20
213.7712036821
 30
0.0
 11
242.6067216952
 21
233.7712036821
 31
0.0
  0
LINE
  5
290
100
AcDbEntity
  8
0
100
AcDbLine
 62
7
  6
CONTINUOUS
 10
242.6067216952
 20
233.7712036821
 30
0.0
 11
239.6067216952
 21
233.7712036821
 31
0.0
  0
LINE
  5
291
100
AcDbEntity
  8
0
100
AcDbLine
 62
7
  6
CONTINUOUS
 10
236.6067216952
 20
233.7712036821
 30
0.0
 11
233.6067216952
 21
233.7712036821
 31
0.0
  0
LINE
  5
292
100
AcDbEntity
  8
0
100
AcDbLine
 62
7
  6
CONTINUOUS
 10
288.2726364246
 20
7.1680750339
 30
0.0
 11
338.2726364246
 21
7.1680750339
 31
0.0
  0
LINE
  5
293
100
AcDbEntity
  8
0
100
AcDbLine
 62
7
  6
CONTINUOUS
 10
279.2726364246
 20
72.1680750339
 30
0.0
 11
279.2726364246
 21
22.1680750339
 31
0.0
  0
LINE
  5
294
100
AcDbEntity
  8
0
100
AcDbLine
 62
7
  6
CONTINUOUS
 10
282.2726364246
 20
22.1680750339
 30
0.0
 11
282.2726364246
 21
28.1680750339
 31
0.0
  0
LINE
  5
295
100
AcDbEntity
  8
0
100
AcDbLine
 62
7
  6
CONTINUOUS
 10
282.2726364246
 20
66.1680750339
 30
0.0
 11
282.2726364246
 21
72.1680750339
 31
0.0
  0
LINE
  5
296
100
AcDbEntity
  8
0
100
AcDbLine
 62
7
  6
CONTINUOUS
 10
285.2726364246
 20
72.1680750339
 30
0.0
 11
285.2726364246
 21
66.1680750339
 31
0.0
  0
LINE
  5
297
100
AcDbEntity
  8
0
100
AcDbLine
 62
7
  6
CONTINUOUS
 10
285.2726364246
 20
28.1680750339
 30
0.0
 11
285.2726364246
 21
22.1680750339
 31
0.0
  0
LINE
  5
298
100
AcDbEntity
  8
0
100
AcDbLine
 62
7
  6
CONTINUOUS
 10
288.2726364246
 20
87.1680750339
 30
0.0
 11
288.2726364246
 21
72.1680750339
 31
0.0
  0
LINE
  5
299
100
AcDbEntity
  8
0
100
AcDbLine
 62
7
  6
CONTINUOUS
 10
288.2726364246
 20
22.1680750339
 30
0.0
 11
288.2726364246
 21
7.1680750339
 31
0.0
  0
LINE
  5
29A
100
AcDbEntity
  8
0
100
AcDbLine
 62
7
  6
CONTINUOUS
 10
279.2726364246
 20
22.1680750339
 30
0.0
 11
282.2726364246
 21
22.1680750339
 31
0.0
  0
LINE
  5
29B
100
AcDbEntity
  8
0
100
AcDbLine
 62
7
  6
CONTINUOUS
 10
285.2726364246
 20
22.1680750339
 30
0.0
 11
288.2726364246
 21
22.1680750339
 31
0.0
  0
LINE
  5
29C
100
AcDbEntity
  8
0
100
AcDbLine
 62
7
  6
CONTINUOUS
 10
338.2726364246
 20
22.1680750339
 30
0.0
 11
341.2726364246
 21
22.1680750339
 31
0.0
  0
LINE
  5
29D
100
AcDbEntity
  8
0
100
AcDbLine
 62
7
  6
CONTINUOUS
 10
344.2726364246
 20
22.1680750339
 30
0.0
 11
347.2726364246
 21
22.1680750339
 31
0.0
  0
LINE
  5
29E
100
AcDbEntity
  8
0
100
AcDbLine
 62
7
  6
CONTINUOUS
 10
282.2726364246
 20
28.1680750339
 30
0.0
 11
285.2726364246
 21
28.1680750339
 31
0.0
  0
LINE
  5
29F
100
AcDbEntity
  8
0
100
AcDbLine
 62
7
  6
CONTINUOUS
 10
341.2726364246
 20
28.1680750339
 30
0.0
 11
344.2726364246
 21
28.1680750339
 31
0.0
  0
LINE
  5
2A0
100
AcDbEntity
  8
0
100
AcDbLine
 62
7
  6
CONTINUOUS
 10
297.7726364246
 20
14.6680750339
 30
0.0
 11
297.7726364246
 21
19.6680750339
 31
0.0
  0
LINE
  5
2A1
100
AcDbEntity
  8
0
100
AcDbLine
 62
7
  6
CONTINUOUS
 10
303.7726364246
 20
19.6680750339
 30
0.0
 11
303.7726364246
 21
14.6680750339
 31
0.0
  0
LINE
  5
2A2
100
AcDbEntity
  8
0
100
AcDbLine
 62
7
  6
CONTINUOUS
 10
322.7726364246
 20
14.6680750339
 30
0.0
 11
322.7726364246
 21
19.6680750339
 31
0.0
  0
LINE
  5
2A3
100
AcDbEntity
  8
0
100
AcDbLine
 62
7
  6
CONTINUOUS
 10
328.7726364246
 20
19.6680750339
 30
0.0
 11
328.7726364246
 21
14.6680750339
 31
0.0
  0
LINE
  5
2A4
100
AcDbEntity
  8
0
100
AcDbLine
 62
7
  6
CONTINUOUS
 10
344.2726364246
 20
66.1680750339
 30
0.0
 11
341.2726364246
 21
66.1680750339
 31
0.0
  0
LINE
  5
2A5
100
AcDbEntity
  8
0
100
AcDbLine
 62
7
  6
CONTINUOUS
 10
285.2726364246
 20
66.1680750339
 30
0.0
 11
282.2726364246
 21
66.1680750339
 31
0.0
  0
LINE
  5
2A6
100
AcDbEntity
  8
0
100
AcDbLine
 62
7
  6
CONTINUOUS
 10
338.2726364246
 20
7.1680750339
 30
0.0
 11
338.2726364246
 21
22.1680750339
 31
0.0
  0
LINE
  5
2A7
100
AcDbEntity
  8
0
100
AcDbLine
 62
7
  6
CONTINUOUS
 10
338.2726364246
 20
72.1680750339
 30
0.0
 11
338.2726364246
 21
87.1680750339
 31
0.0
  0
LINE
  5
2A8
100
AcDbEntity
  8
0
100
AcDbLine
 62
7
  6
CONTINUOUS
 10
341.2726364246
 20
22.1680750339
 30
0.0
 11
341.2726364246
 21
28.1680750339
 31
0.0
  0
LINE
  5
2A9
100
AcDbEntity
  8
0
100
AcDbLine
 62
7
  6
CONTINUOUS
 10
341.2726364246
 20
66.1680750339
 30
0.0
 11
341.2726364246
 21
72.1680750339
 31
0.0
  0
LINE
  5
2AA
100
AcDbEntity
  8
0
100
AcDbLine
 62
7
  6
CONTINUOUS
 10
347.2726364246
 20
72.1680750339
 30
0.0
 11
344.2726364246
 21
72.1680750339
 31
0.0
  0
LINE
  5
2AB
100
AcDbEntity
  8
0
100
AcDbLine
 62
7
  6
CONTINUOUS
 10
341.2726364246
 20
72.1680750339
 30
0.0
 11
338.2726364246
 21
72.1680750339
 31
0.0
  0
LINE
  5
2AC
100
AcDbEntity
  8
0
100
AcDbLine
 62
7
  6
CONTINUOUS
 10
288.2726364246
 20
72.1680750339
 30
0.0
 11
285.2726364246
 21
72.1680750339
 31
0.0
  0
LINE
  5
2AD
100
AcDbEntity
  8
0
100
AcDbLine
 62
7
  6
CONTINUOUS
 10
282.2726364246
 20
72.1680750339
 30
0.0
 11
279.2726364246
 21
72.1680750339
 31
0.0
  0
LINE
  5
2AE
100
AcDbEntity
  8
0
100
AcDbLine
 62
7
  6
CONTINUOUS
 10
328.2726364246
 20
74.1680750339
 30
0.0
 11
323.2726364246
 21
74.1680750339
 31
0.0
  0
LINE
  5
2AF
100
AcDbEntity
  8
0
100
AcDbLine
 62
7
  6
CONTINUOUS
 10
303.2726364246
 20
74.1680750339
 30
0.0
 11
298.2726364246
 21
74.1680750339
 31
0.0
  0
LINE
  5
2B0
100
AcDbEntity
  8
0
100
AcDbLine
 62
7
  6
CONTINUOUS
 10
344.2726364246
 20
72.1680750339
 30
0.0
 11
344.2726364246
 21
66.1680750339
 31
0.0
  0
LINE
  5
2B1
100
AcDbEntity
  8
0
100
AcDbLine
 62
7
  6
CONTINUOUS
 10
344.2726364246
 20
28.1680750339
 30
0.0
 11
344.2726364246
 21
22.1680750339
 31
0.0
  0
LINE
  5
2B2
100
AcDbEntity
  8
0
100
AcDbLine
 62
7
  6
CONTINUOUS
 10
347.2726364246
 20
22.1680750339
 30
0.0
 11
347.2726364246
 21
72.1680750339
 31
0.0
  0
LINE
  5
2B3
100
AcDbEntity
  8
0
100
AcDbLine
 62
7
  6
CONTINUOUS
 10
298.2726364246
 20
80.1680750339
 30
0.0
 11
303.2726364246
 21
80.1680750339
 31
0.0
  0
LINE
  5
2B4
100
AcDbEntity
  8
0
100
AcDbLine
 62
7
  6
CONTINUOUS
 10
323.2726364246
 20
80.1680750339
 30
0.0
 11
328.2726364246
 21
80.1680750339
 31
0.0
  0
LINE
  5
2B5
100
AcDbEntity
  8
0
100
AcDbLine
 62
7
  6
CONTINUOUS
 10
338.2726364246
 20
87.1680750339
 30
0.0
 11
288.2726364246
 21
87.1680750339
 31
0.0
  0
LINE
  5
2B6
100
AcDbEntity
  8
0
100
AcDbLine
 62
7
  6
CONTINUOUS
 10
168.5442721145
 20
179.8684000926
 30
0.0
 11
218.5442721145
 21
179.8684000926
 31
0.0
  0
LINE
  5
2B7
100
AcDbEntity
  8
0
100
AcDbLine
 62
7
  6
CONTINUOUS
 10
159.5442721145
 20
244.8684000926
 30
0.0
 11
159.5442721145
 21
194.8684000926
 31
0.0
  0
LINE
  5
2B8
100
AcDbEntity
  8
0
100
AcDbLine
 62
7
  6
CONTINUOUS
 10
162.5442721145
 20
194.8684000926
 30
0.0
 11
162.5442721145
 21
200.8684000926
 31
0.0
  0
LINE
  5
2B9
100
AcDbEntity
  8
0
100
AcDbLine
 62
7
  6
CONTINUOUS
 10
162.5442721145
 20
238.8684000926
 30
0.0
 11
162.5442721145
 21
244.8684000926
 31
0.0
  0
LINE
  5
2BA
100
AcDbEntity
  8
0
100
AcDbLine
 62
7
  6
CONTINUOUS
 10
165.5442721145
 20
244.8684000926
 30
0.0
 11
165.5442721145
 21
238.8684000926
 31
0.0
  0
LINE
  5
2BB
100
AcDbEntity
  8
0
100
AcDbLine
 62
7
  6
CONTINUOUS
 10
165.5442721145
 20
200.8684000926
 30
0.0
 11
165.5442721145
 21
194.8684000926
 31
0.0
  0
LINE
  5
2BC
100
AcDbEntity
  8
0
100
AcDbLine
 62
7
  6
CONTINUOUS
 10
168.5442721145
 20
259.8684000926
 30
0.0
 11
168.5442721145
 21
244.8684000926
 31
0.0
  0
LINE
  5
2BD
100
AcDbEntity
  8
0
100
AcDbLine
 62
7
  6
CONTINUOUS
 10
168.5442721145
 20
194.8684000926
 30
0.0
 11
168.5442721145
 21
179.8684000926
 31
0.0
  0
LINE
  5
2BE
100
AcDbEntity
  8
0
100
AcDbLine
 62
7
  6
CONTINUOUS
 10
159.5442721145
 20
194.8684000926
 30
0.0
 11
162.5442721145
 21
194.8684000926
 31
0.0
  0
LINE
  5
2BF
100
AcDbEntity
  8
0
100
AcDbLine
 62
7
  6
CONTINUOUS
 10
165.5442721145
 20
194.8684000926
 30
0.0
 11
168.5442721145
 21
194.8684000926
 31
0.0
  0
LINE
  5
2C0
100
AcDbEntity
  8
0
100
AcDbLine
 62
7
  6
CONTINUOUS
 10
218.5442721145
 20
194.8684000926
 30
0.0
 11
221.5442721145
 21
194.8684000926
 31
0.0
  0
LINE
  5
2C1
100
AcDbEntity
  8
0
100
AcDbLine
 62
7
  6
CONTINUOUS
 10
224.5442721145
 20
194.8684000926
 30
0.0
 11
227.5442721145
 21
194.8684000926
 31
0.0
  0
LINE
  5
2C2
100
AcDbEntity
  8
0
100
AcDbLine
 62
7
  6
CONTINUOUS
 10
162.5442721145
 20
200.8684000926
 30
0.0
 11
165.5442721145
 21
200.8684000926
 31
0.0
  0
LINE
  5
2C3
100
AcDbEntity
  8
0
100
AcDbLine
 62
7
  6
CONTINUOUS
 10
221.5442721145
 20
200.8684000926
 30
0.0
 11
224.5442721145
 21
200.8684000926
 31
0.0
  0
LINE
  5
2C4
100
AcDbEntity
  8
0
100
AcDbLine
 62
7
  6
CONTINUOUS
 10
178.0442721145
 20
187.3684000926
 30
0.0
 11
178.0442721145
 21
192.3684000926
 31
0.0
  0
LINE
  5
2C5
100
AcDbEntity
  8
0
100
AcDbLine
 62
7
  6
CONTINUOUS
 10
184.0442721145
 20
192.3684000926
 30
0.0
 11
184.0442721145
 21
187.3684000926
 31
0.0
  0
LINE
  5
2C6
100
AcDbEntity
  8
0
100
AcDbLine
 62
7
  6
CONTINUOUS
 10
203.0442721145
 20
187.3684000926
 30
0.0
 11
203.0442721145
 21
192.3684000926
 31
0.0
  0
LINE
  5
2C7
100
AcDbEntity
  8
0
100
AcDbLine
 62
7
  6
CONTINUOUS
 10
209.0442721145
 20
192.3684000926
 30
0.0
 11
209.0442721145
 21
187.3684000926
 31
0.0
  0
LINE
  5
2C8
100
AcDbEntity
  8
0
100
AcDbLine
 62
7
  6
CONTINUOUS
 10
224.5442721145
 20
238.8684000926
 30
0.0
 11
221.5442721145
 21
238.8684000926
 31
0.0
  0
LINE
  5
2C9
100
AcDbEntity
  8
0
100
AcDbLine
 62
7
  6
CONTINUOUS
 10
165.5442721145
 20
238.8684000926
 30
0.0
 11
162.5442721145
 21
238.8684000926
 31
0.0
  0
LINE
  5
2CA
100
AcDbEntity
  8
0
100
AcDbLine
 62
7
  6
CONTINUOUS
 10
218.5442721145
 20
179.8684000926
 30
0.0
 11
218.5442721145
 21
194.8684000926
 31
0.0
  0
LINE
  5
2CB
100
AcDbEntity
  8
0
100
AcDbLine
 62
7
  6
CONTINUOUS
 10
218.5442721145
 20
244.8684000926
 30
0.0
 11
218.5442721145
 21
259.8684000926
 31
0.0
  0
LINE
  5
2CC
100
AcDbEntity
  8
0
100
AcDbLine
 62
7
  6
CONTINUOUS
 10
221.5442721145
 20
194.8684000926
 30
0.0
 11
221.5442721145
 21
200.8684000926
 31
0.0
  0
LINE
  5
2CD
100
AcDbEntity
  8
0
100
AcDbLine
 62
7
  6
CONTINUOUS
 10
221.5442721145
 20
238.8684000926
 30
0.0
 11
221.5442721145
 21
244.8684000926
 31
0.0
  0
LINE
  5
2CE
100
AcDbEntity
  8
0
100
AcDbLine
 62
7
  6
CONTINUOUS
 10
227.5442721145
 20
244.8684000926
 30
0.0
 11
224.5442721145
 21
244.8684000926
 31
0.0
  0
LINE
  5
2CF
100
AcDbEntity
  8
0
100
AcDbLine
 62
7
  6
CONTINUOUS
 10
221.5442721145
 20
244.8684000926
 30
0.0
 11
218.5442721145
 21
244.8684000926
 31
0.0
  0
LINE
  5
2D0
100
AcDbEntity
  8
0
100
AcDbLine
 62
7
  6
CONTINUOUS
 10
168.5442721145
 20
244.8684000926
 30
0.0
 11
165.5442721145
 21
244.8684000926
 31
0.0
  0
LINE
  5
2D1
100
AcDbEntity
  8
0
100
AcDbLine
 62
7
  6
CONTINUOUS
 10
162.5442721145
 20
244.8684000926
 30
0.0
 11
159.5442721145
 21
244.8684000926
 31
0.0
  0
LINE
  5
2D2
100
AcDbEntity
  8
0
100
AcDbLine
 62
7
  6
CONTINUOUS
 10
208.5442721145
 20
246.8684000926
 30
0.0
 11
203.5442721145
 21
246.8684000926
 31
0.0
  0
LINE
  5
2D3
100
AcDbEntity
  8
0
100
AcDbLine
 62
7
  6
CONTINUOUS
 10
183.5442721145
 20
246.8684000926
 30
0.0
 11
178.5442721145
 21
246.8684000926
 31
0.0
  0
LINE
  5
2D4
100
AcDbEntity
  8
0
100
AcDbLine
 62
7
  6
CONTINUOUS
 10
224.5442721145
 20
244.8684000926
 30
0.0
 11
224.5442721145
 21
238.8684000926
 31
0.0
  0
LINE
  5
2D5
100
AcDbEntity
  8
0
100
AcDbLine
 62
7
  6
CONTINUOUS
 10
224.5442721145
 20
200.8684000926
 30
0.0
 11
224.5442721145
 21
194.8684000926
 31
0.0
  0
LINE
  5
2D6
100
AcDbEntity
  8
0
100
AcDbLine
 62
7
  6
CONTINUOUS
 10
227.5442721145
 20
194.8684000926
 30
0.0
 11
227.5442721145
 21
244.8684000926
 31
0.0
  0
LINE
  5
2D7
100
AcDbEntity
  8
0
100
AcDbLine
 62
7
  6
CONTINUOUS
 10
178.5442721145
 20
252.8684000926
 30
0.0
 11
183.5442721145
 21
252.8684000926
 31
0.0
  0
LINE
  5
2D8
100
AcDbEntity
  8
0
100
AcDbLine
 62
7
  6
CONTINUOUS
 10
203.5442721145
 20
252.8684000926
 30
0.0
 11
208.5442721145
 21
252.8684000926
 31
0.0
  0
LINE
  5
2D9
100
AcDbEntity
  8
0
100
AcDbLine
 62
7
  6
CONTINUOUS
 10
218.5442721145
 20
259.8684000926
 30
0.0
 11
168.5442721145
 21
259.8684000926
 31
0.0
  0
LINE
  5
2DA
100
AcDbEntity
  8
0
100
AcDbLine
 62
7
  6
CONTINUOUS
 10
352.5595401294
 20
15.104913925
 30
0.0
 11
432.5595401294
 21
15.104913925
 31
0.0
  0
LINE
  5
2DB
100
AcDbEntity
  8
0
100
AcDbLine
 62
7
  6
CONTINUOUS
 10
417.5595401294
 20
27.104913925
 30
0.0
 11
367.5595401294
 21
27.104913925
 31
0.0
  0
LINE
  5
2DC
100
AcDbEntity
  8
0
100
AcDbLine
 62
7
  6
CONTINUOUS
 10
367.5595401294
 20
33.104913925
 30
0.0
 11
417.5595401294
 21
33.104913925
 31
0.0
  0
LINE
  5
2DD
100
AcDbEntity
  8
0
100
AcDbLine
 62
7
  6
CONTINUOUS
 10
352.5595401294
 20
110.6998069406
 30
0.0
 11
352.5595401294
 21
15.104913925
 31
0.0
  0
LINE
  5
2DE
100
AcDbEntity
  8
0
100
AcDbLine
 62
7
  6
CONTINUOUS
 10
432.5595401294
 20
177.8277774348
 30
0.0
 11
352.5595401294
 21
110.6998069406
 31
0.0
  0
LINE
  5
2DF
100
AcDbEntity
  8
0
100
AcDbLine
 62
7
  6
CONTINUOUS
 10
367.5595401294
 20
27.104913925
 30
0.0
 11
367.5595401294
 21
33.104913925
 31
0.0
  0
LINE
  5
2E0
100
AcDbEntity
  8
0
100
AcDbLine
 62
7
  6
CONTINUOUS
 10
432.5595401294
 20
80.104913925
 30
0.0
 11
412.5595401294
 21
80.104913925
 31
0.0
  0
LINE
  5
2E1
100
AcDbEntity
  8
0
100
AcDbLine
 62
7
  6
CONTINUOUS
 10
412.5595401294
 20
83.104913925
 30
0.0
 11
432.5595401294
 21
83.104913925
 31
0.0
  0
LINE
  5
2E2
100
AcDbEntity
  8
0
100
AcDbLine
 62
7
  6
CONTINUOUS
 10
412.5595401294
 20
80.104913925
 30
0.0
 11
412.5595401294
 21
83.104913925
 31
0.0
  0
LINE
  5
2E3
100
AcDbEntity
  8
0
100
AcDbLine
 62
7
  6
CONTINUOUS
 10
412.5595401294
 20
140.104913925
 30
0.0
 11
412.5595401294
 21
143.104913925
 31
0.0
  0
LINE
  5
2E4
100
AcDbEntity
  8
0
100
AcDbLine
 62
7
  6
CONTINUOUS
 10
417.5595401294
 20
33.104913925
 30
0.0
 11
417.5595401294
 21
27.104913925
 31
0.0
  0
LINE
  5
2E5
100
AcDbEntity
  8
0
100
AcDbLine
 62
7
  6
CONTINUOUS
 10
432.5595401294
 20
15.104913925
 30
0.0
 11
432.5595401294
 21
80.104913925
 31
0.0
  0
LINE
  5
2E6
100
AcDbEntity
  8
0
100
AcDbLine
 62
7
  6
CONTINUOUS
 10
432.5595401294
 20
83.104913925
 30
0.0
 11
432.5595401294
 21
140.104913925
 31
0.0
  0
LINE
  5
2E7
100
AcDbEntity
  8
0
100
AcDbLine
 62
7
  6
CONTINUOUS
 10
432.5595401294
 20
143.104913925
 30
0.0
 11
432.5595401294
 21
177.8277774348
 31
0.0
  0
LINE
  5
2E8
100
AcDbEntity
  8
0
100
AcDbLine
 62
7
  6
CONTINUOUS
 10
432.5595401294
 20
140.104913925
 30
0.0
 11
412.5595401294
 21
140.104913925
 31
0.0
  0
LINE
  5
2E9
100
AcDbEntity
  8
0
100
AcDbLine
 62
7
  6
CONTINUOUS
 10
412.5595401294
 20
143.104913925
 30
0.0
 11
432.5595401294
 21
143.104913925
 31
0.0
  0
LINE
  5
2EA
100
AcDbEntity
  8
0
100
AcDbLine
 62
7
  6
CONTINUOUS
 10
372.5596492701
 20
151.4226605211
 30
0.0
 11
352.5596492701
 21
151.4226605211
 31
0.0
  0
LINE
  5
2EB
100
AcDbEntity
  8
0
100
AcDbLine
 62
7
  6
CONTINUOUS
 10
352.5596492701
 20
154.4226605211
 30
0.0
 11
372.5596492701
 21
154.4226605211
 31
0.0
  0
LINE
  5
2EC
100
AcDbEntity
  8
0
100
AcDbLine
 62
7
  6
CONTINUOUS
 10
352.5596492701
 20
279.4226605211
 30
0.0
 11
352.5596492701
 21
214.4226605211
 31
0.0
  0
LINE
  5
2ED
100
AcDbEntity
  8
0
100
AcDbLine
 62
7
  6
CONTINUOUS
 10
352.5596492701
 20
211.4226605211
 30
0.0
 11
352.5596492701
 21
154.4226605211
 31
0.0
  0
LINE
  5
2EE
100
AcDbEntity
  8
0
100
AcDbLine
 62
7
  6
CONTINUOUS
 10
352.5596492701
 20
151.4226605211
 30
0.0
 11
352.5596492701
 21
116.6997970113
 31
0.0
  0
LINE
  5
2EF
100
AcDbEntity
  8
0
100
AcDbLine
 62
7
  6
CONTINUOUS
 10
367.5596492701
 20
261.4226605211
 30
0.0
 11
367.5596492701
 21
267.4226605211
 31
0.0
  0
LINE
  5
2F0
100
AcDbEntity
  8
0
100
AcDbLine
 62
7
  6
CONTINUOUS
 10
372.5596492701
 20
214.4226605211
 30
0.0
 11
372.5596492701
 21
211.4226605211
 31
0.0
  0
LINE
  5
2F1
100
AcDbEntity
  8
0
100
AcDbLine
 62
7
  6
CONTINUOUS
 10
372.5596492701
 20
154.4226605211
 30
0.0
 11
372.5596492701
 21
151.4226605211
 31
0.0
  0
LINE
  5
2F2
100
AcDbEntity
  8
0
100
AcDbLine
 62
7
  6
CONTINUOUS
 10
372.5596492701
 20
211.4226605211
 30
0.0
 11
352.5596492701
 21
211.4226605211
 31
0.0
  0
LINE
  5
2F3
100
AcDbEntity
  8
0
100
AcDbLine
 62
7
  6
CONTINUOUS
 10
352.5596492701
 20
214.4226605211
 30
0.0
 11
372.5596492701
 21
214.4226605211
 31
0.0
  0
LINE
  5
2F4
100
AcDbEntity
  8
0
100
AcDbLine
 62
7
  6
CONTINUOUS
 10
417.5596492701
 20
267.4226605211
 30
0.0
 11
417.5596492701
 21
261.4226605211
 31
0.0
  0
LINE
  5
2F5
100
AcDbEntity
  8
0
100
AcDbLine
 62
7
  6
CONTINUOUS
 10
352.5596492701
 20
116.6997970113
 30
0.0
 11
432.5596492701
 21
183.8277675055
 31
0.0
  0
LINE
  5
2F6
100
AcDbEntity
  8
0
100
AcDbLine
 62
7
  6
CONTINUOUS
 10
432.5596492701
 20
183.8277675055
 30
0.0
 11
432.5596492701
 21
279.4226605211
 31
0.0
  0
LINE
  5
2F7
100
AcDbEntity
  8
0
100
AcDbLine
 62
7
  6
CONTINUOUS
 10
417.5596492701
 20
261.4226605211
 30
0.0
 11
367.5596492701
 21
261.4226605211
 31
0.0
  0
LINE
  5
2F8
100
AcDbEntity
  8
0
100
AcDbLine
 62
7
  6
CONTINUOUS
 10
367.5596492701
 20
267.4226605211
 30
0.0
 11
417.5596492701
 21
267.4226605211
 31
0.0
  0
LINE
  5
2F9
100
AcDbEntity
  8
0
100
AcDbLine
 62
7
  6
CONTINUOUS
 10
432.5596492701
 20
279.4226605211
 30
0.0
 11
352.5596492701
 21
279.4226605211
 31
0.0
  0
LINE
  5
2FA
100
AcDbEntity
  8
0
100
AcDbLine
 62
7
  6
CONTINUOUS
 10
232.7882467458
 20
65.7012021033
 30
0.0
 11
212.7882467458
 21
65.7012021033
 31
0.0
  0
LINE
  5
2FB
100
AcDbEntity
  8
0
100
AcDbLine
 62
7
  6
CONTINUOUS
 10
212.7882467458
 20
68.7012021033
 30
0.0
 11
232.7882467458
 21
68.7012021033
 31
0.0
  0
LINE
  5
2FC
100
AcDbEntity
  8
0
100
AcDbLine
 62
7
  6
CONTINUOUS
 10
212.7882467458
 20
116.2676478531
 30
0.0
 11
212.7882467458
 21
68.7012021033
 31
0.0
  0
LINE
  5
2FD
100
AcDbEntity
  8
0
100
AcDbLine
 62
7
  6
CONTINUOUS
 10
212.7882467458
 20
65.7012021033
 30
0.0
 11
212.7882467458
 21
26.2676478531
 31
0.0
  0
LINE
  5
2FE
100
AcDbEntity
  8
0
100
AcDbLine
 62
7
  6
CONTINUOUS
 10
232.7882467458
 20
68.7012021033
 30
0.0
 11
232.7882467458
 21
65.7012021033
 31
0.0
  0
LINE
  5
2FF
100
AcDbEntity
  8
0
100
AcDbLine
 62
7
  6
CONTINUOUS
 10
350.167101039
 20
280.4240656131
 30
0.0
 11
212.7882467458
 21
116.2676478531
 31
0.0
  0
LINE
  5
300
100
AcDbEntity
  8
0
100
AcDbLine
 62
7
  6
CONTINUOUS
 10
350.167101039
 20
176.4240656131
 30
0.0
 11
330.167101039
 21
176.4240656131
 31
0.0
  0
LINE
  5
301
100
AcDbEntity
  8
0
100
AcDbLine
 62
7
  6
CONTINUOUS
 10
330.167101039
 20
179.4240656131
 30
0.0
 11
350.167101039
 21
179.4240656131
 31
0.0
  0
LINE
  5
302
100
AcDbEntity
  8
0
100
AcDbLine
 62
7
  6
CONTINUOUS
 10
330.167101039
 20
176.4240656131
 30
0.0
 11
330.167101039
 21
179.4240656131
 31
0.0
  0
LINE
  5
303
100
AcDbEntity
  8
0
100
AcDbLine
 62
7
  6
CONTINUOUS
 10
330.167101039
 20
236.4240656131
 30
0.0
 11
330.167101039
 21
239.4240656131
 31
0.0
  0
LINE
  5
304
100
AcDbEntity
  8
0
100
AcDbLine
 62
7
  6
CONTINUOUS
 10
212.7882467458
 20
26.2676478531
 30
0.0
 11
350.167101039
 21
141.7012021033
 31
0.0
  0
LINE
  5
305
100
AcDbEntity
  8
0
100
AcDbLine
 62
7
  6
CONTINUOUS
 10
350.167101039
 20
141.7012021033
 30
0.0
 11
350.167101039
 21
176.4240656131
 31
0.0
  0
LINE
  5
306
100
AcDbEntity
  8
0
100
AcDbLine
 62
7
  6
CONTINUOUS
 10
350.167101039
 20
179.4240656131
 30
0.0
 11
350.167101039
 21
236.4240656131
 31
0.0
  0
LINE
  5
307
100
AcDbEntity
  8
0
100
AcDbLine
 62
7
  6
CONTINUOUS
 10
350.167101039
 20
239.4240656131
 30
0.0
 11
350.167101039
 21
280.4240656131
 31
0.0
  0
LINE
  5
308
100
AcDbEntity
  8
0
100
AcDbLine
 62
7
  6
CONTINUOUS
 10
350.167101039
 20
236.4240656131
 30
0.0
 11
330.167101039
 21
236.4240656131
 31
0.0
  0
LINE
  5
309
100
AcDbEntity
  8
0
100
AcDbLine
 62
7
  6
CONTINUOUS
 10
330.167101039
 20
239.4240656131
 30
0.0
 11
350.167101039
 21
239.4240656131
 31
0.0
  0
LINE
  5
30A
100
AcDbEntity
  8
0
100
AcDbLine
 62
7
  6
CONTINUOUS
 10
36.5265022883
 20
46.0202706175
 30
0.0
 11
16.5265022883
 21
46.0202706175
 31
0.0
  0
LINE
  5
30B
100
AcDbEntity
  8
0
100
AcDbLine
 62
7
  6
CONTINUOUS
 10
16.5265022883
 20
49.0202706175
 30
0.0
 11
36.5265022883
 21
49.0202706175
 31
0.0
  0
LINE
  5
30C
100
AcDbEntity
  8
0
100
AcDbLine
 62
7
  6
CONTINUOUS
 10
16.5265022883
 20
96.5867163673
 30
0.0
 11
16.5265022883
 21
49.0202706175
 31
0.0
  0
LINE
  5
30D
100
AcDbEntity
  8
0
100
AcDbLine
 62
7
  6
CONTINUOUS
 10
16.5265022883
 20
46.0202706175
 30
0.0
 11
16.5265022883
 21
6.5867163673
 31
0.0
  0
LINE
  5
30E
100
AcDbEntity
  8
0
100
AcDbLine
 62
7
  6
CONTINUOUS
 10
36.5265022883
 20
49.0202706175
 30
0.0
 11
36.5265022883
 21
46.0202706175
 31
0.0
  0
LINE
  5
30F
100
AcDbEntity
  8
0
100
AcDbLine
 62
7
  6
CONTINUOUS
 10
153.9053565815
 20
260.7431341273
 30
0.0
 11
16.5265022883
 21
96.5867163673
 31
0.0
  0
LINE
  5
310
100
AcDbEntity
  8
0
100
AcDbLine
 62
7
  6
CONTINUOUS
 10
153.9053565815
 20
156.7431341273
 30
0.0
 11
133.9053565815
 21
156.7431341273
 31
0.0
  0
LINE
  5
311
100
AcDbEntity
  8
0
100
AcDbLine
 62
7
  6
CONTINUOUS
 10
133.9053565815
 20
159.7431341273
 30
0.0
 11
153.9053565815
 21
159.7431341273
 31
0.0
  0
LINE
  5
312
100
AcDbEntity
  8
0
100
AcDbLine
 62
7
  6
CONTINUOUS
 10
133.9053565815
 20
156.7431341273
 30
0.0
 11
133.9053565815
 21
159.7431341273
 31
0.0
  0
LINE
  5
313
100
AcDbEntity
  8
0
100
AcDbLine
 62
7
  6
CONTINUOUS
 10
133.9053565815
 20
216.7431341273
 30
0.0
 11
133.9053565815
 21
219.7431341273
 31
0.0
  0
LINE
  5
314
100
AcDbEntity
  8
0
100
AcDbLine
 62
7
  6
CONTINUOUS
 10
16.5265022883
 20
6.5867163673
 30
0.0
 11
153.9053565815
 21
122.0202706175
 31
0.0
  0
LINE
  5
315
100
AcDbEntity
  8
0
100
AcDbLine
 62
7
  6
CONTINUOUS
 10
153.9053565815
 20
122.0202706175
 30
0.0
 11
153.9053565815
 21
156.7431341273
 31
0.0
  0
LINE
  5
316
100
AcDbEntity
  8
0
100
AcDbLine
 62
7
  6
CONTINUOUS
 10
153.9053565815
 20
159.7431341273
 30
0.0
 11
153.9053565815
 21
216.7431341273
 31
0.0
  0
LINE
  5
317
100
AcDbEntity
  8
0
100
AcDbLine
 62
7
  6
CONTINUOUS
 10
153.9053565815
 20
219.7431341273
 30
0.0
 11
153.9053565815
 21
260.7431341273
 31
0.0
  0
LINE
  5
318
100
AcDbEntity
  8
0
100
AcDbLine
 62
7
  6
CONTINUOUS
 10
153.9053565815
 20
216.7431341273
 30
0.0
 11
133.9053565815
 21
216.7431341273
 31
0.0
  0
LINE
  5
319
100
AcDbEntity
  8
0
100
AcDbLine
 62
7
  6
CONTINUOUS
 10
133.9053565815
 20
219.7431341273
 30
0.0
 11
153.9053565815
 21
219.7431341273
 31
0.0
  0
LINE
  5
31A
100
AcDbEntity
  8
0
100
AcDbLine
 62
7
  6
CONTINUOUS
 10
221.3591947724
 20
178.86518476
 30
0.0
 11
49.5192511484
 21
34.2917070202
 31
0.0
  0
LINE
  5
31B
100
AcDbEntity
  8
0
100
AcDbLine
 62
7
  6
CONTINUOUS
 10
66.6848721069
 20
9.8283485586
 30
0.0
 11
205.7308587823
 21
90.2324869889
 31
0.0
  0
LINE
  5
31C
100
AcDbEntity
  8
0
100
AcDbLine
 62
7
  6
CONTINUOUS
 10
212.5784236168
 20
129.0669569432
 30
0.0
 11
192.8822685566
 21
132.5399204966
 31
0.0
  0
LINE
  5
31D
100
AcDbEntity
  8
0
100
AcDbLine
 62
7
  6
CONTINUOUS
 10
192.8822685566
 20
132.5399204966
 30
0.0
 11
193.4032130896
 21
135.4943437556
 31
0.0
  0
LINE
  5
31E
100
AcDbEntity
  8
0
100
AcDbLine
 62
7
  6
CONTINUOUS
 10
193.4032130896
 20
135.4943437556
 30
0.0
 11
213.0993681498
 21
132.0213802023
 31
0.0
  0
LINE
  5
31F
100
AcDbEntity
  8
0
100
AcDbLine
 62
7
  6
CONTINUOUS
 10
205.7308587823
 20
90.2324869889
 30
0.0
 11
212.5784236168
 21
129.0669569432
 31
0.0
  0
LINE
  5
320
100
AcDbEntity
  8
0
100
AcDbLine
 62
7
  6
CONTINUOUS
 10
213.0993681498
 20
132.0213802023
 30
0.0
 11
221.3591947724
 21
178.86518476
 31
0.0
  0
LINE
  5
321
100
AcDbEntity
  8
0
100
AcDbLine
 62
7
  6
CONTINUOUS
 10
7.5806336887
 20
175.8971134851
 30
0.0
 11
7.5806336887
 21
136.4635592349
 31
0.0
  0
LINE
  5
322
100
AcDbEntity
  8
0
100
AcDbLine
 62
7
  6
CONTINUOUS
 10
7.5806336887
 20
133.4635592349
 30
0.0
 11
7.5806336887
 21
85.8971134851
 31
0.0
  0
LINE
  5
323
100
AcDbEntity
  8
0
100
AcDbLine
 62
7
  6
CONTINUOUS
 10
27.5806336887
 20
136.4635592349
 30
0.0
 11
27.5806336887
 21
133.4635592349
 31
0.0
  0
LINE
  5
324
100
AcDbEntity
  8
0
100
AcDbLine
 62
7
  6
CONTINUOUS
 10
27.5806336887
 20
133.4635592349
 30
0.0
 11
7.5806336887
 21
133.4635592349
 31
0.0
  0
LINE
  5
325
100
AcDbEntity
  8
0
100
AcDbLine
 62
7
  6
CONTINUOUS
 10
130.5521672766
 20
279.2248145835
 30
0.0
 11
7.5806336887
 21
175.8971134851
 31
0.0
  0
LINE
  5
326
100
AcDbEntity
  8
0
100
AcDbLine
 62
7
  6
CONTINUOUS
 10
7.5806336887
 20
136.4635592349
 30
0.0
 11
27.5806336887
 21
136.4635592349
 31
0.0
  0
LINE
  5
327
100
AcDbEntity
  8
0
100
AcDbLine
 62
7
  6
CONTINUOUS
 10
7.5806336887
 20
85.8971134851
 30
0.0
 11
151.7050214982
 21
258.1138883038
 31
0.0
  0
LINE
  5
328
100
AcDbEntity
  8
0
100
AcDbLine
 62
7
  6
CONTINUOUS
 10
12.3373120301
 20
215.0988721805
 30
0.0
 11
52.3373120301
 21
215.0988721805
 31
0.0
  0
LINE
  5
329
100
AcDbEntity
  8
0
100
AcDbLine
 62
7
  6
CONTINUOUS
 10
52.3373120301
 20
218.0988721805
 30
0.0
 11
46.3373120301
 21
218.0988721805
 31
0.0
  0
LINE
  5
32A
100
AcDbEntity
  8
0
100
AcDbLine
 62
7
  6
CONTINUOUS
 10
18.3373120301
 20
218.0988721805
 30
0.0
 11
12.3373120301
 21
218.0988721805
 31
0.0
  0
LINE
  5
32B
100
AcDbEntity
  8
0
100
AcDbLine
 62
7
  6
CONTINUOUS
 10
12.3373120301
 20
221.0988721805
 30
0.0
 11
18.3373120301
 21
221.0988721805
 31
0.0
  0
LINE
  5
32C
100
AcDbEntity
  8
0
100
AcDbLine
 62
7
  6
CONTINUOUS
 10
46.3373120301
 20
221.0988721805
 30
0.0
 11
52.3373120301
 21
221.0988721805
 31
0.0
  0
LINE
  5
32D
100
AcDbEntity
  8
0
100
AcDbLine
 62
7
  6
CONTINUOUS
 10
9.3373120301
 20
224.0988721805
 30
0.0
 11
12.3373120301
 21
224.0988721805
 31
0.0
  0
LINE
  5
32E
100
AcDbEntity
  8
0
100
AcDbLine
 62
7
  6
CONTINUOUS
 10
52.3373120301
 20
224.0988721805
 30
0.0
 11
55.3373120301
 21
224.0988721805
 31
0.0
  0
LINE
  5
32F
100
AcDbEntity
  8
0
100
AcDbLine
 62
7
  6
CONTINUOUS
 10
9.3373120301
 20
274.0988721805
 30
0.0
 11
9.3373120301
 21
224.0988721805
 31
0.0
  0
LINE
  5
330
100
AcDbEntity
  8
0
100
AcDbLine
 62
7
  6
CONTINUOUS
 10
12.3373120301
 20
283.0988721805
 30
0.0
 11
12.3373120301
 21
280.0988721805
 31
0.0
  0
LINE
  5
331
100
AcDbEntity
  8
0
100
AcDbLine
 62
7
  6
CONTINUOUS
 10
12.3373120301
 20
277.0988721805
 30
0.0
 11
12.3373120301
 21
274.0988721805
 31
0.0
  0
LINE
  5
332
100
AcDbEntity
  8
0
100
AcDbLine
 62
7
  6
CONTINUOUS
 10
12.3373120301
 20
224.0988721805
 30
0.0
 11
12.3373120301
 21
221.0988721805
 31
0.0
  0
LINE
  5
333
100
AcDbEntity
  8
0
100
AcDbLine
 62
7
  6
CONTINUOUS
 10
12.3373120301
 20
218.0988721805
 30
0.0
 11
12.3373120301
 21
215.0988721805
 31
0.0
  0
LINE
  5
334
100
AcDbEntity
  8
0
100
AcDbLine
 62
7
  6
CONTINUOUS
 10
18.3373120301
 20
280.0988721805
 30
0.0
 11
18.3373120301
 21
277.0988721805
 31
0.0
  0
LINE
  5
335
100
AcDbEntity
  8
0
100
AcDbLine
 62
7
  6
CONTINUOUS
 10
18.3373120301
 20
221.0988721805
 30
0.0
 11
18.3373120301
 21
218.0988721805
 31
0.0
  0
LINE
  5
336
100
AcDbEntity
  8
0
100
AcDbLine
 62
7
  6
CONTINUOUS
 10
46.3373120301
 20
218.0988721805
 30
0.0
 11
46.3373120301
 21
221.0988721805
 31
0.0
  0
LINE
  5
337
100
AcDbEntity
  8
0
100
AcDbLine
 62
7
  6
CONTINUOUS
 10
46.3373120301
 20
277.0988721805
 30
0.0
 11
46.3373120301
 21
280.0988721805
 31
0.0
  0
LINE
  5
338
100
AcDbEntity
  8
0
100
AcDbLine
 62
7
  6
CONTINUOUS
 10
52.3373120301
 20
215.0988721805
 30
0.0
 11
52.3373120301
 21
218.0988721805
 31
0.0
  0
LINE
  5
339
100
AcDbEntity
  8
0
100
AcDbLine
 62
7
  6
CONTINUOUS
 10
52.3373120301
 20
221.0988721805
 30
0.0
 11
52.3373120301
 21
224.0988721805
 31
0.0
  0
LINE
  5
33A
100
AcDbEntity
  8
0
100
AcDbLine
 62
7
  6
CONTINUOUS
 10
52.3373120301
 20
274.0988721805
 30
0.0
 11
52.3373120301
 21
277.0988721805
 31
0.0
  0
LINE
  5
33B
100
AcDbEntity
  8
0
100
AcDbLine
 62
7
  6
CONTINUOUS
 10
52.3373120301
 20
280.0988721805
 30
0.0
 11
52.3373120301
 21
283.0988721805
 31
0.0
  0
LINE
  5
33C
100
AcDbEntity
  8
0
100
AcDbLine
 62
7
  6
CONTINUOUS
 10
55.3373120301
 20
224.0988721805
 30
0.0
 11
55.3373120301
 21
274.0988721805
 31
0.0
  0
LINE
  5
33D
100
AcDbEntity
  8
0
100
AcDbLine
 62
7
  6
CONTINUOUS
 10
55.3373120301
 20
274.0988721805
 30
0.0
 11
52.3373120301
 21
274.0988721805
 31
0.0
  0
LINE
  5
33E
100
AcDbEntity
  8
0
100
AcDbLine
 62
7
  6
CONTINUOUS
 10
12.3373120301
 20
274.0988721805
 30
0.0
 11
9.3373120301
 21
274.0988721805
 31
0.0
  0
LINE
  5
33F
100
AcDbEntity
  8
0
100
AcDbLine
 62
7
  6
CONTINUOUS
 10
52.3373120301
 20
277.0988721805
 30
0.0
 11
46.3373120301
 21
277.0988721805
 31
0.0
  0
LINE
  5
340
100
AcDbEntity
  8
0
100
AcDbLine
 62
7
  6
CONTINUOUS
 10
18.3373120301
 20
277.0988721805
 30
0.0
 11
12.3373120301
 21
277.0988721805
 31
0.0
  0
LINE
  5
341
100
AcDbEntity
  8
0
100
AcDbLine
 62
7
  6
CONTINUOUS
 10
12.3373120301
 20
280.0988721805
 30
0.0
 11
18.3373120301
 21
280.0988721805
 31
0.0
  0
LINE
  5
342
100
AcDbEntity
  8
0
100
AcDbLine
 62
7
  6
CONTINUOUS
 10
46.3373120301
 20
280.0988721805
 30
0.0
 11
52.3373120301
 21
280.0988721805
 31
0.0
  0
LINE
  5
343
100
AcDbEntity
  8
0
100
AcDbLine
 62
7
  6
CONTINUOUS
 10
52.3373120301
 20
283.0988721805
 30
0.0
 11
12.3373120301
 21
283.0988721805
 31
0.0
  0
LINE
  5
344
100
AcDbEntity
  8
0
100
AcDbLine
 62
7
  6
CONTINUOUS
 10
234.26930625
 20
278.3813527021
 30
0.0
 11
234.26930625
 21
238.3813527021
 31
0.0
  0
LINE
  5
345
100
AcDbEntity
  8
0
100
AcDbLine
 62
7
  6
CONTINUOUS
 10
237.26930625
 20
238.3813527021
 30
0.0
 11
237.26930625
 21
244.3813527021
 31
0.0
  0
LINE
  5
346
100
AcDbEntity
  8
0
100
AcDbLine
 62
7
  6
CONTINUOUS
 10
237.26930625
 20
272.3813527021
 30
0.0
 11
237.26930625
 21
278.3813527021
 31
0.0
  0
LINE
  5
347
100
AcDbEntity
  8
0
100
AcDbLine
 62
7
  6
CONTINUOUS
 10
240.26930625
 20
278.3813527021
 30
0.0
 11
240.26930625
 21
272.3813527021
 31
0.0
  0
LINE
  5
348
100
AcDbEntity
  8
0
100
AcDbLine
 62
7
  6
CONTINUOUS
 10
240.26930625
 20
244.3813527021
 30
0.0
 11
240.26930625
 21
238.3813527021
 31
0.0
  0
LINE
  5
349
100
AcDbEntity
  8
0
100
AcDbLine
 62
7
  6
CONTINUOUS
 10
243.26930625
 20
281.3813527021
 30
0.0
 11
243.26930625
 21
278.3813527021
 31
0.0
  0
LINE
  5
34A
100
AcDbEntity
  8
0
100
AcDbLine
 62
7
  6
CONTINUOUS
 10
243.26930625
 20
238.3813527021
 30
0.0
 11
243.26930625
 21
235.3813527021
 31
0.0
  0
LINE
  5
34B
100
AcDbEntity
  8
0
100
AcDbLine
 62
7
  6
CONTINUOUS
 10
243.26930625
 20
235.3813527021
 30
0.0
 11
293.26930625
 21
235.3813527021
 31
0.0
  0
LINE
  5
34C
100
AcDbEntity
  8
0
100
AcDbLine
 62
7
  6
CONTINUOUS
 10
234.26930625
 20
238.3813527021
 30
0.0
 11
237.26930625
 21
238.3813527021
 31
0.0
  0
LINE
  5
34D
100
AcDbEntity
  8
0
100
AcDbLine
 62
7
  6
CONTINUOUS
 10
240.26930625
 20
238.3813527021
 30
0.0
 11
243.26930625
 21
238.3813527021
 31
0.0
  0
LINE
  5
34E
100
AcDbEntity
  8
0
100
AcDbLine
 62
7
  6
CONTINUOUS
 10
293.26930625
 20
238.3813527021
 30
0.0
 11
296.26930625
 21
238.3813527021
 31
0.0
  0
LINE
  5
34F
100
AcDbEntity
  8
0
100
AcDbLine
 62
7
  6
CONTINUOUS
 10
299.26930625
 20
238.3813527021
 30
0.0
 11
302.26930625
 21
238.3813527021
 31
0.0
  0
LINE
  5
350
100
AcDbEntity
  8
0
100
AcDbLine
 62
7
  6
CONTINUOUS
 10
237.26930625
 20
244.3813527021
 30
0.0
 11
240.26930625
 21
244.3813527021
 31
0.0
  0
LINE
  5
351
100
AcDbEntity
  8
0
100
AcDbLine
 62
7
  6
CONTINUOUS
 10
296.26930625
 20
244.3813527021
 30
0.0
 11
299.26930625
 21
244.3813527021
 31
0.0
  0
LINE
  5
352
100
AcDbEntity
  8
0
100
AcDbLine
 62
7
  6
CONTINUOUS
 10
299.26930625
 20
272.3813527021
 30
0.0
 11
296.26930625
 21
272.3813527021
 31
0.0
  0
LINE
  5
353
100
AcDbEntity
  8
0
100
AcDbLine
 62
7
  6
CONTINUOUS
 10
240.26930625
 20
272.3813527021
 30
0.0
 11
237.26930625
 21
272.3813527021
 31
0.0
  0
LINE
  5
354
100
AcDbEntity
  8
0
100
AcDbLine
 62
7
  6
CONTINUOUS
 10
302.26930625
 20
278.3813527021
 30
0.0
 11
299.26930625
 21
278.3813527021
 31
0.0
  0
LINE
  5
355
100
AcDbEntity
  8
0
100
AcDbLine
 62
7
  6
CONTINUOUS
 10
296.26930625
 20
278.3813527021
 30
0.0
 11
293.26930625
 21
278.3813527021
 31
0.0
  0
LINE
  5
356
100
AcDbEntity
  8
0
100
AcDbLine
 62
7
  6
CONTINUOUS
 10
243.26930625
 20
278.3813527021
 30
0.0
 11
240.26930625
 21
278.3813527021
 31
0.0
  0
LINE
  5
357
100
AcDbEntity
  8
0
100
AcDbLine
 62
7
  6
CONTINUOUS
 10
237.26930625
 20
278.3813527021
 30
0.0
 11
234.26930625
 21
278.3813527021
 31
0.0
  0
LINE
  5
358
100
AcDbEntity
  8
0
100
AcDbLine
 62
7
  6
CONTINUOUS
 10
293.26930625
 20
281.3813527021
 30
0.0
 11
243.26930625
 21
281.3813527021
 31
0.0
  0
LINE
  5
359
100
AcDbEntity
  8
0
100
AcDbLine
 62
7
  6
CONTINUOUS
 10
293.26930625
 20
235.3813527021
 30
0.0
 11
293.26930625
 21
238.3813527021
 31
0.0
  0
LINE
  5
35A
100
AcDbEntity
  8
0
100
AcDbLine
 62
7
  6
CONTINUOUS
 10
293.26930625
 20
278.3813527021
 30
0.0
 11
293.26930625
 21
281.3813527021
 31
0.0
  0
LINE
  5
35B
100
AcDbEntity
  8
0
100
AcDbLine
 62
7
  6
CONTINUOUS
 10
296.26930625
 20
238.3813527021
 30
0.0
 11
296.26930625
 21
244.3813527021
 31
0.0
  0
LINE
  5
35C
100
AcDbEntity
  8
0
100
AcDbLine
 62
7
  6
CONTINUOUS
 10
296.26930625
 20
272.3813527021
 30
0.0
 11
296.26930625
 21
278.3813527021
 31
0.0
  0
LINE
  5
35D
100
AcDbEntity
  8
0
100
AcDbLine
 62
7
  6
CONTINUOUS
 10
299.26930625
 20
278.3813527021
 30
0.0
 11
299.26930625
 21
272.3813527021
 31
0.0
  0
LINE
  5
35E
100
AcDbEntity
  8
0
100
AcDbLine
 62
7
  6
CONTINUOUS
 10
299.26930625
 20
244.3813527021
 30
0.0
 11
299.26930625
 21
238.3813527021
 31
0.0
  0
LINE
  5
35F
100
AcDbEntity
  8
0
100
AcDbLine
 62
7
  6
CONTINUOUS
 10
302.26930625
 20
238.3813527021
 30
0.0
 11
302.26930625
 21
278.3813527021
 31
0.0
  0
LINE
  5
360
100
AcDbEntity
  8
0
100
AcDbLine
 62
7
  6
CONTINUOUS
 10
140.8334388863
 20
51.0219065378
 30
0.0
 11
140.8334388863
 21
11.0219065378
 31
0.0
  0
LINE
  5
361
100
AcDbEntity
  8
0
100
AcDbLine
 62
7
  6
CONTINUOUS
 10
143.8334388863
 20
11.0219065378
 30
0.0
 11
143.8334388863
 21
17.0219065378
 31
0.0
  0
LINE
  5
362
100
AcDbEntity
  8
0
100
AcDbLine
 62
7
  6
CONTINUOUS
 10
143.8334388863
 20
45.0219065378
 30
0.0
 11
143.8334388863
 21
51.0219065378
 31
0.0
  0
LINE
  5
363
100
AcDbEntity
  8
0
100
AcDbLine
 62
7
  6
CONTINUOUS
 10
146.8334388863
 20
51.0219065378
 30
0.0
 11
146.8334388863
 21
45.0219065378
 31
0.0
  0
LINE
  5
364
100
AcDbEntity
  8
0
100
AcDbLine
 62
7
  6
CONTINUOUS
 10
146.8334388863
 20
17.0219065378
 30
0.0
 11
146.8334388863
 21
11.0219065378
 31
0.0
  0
LINE
  5
365
100
AcDbEntity
  8
0
100
AcDbLine
 62
7
  6
CONTINUOUS
 10
149.8334388863
 20
54.0219065378
 30
0.0
 11
149.8334388863
 21
51.0219065378
 31
0.0
  0
LINE
  5
366
100
AcDbEntity
  8
0
100
AcDbLine
 62
7
  6
CONTINUOUS
 10
149.8334388863
 20
11.0219065378
 30
0.0
 11
149.8334388863
 21
8.0219065378
 31
0.0
  0
LINE
  5
367
100
AcDbEntity
  8
0
100
AcDbLine
 62
7
  6
CONTINUOUS
 10
149.8334388863
 20
8.0219065378
 30
0.0
 11
199.8334388863
 21
8.0219065378
 31
0.0
  0
LINE
  5
368
100
AcDbEntity
  8
0
100
AcDbLine
 62
7
  6
CONTINUOUS
 10
140.8334388863
 20
11.0219065378
 30
0.0
 11
143.8334388863
 21
11.0219065378
 31
0.0
  0
LINE
  5
369
100
AcDbEntity
  8
0
100
AcDbLine
 62
7
  6
CONTINUOUS
 10
146.8334388863
 20
11.0219065378
 30
0.0
 11
149.8334388863
 21
11.0219065378
 31
0.0
  0
LINE
  5
36A
100
AcDbEntity
  8
0
100
AcDbLine
 62
7
  6
CONTINUOUS
 10
199.8334388863
 20
11.0219065378
 30
0.0
 11
202.8334388863
 21
11.0219065378
 31
0.0
  0
LINE
  5
36B
100
AcDbEntity
  8
0
100
AcDbLine
 62
7
  6
CONTINUOUS
 10
205.8334388863
 20
11.0219065378
 30
0.0
 11
208.8334388863
 21
11.0219065378
 31
0.0
  0
LINE
  5
36C
100
AcDbEntity
  8
0
100
AcDbLine
 62
7
  6
CONTINUOUS
 10
143.8334388863
 20
17.0219065378
 30
0.0
 11
146.8334388863
 21
17.0219065378
 31
0.0
  0
LINE
  5
36D
100
AcDbEntity
  8
0
100
AcDbLine
 62
7
  6
CONTINUOUS
 10
202.8334388863
 20
17.0219065378
 30
0.0
 11
205.8334388863
 21
17.0219065378
 31
0.0
  0
LINE
  5
36E
100
AcDbEntity
  8
0
100
AcDbLine
 62
7
  6
CONTINUOUS
 10
205.8334388863
 20
45.0219065378
 30
0.0
 11
202.8334388863
 21
45.0219065378
 31
0.0
  0
LINE
  5
36F
100
AcDbEntity
  8
0
100
AcDbLine
 62
7
  6
CONTINUOUS
 10
146.8334388863
 20
45.0219065378
 30
0.0
 11
143.8334388863
 21
45.0219065378
 31
0.0
  0
LINE
  5
370
100
AcDbEntity
  8
0
100
AcDbLine
 62
7
  6
CONTINUOUS
 10
208.8334388863
 20
51.0219065378
 30
0.0
 11
205.8334388863
 21
51.0219065378
 31
0.0
  0
LINE
  5
371
100
AcDbEntity
  8
0
100
AcDbLine
 62
7
  6
CONTINUOUS
 10
202.8334388863
 20
51.0219065378
 30
0.0
 11
199.8334388863
 21
51.0219065378
 31
0.0
  0
LINE
  5
372
100
AcDbEntity
  8
0
100
AcDbLine
 62
7
  6
CONTINUOUS
 10
149.8334388863
 20
51.0219065378
 30
0.0
 11
146.8334388863
 21
51.0219065378
 31
0.0
  0
LINE
  5
373
100
AcDbEntity
  8
0
100
AcDbLine
 62
7
  6
CONTINUOUS
 10
143.8334388863
 20
51.0219065378
 30
0.0
 11
140.8334388863
 21
51.0219065378
 31
0.0
  0
LINE
  5
374
100
AcDbEntity
  8
0
100
AcDbLine
 62
7
  6
CONTINUOUS
 10
199.8334388863
 20
54.0219065378
 30
0.0
 11
149.8334388863
 21
54.0219065378
 31
0.0
  0
LINE
  5
375
100
AcDbEntity
  8
0
100
AcDbLine
 62
7
  6
CONTINUOUS
 10
199.8334388863
 20
8.0219065378
 30
0.0
 11
199.8334388863
 21
11.0219065378
 31
0.0
  0
LINE
  5
376
100
AcDbEntity
  8
0
100
AcDbLine
 62
7
  6
CONTINUOUS
 10
199.8334388863
 20
51.0219065378
 30
0.0
 11
199.8334388863
 21
54.0219065378
 31
0.0
  0
LINE
  5
377
100
AcDbEntity
  8
0
100
AcDbLine
 62
7
  6
CONTINUOUS
 10
202.8334388863
 20
11.0219065378
 30
0.0
 11
202.8334388863
 21
17.0219065378
 31
0.0
  0
LINE
  5
378
100
AcDbEntity
  8
0
100
AcDbLine
 62
7
  6
CONTINUOUS
 10
202.8334388863
 20
45.0219065378
 30
0.0
 11
202.8334388863
 21
51.0219065378
 31
0.0
  0
LINE
  5
379
100
AcDbEntity
  8
0
100
AcDbLine
 62
7
  6
CONTINUOUS
 10
205.8334388863
 20
51.0219065378
 30
0.0
 11
205.8334388863
 21
45.0219065378
 31
0.0
  0
LINE
  5
37A
100
AcDbEntity
  8
0
100
AcDbLine
 62
7
  6
CONTINUOUS
 10
205.8334388863
 20
17.0219065378
 30
0.0
 11
205.8334388863
 21
11.0219065378
 31
0.0
  0
LINE
  5
37B
100
AcDbEntity
  8
0
100
AcDbLine
 62
7
  6
CONTINUOUS
 10
208.8334388863
 20
11.0219065378
 30
0.0
 11
208.8334388863
 21
51.0219065378
 31
0.0
  0
ARC
  5
37C
100
AcDbEntity
  8
0
100
AcDbCircle
 62
7
  6
CONTINUOUS
 10
325.7726364246
 20
14.6680750339
 30
0.0
 40
3.0
100
AcDbArc
 50
180.0
 51
360.0
  0
ARC
  5
37D
100
AcDbEntity
  8
0
100
AcDbCircle
 62
7
  6
CONTINUOUS
 10
325.7726364246
 20
19.6680750339
 30
0.0
 40
3.0
100
AcDbArc
 50
0.0
 51
180.0
  0
ARC
  5
37E
100
AcDbEntity
  8
0
100
AcDbCircle
 62
7
  6
CONTINUOUS
 10
300.7726364246
 20
19.6680750339
 30
0.0
 40
3.0
100
AcDbArc
 50
0.0
 51
180.0
  0
ARC
  5
37F
100
AcDbEntity
  8
0
100
AcDbCircle
 62
7
  6
CONTINUOUS
 10
300.7726364246
 20
14.6680750339
 30
0.0
 40
3.0
100
AcDbArc
 50
180.0
 51
360.0
  0
ARC
  5
380
100
AcDbEntity
  8
0
100
AcDbCircle
 62
7
  6
CONTINUOUS
 10
323.2726364246
 20
77.1680750339
 30
0.0
 40
3.0
100
AcDbArc
 50
90.0
 51
270.0
  0
ARC
  5
381
100
AcDbEntity
  8
0
100
AcDbCircle
 62
7
  6
CONTINUOUS
 10
328.2726364246
 20
77.1680750339
 30
0.0
 40
3.0
100
AcDbArc
 50
270.0
 51
90.0
  0
ARC
  5
382
100
AcDbEntity
  8
0
100
AcDbCircle
 62
7
  6
CONTINUOUS
 10
303.2726364246
 20
77.1680750339
 30
0.0
 40
3.0
100
AcDbArc
 50
270.0
 51
90.0
  0
ARC
  5
383
100
AcDbEntity
  8
0
100
AcDbCircle
 62
7
  6
CONTINUOUS
 10
298.2726364246
 20
77.1680750339
 30
0.0
 40
3.0
100
AcDbArc
 50
90.0
 51
270.0
  0
ARC
  5
384
100
AcDbEntity
  8
0
100
AcDbCircle
 62
7
  6
CONTINUOUS
 10
206.0442721145
 20
187.3684000926
 30
0.0
 40
3.0
100
AcDbArc
 50
180.0
 51
360.0
  0
ARC
  5
385
100
AcDbEntity
  8
0
100
AcDbCircle
 62
7
  6
CONTINUOUS
 10
206.0442721145
 20
192.3684000926
 30
0.0
 40
3.0
100
AcDbArc
 50
0.0
 51
180.0
  0
ARC
  5
386
100
AcDbEntity
  8
0
100
AcDbCircle
 62
7
  6
CONTINUOUS
 10
181.0442721145
 20
192.3684000926
 30
0.0
 40
3.0
100
AcDbArc
 50
0.0
 51
180.0
  0
ARC
  5
387
100
AcDbEntity
  8
0
100
AcDbCircle
 62
7
  6
CONTINUOUS
 10
181.0442721145
 20
187.3684000926
 30
0.0
 40
3.0
100
AcDbArc
 50
180.0
 51
360.0
  0
ARC
  5
388
100
AcDbEntity
  8
0
100
AcDbCircle
 62
7
  6
CONTINUOUS
 10
203.5442721145
 20
249.8684000926
 30
0.0
 40
3.0
100
AcDbArc
 50
90.0
 51
270.0
  0
ARC
  5
389
100
AcDbEntity
  8
0
100
AcDbCircle
 62
7
  6
CONTINUOUS
 10
208.5442721145
 20
249.8684000926
 30
0.0
 40
3.0
100
AcDbArc
 50
270.0
 51
90.0
  0
ARC
  5
38A
100
AcDbEntity
  8
0
100
AcDbCircle
 62
7
  6
CONTINUOUS
 10
183.5442721145
 20
249.8684000926
 30
0.0
 40
3.0
100
AcDbArc
 50
270.0
 51
90.0
  0
ARC
  5
38B
100
AcDbEntity
  8
0
100
AcDbCircle
 62
7
  6
CONTINUOUS
 10
178.5442721145
 20
249.8684000926
 30
0.0
 40
3.0
100
AcDbArc
 50
90.0
 51
270.0
  0
ARC
  5
38C
100
AcDbEntity
  8
0
100
AcDbCircle
 62
7
  6
CONTINUOUS
 10
59.1760555905
 20
22.8136354066
 30
0.0
 40
15.0
100
AcDbArc
 50
130.0747869221
 51
300.0388940264
  0
CIRCLE
  5
38D
100
AcDbEntity
  8
0
100
AcDbCircle
 62
7
  6
CONTINUOUS
 10
59.1760555905
 20
22.8136354066
 30
0.0
 40
4.0
  0
ARC
  5
38E
100
AcDbEntity
  8
0
100
AcDbCircle
 62
7
  6
CONTINUOUS
 10
140.2017793955
 20
267.7406957251
 30
0.0
 40
15.0
100
AcDbArc
 50
320.0747869221
 51
130.0388940264
  0
CIRCLE
  5
38F
100
AcDbEntity
  8
0
100
AcDbCircle
 62
7
  6
CONTINUOUS
 10
140.2017793955
 20
267.7406957251
 30
0.0
 40
4.0
  0
ENDSEC
  0
SECTION
  2
OBJECTS
  0
DICTIONARY
  5
C
100
AcDbDictionary
280
0
281
1
  3
ACAD_GROUP
350
D
  3
ACAD_MLINESTYLE
350
17
  3
ACAD_LAYOUT
350
1A
  3
ACAD_PLOTSETTINGS
350
19
  3
ACAD_PLOTSTYLENAME
350
E
  0
DICTIONARY
  5
D
102
{ACAD_REACTORS
330
C
102
}
100
AcDbDictionary
280
0
281
1
  0
ACDBDICTIONARYWDFLT
  5
E
102
{ACAD_REACTORS
330
C
102
}
100
AcDbDictionary
281
1
  3
Normal
350
F
100
AcDbDictionaryWithDefault
340
F
  0
DICTIONARY
  5
17
102
{ACAD_REACTORS
330
C
102
}
100
AcDbDictionary
280
0
281
1
  3
Standard
350
18
  0
DICTIONARY
  5
19
102
{ACAD_REACTORS
330
C
102
}
100
AcDbDictionary
281
1
  0
DICTIONARY
  5
1A
102
{ACAD_REACTORS
330
C
102
}
100
AcDbDictionary
281
1
  3
Model
350
390
  3
Layout1
350
391
  0
ACDBPLACEHOLDER
  5
F
102
{ACAD_REACTORS
330
E
102
}
  0
MLINESTYLE
  5
18
102
{ACAD_REACTORS
330
17
102
}
100
AcDbMlineStyle
  2
STANDARD
 70
0
  3

 62
256
 51
90.0
 52
90.0
 71
2
 49
0.5
 62
256
  6
BYLAYER
 49
-0.5
 62
256
  6
BYLAYER
  0
LAYOUT
  5
390
102
{ACAD_REACTORS
330
1A
102
}
100
AcDbPlotSettings
  1

  2
none_device
  4

  6

 40
0.0
 41
0.0
 42
0.0
 43
0.0
 44
440.0
 45
290.0
 46
0.0
 47
0.0
 48
0.0
 49
0.0
140
0.0
141
0.0
142
1.0
143
1.0
 70
1024
 72
1
 73
0
 74
0
  7

 75
0
147
1.0
148
0.0
149
0.0
100
AcDbLayout
  1
Model
 70
0
 71
0
 10
0.0
 20
0.0
 11
440.0
 21
290.0
 12
0.0
 22
0.0
 32
0.0
 14
0.0
 24
0.0
 34
0.0
 15
0.0
 25
0.0
 35
0.0
146
0.0
 13
0.0
 23
0.0
 33
0.0
 16
1.0
 26
0.0
 36
0.0
 17
0.0
 27
1.0
 37
0.0
 76
0
330
207
345
0
346
0
  0
LAYOUT
  5
391
102
{ACAD_REACTORS
330
1A
102
}
100
AcDbPlotSettings
  1

  2
none_device
  4

  6

 40
0.0
 41
0.0
 42
0.0
 43
0.0
 44
440.0
 45
290.0
 46
0.0
 47
0.0
 48
0.0
 49
0.0
140
0.0
141
0.0
142
1.0
143
1.0
 70
0
 72
1
 73
0
 74
0
  7

 75
0
147
1.0
148
0.0
149
0.0
100
AcDbLayout
  1
Layout1
 70
0
 71
1
 10
0.0
 20
0.0
 11
440.0
 21
290.0
 12
0.0
 22
0.0
 32
0.0
 14
0.0
 24
0.0
 34
0.0
 15
0.0
 25
0.0
 35
0.0
146
0.0
 13
0.0
 23
0.0
 33
0.0
 16
1.0
 26
0.0
 36
0.0
 17
0.0
 27
1.0
 37
0.0
 76
0
330
208
345
0
346
0
  0
ENDSEC
  0
EOF
